<svg width="466" height="7397" viewBox="0 0 466 7397" fill="none" xmlns="http://www.w3.org/2000/svg">
<rect x="461" y="1138" width="5" height="5" fill="white"/>
<rect x="461" y="1702" width="5" height="5" fill="white"/>
<rect y="1138" width="5" height="5" fill="white"/>
<rect y="1702" width="5" height="5" fill="white"/>
<ellipse cx="391.153" cy="1283.08" rx="17.1533" ry="17.0777" fill="#EDD257"/>
<ellipse cx="322.98" cy="1256.96" rx="4.98" ry="4.95804" fill="#EDD257"/>
<path fill-rule="evenodd" clip-rule="evenodd" d="M326 1258L380 1278L379.653 1278.94L325.653 1258.94L326 1258Z" fill="#EDD257"/>
<path d="M394.327 1287.81H388.271V1286.97L391.471 1283.42C391.945 1282.88 392.271 1282.44 392.448 1282.11C392.63 1281.77 392.721 1281.42 392.721 1281.06C392.721 1280.58 392.575 1280.18 392.283 1279.87C391.991 1279.56 391.602 1279.41 391.115 1279.41C390.531 1279.41 390.076 1279.58 389.75 1279.91C389.429 1280.24 389.268 1280.7 389.268 1281.3H388.094C388.094 1280.44 388.367 1279.76 388.913 1279.23C389.463 1278.71 390.197 1278.45 391.115 1278.45C391.974 1278.45 392.653 1278.67 393.153 1279.12C393.652 1279.57 393.902 1280.17 393.902 1280.92C393.902 1281.83 393.322 1282.91 392.163 1284.17L389.687 1286.86H394.327V1287.81Z" fill="#333333"/>
<rect x="461" y="1707" width="5" height="5" fill="white"/>
<rect x="461" y="2271" width="5" height="5" fill="white"/>
<rect y="1707" width="5" height="5" fill="white"/>
<rect y="2271" width="5" height="5" fill="white"/>
<ellipse cx="391.3" cy="1918.08" rx="17.1533" ry="17.0777" fill="#EDD257"/>
<ellipse cx="276.207" cy="1846.91" rx="4.98" ry="4.95804" fill="#EDD257"/>
<path fill-rule="evenodd" clip-rule="evenodd" d="M380 1916L275.653 1847.46L276.202 1846.62L380.549 1915.16L380 1916Z" fill="#EDD257"/>
<path d="M390.125 1917.62H391.008C391.562 1917.61 391.998 1917.47 392.315 1917.18C392.633 1916.9 392.792 1916.52 392.792 1916.04C392.792 1914.95 392.252 1914.41 391.173 1914.41C390.665 1914.41 390.259 1914.56 389.954 1914.85C389.654 1915.14 389.503 1915.52 389.503 1916H388.329C388.329 1915.26 388.596 1914.66 389.129 1914.18C389.666 1913.69 390.348 1913.45 391.173 1913.45C392.045 1913.45 392.728 1913.68 393.223 1914.14C393.718 1914.6 393.966 1915.24 393.966 1916.06C393.966 1916.46 393.835 1916.85 393.572 1917.23C393.314 1917.61 392.961 1917.89 392.512 1918.07C393.02 1918.23 393.411 1918.5 393.687 1918.87C393.966 1919.24 394.105 1919.7 394.105 1920.24C394.105 1921.07 393.835 1921.72 393.293 1922.21C392.751 1922.7 392.047 1922.94 391.179 1922.94C390.312 1922.94 389.605 1922.71 389.059 1922.24C388.517 1921.77 388.247 1921.15 388.247 1920.38H389.427C389.427 1920.86 389.586 1921.25 389.903 1921.54C390.221 1921.84 390.646 1921.98 391.179 1921.98C391.746 1921.98 392.18 1921.83 392.48 1921.54C392.781 1921.24 392.931 1920.82 392.931 1920.26C392.931 1919.73 392.766 1919.31 392.436 1919.02C392.106 1918.74 391.63 1918.59 391.008 1918.58H390.125V1917.62Z" fill="#333333"/>
<rect x="461" y="2276" width="5" height="5" fill="white"/>
<rect x="461" y="2840" width="5" height="5" fill="white"/>
<rect y="2276" width="5" height="5" fill="white"/>
<rect y="2840" width="5" height="5" fill="white"/>
<ellipse cx="391.3" cy="2563.08" rx="17.1533" ry="17.0777" fill="#EDD257"/>
<ellipse cx="275.1" cy="2476.51" rx="4.98" ry="4.95804" fill="#EDD257"/>
<path fill-rule="evenodd" clip-rule="evenodd" d="M275.653 2475.96L380 2559L379.377 2559.78L275.031 2476.74L275.653 2475.96Z" fill="#EDD257"/>
<path d="M393.375 2564.71H394.658V2565.67H393.375V2567.81H392.195V2565.67H387.986V2564.98L392.125 2558.57H393.375V2564.71ZM389.319 2564.71H392.195V2560.18L392.055 2560.43L389.319 2564.71Z" fill="#333333"/>
<rect x="461" y="2845" width="5" height="5" fill="white"/>
<rect x="461" y="3409" width="5" height="5" fill="white"/>
<rect y="2845" width="5" height="5" fill="white"/>
<rect y="3409" width="5" height="5" fill="white"/>
<ellipse cx="84.7534" cy="3106.08" rx="17.1533" ry="17.0777" fill="#EDD257"/>
<ellipse cx="206.487" cy="3074.15" rx="4.98" ry="4.95804" fill="#EDD257"/>
<path fill-rule="evenodd" clip-rule="evenodd" d="M205.933 3074.7L95.0001 3103L94.7529 3102.03L205.686 3073.73L205.933 3074.7Z" fill="#EDD257"/>
<path d="M82.4111 3106.18L82.8809 3101.57H87.6162V3102.66H83.8774L83.5981 3105.18C84.0509 3104.91 84.5651 3104.78 85.1406 3104.78C85.9827 3104.78 86.6514 3105.06 87.1465 3105.62C87.6416 3106.17 87.8892 3106.92 87.8892 3107.87C87.8892 3108.82 87.631 3109.57 87.1147 3110.12C86.6027 3110.67 85.8854 3110.94 84.9629 3110.94C84.1462 3110.94 83.4797 3110.72 82.9634 3110.26C82.4471 3109.81 82.153 3109.18 82.0811 3108.38H83.1919C83.2638 3108.91 83.4521 3109.31 83.7568 3109.58C84.0615 3109.85 84.4635 3109.98 84.9629 3109.98C85.5088 3109.98 85.9362 3109.8 86.2451 3109.42C86.5583 3109.05 86.7148 3108.54 86.7148 3107.88C86.7148 3107.26 86.5456 3106.77 86.207 3106.4C85.8727 3106.02 85.4263 3105.83 84.8677 3105.83C84.3556 3105.83 83.9536 3105.94 83.6616 3106.17L83.3506 3106.42L82.4111 3106.18Z" fill="#333333"/>
<rect x="461" y="3414" width="5" height="5" fill="white"/>
<rect x="461" y="3978" width="5" height="5" fill="white"/>
<rect y="3414" width="5" height="5" fill="white"/>
<rect y="3978" width="5" height="5" fill="white"/>
<ellipse cx="391.3" cy="3776.08" rx="17.1533" ry="17.0777" fill="#EDD257"/>
<ellipse cx="320.473" cy="3689.43" rx="4.98" ry="4.95804" fill="#EDD257"/>
<path fill-rule="evenodd" clip-rule="evenodd" d="M319.92 3689.98L382 3773L381.199 3773.6L319.119 3690.58L319.92 3689.98Z" fill="#EDD257"/>
<path d="M393.026 3771.57V3772.56H392.811C391.896 3772.58 391.169 3772.85 390.627 3773.38C390.085 3773.9 389.772 3774.64 389.688 3775.59C390.174 3775.03 390.839 3774.75 391.681 3774.75C392.485 3774.75 393.126 3775.04 393.604 3775.6C394.086 3776.17 394.328 3776.9 394.328 3777.8C394.328 3778.75 394.067 3779.51 393.547 3780.08C393.031 3780.66 392.337 3780.94 391.465 3780.94C390.58 3780.94 389.863 3780.6 389.313 3779.93C388.763 3779.24 388.488 3778.37 388.488 3777.3V3776.85C388.488 3775.15 388.85 3773.85 389.573 3772.95C390.301 3772.05 391.382 3771.59 392.817 3771.57H393.026ZM391.484 3775.73C391.082 3775.73 390.712 3775.85 390.373 3776.09C390.035 3776.33 389.8 3776.64 389.668 3777V3777.43C389.668 3778.19 389.84 3778.81 390.183 3779.27C390.525 3779.74 390.953 3779.97 391.465 3779.97C391.994 3779.97 392.409 3779.78 392.709 3779.39C393.014 3779 393.166 3778.49 393.166 3777.86C393.166 3777.22 393.012 3776.71 392.703 3776.32C392.398 3775.93 391.992 3775.73 391.484 3775.73Z" fill="#333333"/>
<rect x="461" y="3983" width="5" height="5" fill="white"/>
<rect x="461" y="4547" width="5" height="5" fill="white"/>
<rect y="3983" width="5" height="5" fill="white"/>
<rect y="4547" width="5" height="5" fill="white"/>
<ellipse cx="85.1533" cy="4176.08" rx="17.1533" ry="17.0777" fill="#EDD257"/>
<ellipse cx="264.033" cy="4107.48" rx="4.98" ry="4.95804" fill="#EDD257"/>
<path fill-rule="evenodd" clip-rule="evenodd" d="M263.48 4108.03L94.9998 4174L94.6353 4173.07L263.115 4107.1L263.48 4108.03Z" fill="#EDD257"/>
<path d="M88.2383 4172.23L84.4106 4180.81H83.1792L86.9941 4172.54H81.9922V4171.57H88.2383V4172.23Z" fill="#333333"/>
<rect x="461" y="5121" width="5" height="5" fill="white"/>
<rect x="461" y="5685" width="5" height="5" fill="white"/>
<rect y="5121" width="5" height="5" fill="white"/>
<rect y="5685" width="5" height="5" fill="white"/>
<ellipse cx="84.7534" cy="5450.08" rx="17.1533" ry="17.0777" fill="#EDD257"/>
<ellipse cx="179.927" cy="5398.63" rx="4.98" ry="4.95804" fill="#EDD257"/>
<path fill-rule="evenodd" clip-rule="evenodd" d="M178 5399L95.0001 5446L94.5073 5445.13L177.507 5398.13L178 5399Z" fill="#EDD257"/>
<path d="M86.3721 5450.75C86.1266 5451.04 85.8325 5451.28 85.4897 5451.46C85.1512 5451.63 84.7788 5451.72 84.3726 5451.72C83.8394 5451.72 83.3739 5451.59 82.9761 5451.33C82.5825 5451.07 82.2778 5450.7 82.062 5450.23C81.8462 5449.75 81.7383 5449.22 81.7383 5448.64C81.7383 5448.03 81.8547 5447.47 82.0874 5446.98C82.3244 5446.48 82.6587 5446.1 83.0903 5445.84C83.522 5445.58 84.0256 5445.45 84.6011 5445.45C85.5151 5445.45 86.2345 5445.79 86.7593 5446.47C87.2882 5447.15 87.5527 5448.09 87.5527 5449.27V5449.61C87.5527 5451.41 87.1973 5452.72 86.4863 5453.55C85.7754 5454.38 84.7026 5454.8 83.2681 5454.82H83.0396V5453.83H83.2871C84.2562 5453.81 85.001 5453.56 85.5215 5453.08C86.042 5452.58 86.3255 5451.81 86.3721 5450.75ZM84.563 5450.75C84.9565 5450.75 85.3184 5450.63 85.6484 5450.39C85.9827 5450.15 86.2261 5449.85 86.3784 5449.5V5449.03C86.3784 5448.26 86.2113 5447.63 85.877 5447.15C85.5426 5446.66 85.1195 5446.42 84.6074 5446.42C84.0911 5446.42 83.6764 5446.62 83.3633 5447.02C83.0501 5447.41 82.8936 5447.93 82.8936 5448.58C82.8936 5449.21 83.0438 5449.73 83.3442 5450.14C83.6489 5450.55 84.0552 5450.75 84.563 5450.75Z" fill="#333333"/>
<rect x="461" y="5690" width="5" height="5" fill="white"/>
<rect x="461" y="6254" width="5" height="5" fill="white"/>
<rect y="5690" width="5" height="5" fill="white"/>
<rect y="6254" width="5" height="5" fill="white"/>
<ellipse cx="84.7534" cy="6208.92" rx="17.1533" ry="17.0777" fill="#EDD257"/>
<path d="M188.227 6136.2C188.227 6138.94 185.997 6141.16 183.247 6141.16C180.496 6141.16 178.267 6138.94 178.267 6136.2C178.267 6133.47 180.496 6131.25 183.247 6131.25C185.997 6131.25 188.227 6133.47 188.227 6136.2Z" fill="#EDD257"/>
<path d="M141.747 6159.34C141.747 6162.08 139.517 6164.3 136.767 6164.3C134.016 6164.3 131.787 6162.08 131.787 6159.34C131.787 6156.6 134.016 6154.38 136.767 6154.38C139.517 6154.38 141.747 6156.6 141.747 6159.34Z" fill="#EDD257"/>
<path fill-rule="evenodd" clip-rule="evenodd" d="M136.213 6158.79L91.9468 6201.76L91.2471 6201.05L135.514 6158.08L136.213 6158.79Z" fill="#EDD257"/>
<path fill-rule="evenodd" clip-rule="evenodd" d="M184.906 6137.86L95.2664 6203.96L94.6694 6203.16L184.309 6137.05L184.906 6137.86Z" fill="#EDD257"/>
<path d="M82.0811 6212.66H80.9004V6204.83L78.5327 6205.7V6204.63L81.897 6203.37H82.0811V6212.66Z" fill="#333333"/>
<path d="M91.3169 6208.72C91.3169 6210.09 91.082 6211.11 90.6123 6211.78C90.1426 6212.45 89.4084 6212.79 88.4097 6212.79C87.4237 6212.79 86.6937 6212.46 86.2197 6211.81C85.7458 6211.15 85.5003 6210.17 85.4834 6208.88V6207.31C85.4834 6205.95 85.7183 6204.94 86.188 6204.28C86.6577 6203.62 87.394 6203.29 88.397 6203.29C89.3914 6203.29 90.1235 6203.61 90.5933 6204.25C91.063 6204.88 91.3042 6205.86 91.3169 6207.19V6208.72ZM90.1426 6207.11C90.1426 6206.12 90.0029 6205.39 89.7236 6204.94C89.4443 6204.48 89.0021 6204.25 88.397 6204.25C87.7961 6204.25 87.3581 6204.48 87.083 6204.93C86.8079 6205.39 86.6662 6206.08 86.6577 6207.02V6208.9C86.6577 6209.9 86.8016 6210.64 87.0894 6211.12C87.3813 6211.59 87.8215 6211.83 88.4097 6211.83C88.9894 6211.83 89.4189 6211.6 89.6982 6211.15C89.9818 6210.71 90.1299 6210 90.1426 6209.03V6207.11Z" fill="#333333"/>
<rect x="461" y="6259" width="5" height="5" fill="white"/>
<rect x="461" y="6823" width="5" height="5" fill="white"/>
<rect y="6259" width="5" height="5" fill="white"/>
<rect y="6823" width="5" height="5" fill="white"/>
<ellipse cx="303.874" cy="6777.92" rx="17.1533" ry="17.0777" fill="#EDD257"/>
<path d="M194.867 6732.75C194.867 6735.49 192.637 6737.71 189.887 6737.71C187.136 6737.71 184.907 6735.49 184.907 6732.75C184.907 6730.01 187.136 6727.79 189.887 6727.79C192.637 6727.79 194.867 6730.01 194.867 6732.75Z" fill="#EDD257"/>
<path fill-rule="evenodd" clip-rule="evenodd" d="M189.333 6733.3L303.32 6778.47L302.949 6779.4L188.962 6734.23L189.333 6733.3Z" fill="#EDD257"/>
<path d="M301.201 6781.66H300.021V6773.83L297.653 6774.7V6773.64L301.017 6772.37H301.201V6781.66Z" fill="#333333"/>
<path d="M308.501 6781.66H307.32V6773.83L304.953 6774.7V6773.64L308.317 6772.37H308.501V6781.66Z" fill="#333333"/>
<rect x="461" y="6828" width="5" height="5" fill="white"/>
<rect x="461" y="7392" width="5" height="5" fill="white"/>
<rect y="6828" width="5" height="5" fill="white"/>
<rect y="7392" width="5" height="5" fill="white"/>
<ellipse cx="84.7534" cy="7290.08" rx="17.1533" ry="17.0777" fill="#EDD257"/>
<path d="M143.96 7277.51C143.96 7280.25 141.73 7282.47 138.98 7282.47C136.23 7282.47 134 7280.25 134 7277.51C134 7274.77 136.23 7272.55 138.98 7272.55C141.73 7272.55 143.96 7274.77 143.96 7277.51Z" fill="#EDD257"/>
<path fill-rule="evenodd" clip-rule="evenodd" d="M95.0003 7288L138.427 7276.96L138.673 7277.93L95.2467 7288.97L95.0003 7288Z" fill="#EDD257"/>
<path d="M82.0811 7294.81H80.9004V7286.99L78.5327 7287.86V7286.79L81.897 7285.53H82.0811V7294.81Z" fill="#333333"/>
<path d="M91.5771 7294.81H85.5215V7293.97L88.7207 7290.42C89.1947 7289.88 89.5205 7289.44 89.6982 7289.11C89.8802 7288.77 89.9712 7288.42 89.9712 7288.06C89.9712 7287.58 89.8252 7287.18 89.5332 7286.87C89.2412 7286.56 88.8519 7286.41 88.3652 7286.41C87.7812 7286.41 87.3263 7286.58 87.0005 7286.91C86.6789 7287.24 86.5181 7287.7 86.5181 7288.3H85.3438C85.3438 7287.44 85.6167 7286.76 86.1626 7286.23C86.7127 7285.71 87.4469 7285.45 88.3652 7285.45C89.2243 7285.45 89.9035 7285.67 90.4028 7286.12C90.9022 7286.57 91.1519 7287.17 91.1519 7287.92C91.1519 7288.83 90.5721 7289.91 89.4126 7291.17L86.937 7293.86H91.5771V7294.81Z" fill="#333333"/>
<rect x="461" y="569" width="5" height="5" fill="white"/>
<rect x="461" y="1133" width="5" height="5" fill="white"/>
<rect y="569" width="5" height="5" fill="white"/>
<rect y="1133" width="5" height="5" fill="white"/>
<ellipse cx="391.153" cy="661.078" rx="17.1533" ry="17.0777" fill="#EDD257"/>
<ellipse cx="291.7" cy="675.854" rx="4.98" ry="4.95804" fill="#EDD257"/>
<path fill-rule="evenodd" clip-rule="evenodd" d="M291.147 676.405L380 662L380.16 662.987L291.307 677.392L291.147 676.405Z" fill="#EDD257"/>
<path d="M392.131 665.814H390.95V657.987L388.583 658.857V657.791L391.947 656.527H392.131V665.814Z" fill="#333333"/>
<rect x="461" width="5" height="5" fill="white"/>
<rect x="461" y="564" width="5" height="5" fill="white"/>
<rect width="5" height="5" fill="white"/>
<rect y="564" width="5" height="5" fill="white"/>
<ellipse cx="391.3" cy="211.078" rx="17.1533" ry="17.0777" fill="#E0E0E0"/>
<ellipse cx="391.153" cy="145.078" rx="17.1533" ry="17.0777" fill="#E0E0E0"/>
<ellipse cx="391.153" cy="92.0777" rx="17.1533" ry="17.0777" fill="#E0E0E0"/>
<ellipse cx="85.1533" cy="193.078" rx="17.1533" ry="17.0777" fill="#E0E0E0"/>
<ellipse cx="84.7534" cy="261.078" rx="17.1533" ry="17.0777" fill="#E0E0E0"/>
<ellipse cx="84.7534" cy="397.078" rx="17.1533" ry="17.0777" fill="#E0E0E0"/>
<ellipse cx="391.3" cy="287.078" rx="17.1533" ry="17.0777" fill="#E0E0E0"/>
<ellipse cx="391.3" cy="362.078" rx="17.1533" ry="17.0777" fill="#E0E0E0"/>
<ellipse cx="84.7534" cy="518.922" rx="17.1533" ry="17.0777" fill="#E0E0E0"/>
<ellipse cx="84.7534" cy="462.078" rx="17.1533" ry="17.0777" fill="#E0E0E0"/>
<ellipse cx="303.874" cy="518.922" rx="17.1533" ry="17.0777" fill="#E0E0E0"/>
<ellipse cx="391.3" cy="443.078" rx="17.1533" ry="17.0777" fill="#E0E0E0"/>
<ellipse cx="84.7534" cy="329.078" rx="17.1533" ry="17.0777" fill="#E0E0E0"/>
<path d="M194.867 473.749C194.867 476.487 192.637 478.707 189.887 478.707C187.136 478.707 184.907 476.487 184.907 473.749C184.907 471.011 187.136 468.791 189.887 468.791C192.637 468.791 194.867 471.011 194.867 473.749Z" fill="#E0E0E0"/>
<path d="M188.227 446.204C188.227 448.942 185.997 451.162 183.247 451.162C180.496 451.162 178.267 448.942 178.267 446.204C178.267 443.466 180.496 441.246 183.247 441.246C185.997 441.246 188.227 443.466 188.227 446.204Z" fill="#E0E0E0"/>
<path d="M141.747 469.342C141.747 472.08 139.517 474.3 136.767 474.3C134.016 474.3 131.787 472.08 131.787 469.342C131.787 466.604 134.016 464.384 136.767 464.384C139.517 464.384 141.747 466.604 141.747 469.342Z" fill="#E0E0E0"/>
<path d="M143.96 449.51C143.96 452.248 141.73 454.468 138.98 454.468C136.23 454.468 134 452.248 134 449.51C134 446.772 136.23 444.552 138.98 444.552C141.73 444.552 143.96 446.772 143.96 449.51Z" fill="#E0E0E0"/>
<ellipse cx="154.473" cy="414.253" rx="4.98" ry="4.95804" fill="#E0E0E0"/>
<ellipse cx="154.473" cy="372.385" rx="4.98" ry="4.95804" fill="#E0E0E0"/>
<ellipse cx="154.473" cy="305.176" rx="4.98" ry="4.95804" fill="#E0E0E0"/>
<ellipse cx="179.927" cy="277.631" rx="4.98" ry="4.95804" fill="#E0E0E0"/>
<ellipse cx="206.487" cy="229.152" rx="4.98" ry="4.95804" fill="#E0E0E0"/>
<ellipse cx="276.207" cy="139.908" rx="4.98" ry="4.95804" fill="#E0E0E0"/>
<ellipse cx="291.7" cy="106.855" rx="4.98" ry="4.95804" fill="#E0E0E0"/>
<ellipse cx="322.98" cy="118.958" rx="4.98" ry="4.95804" fill="#E0E0E0"/>
<ellipse cx="275.1" cy="246.781" rx="4.98" ry="4.95804" fill="#E0E0E0"/>
<ellipse cx="275.1" cy="200.506" rx="4.98" ry="4.95804" fill="#E0E0E0"/>
<ellipse cx="302.767" cy="299.667" rx="4.98" ry="4.95804" fill="#E0E0E0"/>
<ellipse cx="302.767" cy="353.654" rx="4.98" ry="4.95804" fill="#E0E0E0"/>
<path d="M307.747 419.762C307.747 422.5 305.517 424.72 302.767 424.72C300.016 424.72 297.787 422.5 297.787 419.762C297.787 417.023 300.016 414.804 302.767 414.804C305.517 414.804 307.747 417.023 307.747 419.762Z" fill="#E0E0E0"/>
<ellipse cx="320.473" cy="275.428" rx="4.98" ry="4.95804" fill="#E0E0E0"/>
<ellipse cx="264.033" cy="124.483" rx="4.98" ry="4.95804" fill="#E0E0E0"/>
<path fill-rule="evenodd" clip-rule="evenodd" d="M189.333 474.301L303.32 519.474L302.949 520.402L188.962 475.229L189.333 474.301Z" fill="#E0E0E0"/>
<path fill-rule="evenodd" clip-rule="evenodd" d="M303.32 420.312L380 448L379.66 448.94L302.98 421.253L303.32 420.312Z" fill="#E0E0E0"/>
<path fill-rule="evenodd" clip-rule="evenodd" d="M303.32 354.206L380 434L379.279 434.693L302.599 354.899L303.32 354.206Z" fill="#E0E0E0"/>
<path fill-rule="evenodd" clip-rule="evenodd" d="M303.32 300.218L386 429L385.159 429.54L302.479 300.758L303.32 300.218Z" fill="#E0E0E0"/>
<path fill-rule="evenodd" clip-rule="evenodd" d="M275.653 245.128L303.32 300.217L302.425 300.663L274.758 245.574L275.653 245.128Z" fill="#E0E0E0"/>
<path fill-rule="evenodd" clip-rule="evenodd" d="M319.92 275.978L382 359L381.199 359.599L319.119 276.577L319.92 275.978Z" fill="#E0E0E0"/>
<path fill-rule="evenodd" clip-rule="evenodd" d="M275.653 199.955L380 283L379.377 283.782L275.031 200.738L275.653 199.955Z" fill="#E0E0E0"/>
<path fill-rule="evenodd" clip-rule="evenodd" d="M380 209L275.653 140.459L276.202 139.623L380.549 208.164L380 209Z" fill="#E0E0E0"/>
<path fill-rule="evenodd" clip-rule="evenodd" d="M326 120L380 140L379.653 140.938L325.653 120.937L326 120Z" fill="#E0E0E0"/>
<path fill-rule="evenodd" clip-rule="evenodd" d="M291.147 107.405L380 93.0002L380.16 93.9873L291.307 108.392L291.147 107.405Z" fill="#E0E0E0"/>
<path fill-rule="evenodd" clip-rule="evenodd" d="M263.48 125.033L94.9998 191L94.6353 190.068L263.115 124.102L263.48 125.033Z" fill="#E0E0E0"/>
<path fill-rule="evenodd" clip-rule="evenodd" d="M205.933 229.704L95.0001 258L94.7529 257.031L205.686 228.735L205.933 229.704Z" fill="#E0E0E0"/>
<path fill-rule="evenodd" clip-rule="evenodd" d="M178 278L95.0001 325L94.5073 324.13L177.507 277.13L178 278Z" fill="#E0E0E0"/>
<path fill-rule="evenodd" clip-rule="evenodd" d="M156.133 372.936L91.9998 389L91.7568 388.03L155.89 371.966L156.133 372.936Z" fill="#E0E0E0"/>
<path fill-rule="evenodd" clip-rule="evenodd" d="M153.92 305.726L84.9999 386L84.2412 385.349L153.161 305.075L153.92 305.726Z" fill="#E0E0E0"/>
<path fill-rule="evenodd" clip-rule="evenodd" d="M153.92 414.803L99.9998 398L100.297 397.045L154.217 413.848L153.92 414.803Z" fill="#E0E0E0"/>
<path fill-rule="evenodd" clip-rule="evenodd" d="M136.213 468.791L91.9468 511.76L91.2471 511.046L135.514 468.076L136.213 468.791Z" fill="#E0E0E0"/>
<path fill-rule="evenodd" clip-rule="evenodd" d="M184.906 447.857L95.2664 513.964L94.6694 513.162L184.309 447.055L184.906 447.857Z" fill="#E0E0E0"/>
<path fill-rule="evenodd" clip-rule="evenodd" d="M95.0003 460L138.427 448.959L138.673 449.928L95.2467 460.969L95.0003 460Z" fill="#E0E0E0"/>
<path d="M390.125 210.622H391.008C391.562 210.614 391.998 210.468 392.315 210.184C392.633 209.901 392.792 209.518 392.792 209.035C392.792 207.952 392.252 207.41 391.173 207.41C390.665 207.41 390.259 207.556 389.954 207.848C389.654 208.136 389.503 208.519 389.503 208.997H388.329C388.329 208.265 388.596 207.658 389.129 207.175C389.666 206.689 390.348 206.445 391.173 206.445C392.045 206.445 392.728 206.676 393.223 207.137C393.718 207.598 393.966 208.24 393.966 209.061C393.966 209.463 393.835 209.852 393.572 210.229C393.314 210.605 392.961 210.887 392.512 211.073C393.02 211.234 393.411 211.5 393.687 211.873C393.966 212.245 394.105 212.7 394.105 213.237C394.105 214.067 393.835 214.725 393.293 215.211C392.751 215.698 392.047 215.941 391.179 215.941C390.312 215.941 389.605 215.707 389.059 215.237C388.517 214.767 388.247 214.147 388.247 213.377H389.427C389.427 213.864 389.586 214.253 389.903 214.545C390.221 214.837 390.646 214.983 391.179 214.983C391.746 214.983 392.18 214.835 392.48 214.539C392.781 214.242 392.931 213.817 392.931 213.263C392.931 212.725 392.766 212.313 392.436 212.025C392.106 211.737 391.63 211.589 391.008 211.581H390.125V210.622Z" fill="#333333"/>
<path d="M394.327 149.814H388.271V148.97L391.471 145.416C391.945 144.878 392.271 144.442 392.448 144.108C392.63 143.769 392.721 143.42 392.721 143.061C392.721 142.578 392.575 142.182 392.283 141.874C391.991 141.565 391.602 141.41 391.115 141.41C390.531 141.41 390.076 141.577 389.75 141.912C389.429 142.242 389.268 142.703 389.268 143.295H388.094C388.094 142.445 388.367 141.757 388.913 141.232C389.463 140.708 390.197 140.445 391.115 140.445C391.974 140.445 392.653 140.672 393.153 141.125C393.652 141.573 393.902 142.172 393.902 142.921C393.902 143.831 393.322 144.914 392.163 146.171L389.687 148.856H394.327V149.814Z" fill="#333333"/>
<path d="M392.131 96.814H390.95V88.9873L388.583 89.8569V88.7905L391.947 87.5273H392.131V96.814Z" fill="#333333"/>
<path d="M88.2383 189.232L84.4106 197.814H83.1792L86.9941 189.537H81.9922V188.572H88.2383V189.232Z" fill="#333333"/>
<path d="M82.4111 261.181L82.8809 256.572H87.6162V257.658H83.8774L83.5981 260.178C84.0509 259.911 84.5651 259.778 85.1406 259.778C85.9827 259.778 86.6514 260.057 87.1465 260.616C87.6416 261.17 87.8892 261.921 87.8892 262.869C87.8892 263.821 87.631 264.572 87.1147 265.123C86.6027 265.668 85.8854 265.941 84.9629 265.941C84.1462 265.941 83.4797 265.715 82.9634 265.262C82.4471 264.809 82.153 264.183 82.0811 263.383H83.1919C83.2638 263.912 83.4521 264.312 83.7568 264.583C84.0615 264.85 84.4635 264.983 84.9629 264.983C85.5088 264.983 85.9362 264.797 86.2451 264.424C86.5583 264.052 86.7148 263.538 86.7148 262.882C86.7148 262.264 86.5456 261.769 86.207 261.396C85.8727 261.02 85.4263 260.832 84.8677 260.832C84.3556 260.832 83.9536 260.944 83.6616 261.168L83.3506 261.422L82.4111 261.181Z" fill="#333333"/>
<path d="M86.3721 329.752C86.1266 330.044 85.8325 330.279 85.4897 330.457C85.1512 330.634 84.7788 330.723 84.3726 330.723C83.8394 330.723 83.3739 330.592 82.9761 330.33C82.5825 330.067 82.2778 329.699 82.062 329.225C81.8462 328.747 81.7383 328.22 81.7383 327.645C81.7383 327.027 81.8547 326.47 82.0874 325.975C82.3244 325.48 82.6587 325.101 83.0903 324.839C83.522 324.576 84.0256 324.445 84.6011 324.445C85.5151 324.445 86.2345 324.788 86.7593 325.474C87.2882 326.155 87.5527 327.086 87.5527 328.267V328.609C87.5527 330.408 87.1973 331.722 86.4863 332.551C85.7754 333.376 84.7026 333.8 83.2681 333.821H83.0396V332.831H83.2871C84.2562 332.814 85.001 332.562 85.5215 332.075C86.042 331.584 86.3255 330.81 86.3721 329.752ZM84.563 329.752C84.9565 329.752 85.3184 329.631 85.6484 329.39C85.9827 329.149 86.2261 328.851 86.3784 328.495V328.025C86.3784 327.255 86.2113 326.629 85.877 326.146C85.5426 325.664 85.1195 325.423 84.6074 325.423C84.0911 325.423 83.6764 325.622 83.3633 326.02C83.0501 326.413 82.8936 326.934 82.8936 327.581C82.8936 328.212 83.0438 328.732 83.3442 329.143C83.6489 329.549 84.0552 329.752 84.563 329.752Z" fill="#333333"/>
<path d="M87.4766 394.984C87.4766 395.446 87.3538 395.856 87.1084 396.216C86.8672 396.576 86.5392 396.857 86.1245 397.06C86.6069 397.267 86.9878 397.57 87.2671 397.968C87.5506 398.366 87.6924 398.816 87.6924 399.32C87.6924 400.12 87.4215 400.757 86.8799 401.23C86.3424 401.704 85.6336 401.941 84.7534 401.941C83.8647 401.941 83.1517 401.704 82.6143 401.23C82.0811 400.752 81.8145 400.115 81.8145 399.32C81.8145 398.82 81.9499 398.37 82.2207 397.968C82.4958 397.566 82.8745 397.261 83.3569 397.054C82.9465 396.851 82.6227 396.569 82.3857 396.209C82.1488 395.85 82.0303 395.441 82.0303 394.984C82.0303 394.206 82.2799 393.588 82.7793 393.131C83.2786 392.674 83.9367 392.445 84.7534 392.445C85.5659 392.445 86.2218 392.674 86.7212 393.131C87.2248 393.588 87.4766 394.206 87.4766 394.984ZM86.5181 399.294C86.5181 398.778 86.353 398.357 86.0229 398.031C85.6971 397.705 85.2697 397.542 84.7407 397.542C84.2118 397.542 83.7865 397.703 83.4648 398.025C83.1475 398.347 82.9888 398.77 82.9888 399.294C82.9888 399.819 83.1432 400.232 83.4521 400.532C83.7653 400.833 84.1991 400.983 84.7534 400.983C85.3035 400.983 85.7352 400.833 86.0483 400.532C86.3615 400.228 86.5181 399.815 86.5181 399.294ZM84.7534 393.41C84.2922 393.41 83.9176 393.554 83.6299 393.842C83.3464 394.125 83.2046 394.513 83.2046 395.003C83.2046 395.473 83.3442 395.854 83.6235 396.146C83.9071 396.434 84.2837 396.578 84.7534 396.578C85.2231 396.578 85.5977 396.434 85.877 396.146C86.1605 395.854 86.3022 395.473 86.3022 395.003C86.3022 394.534 86.1562 394.151 85.8643 393.854C85.5723 393.558 85.202 393.41 84.7534 393.41Z" fill="#333333"/>
<path d="M393.375 288.71H394.658V289.669H393.375V291.814H392.195V289.669H387.986V288.977L392.125 282.572H393.375V288.71ZM389.319 288.71H392.195V284.178L392.055 284.432L389.319 288.71Z" fill="#333333"/>
<path d="M393.026 357.566V358.563H392.811C391.896 358.58 391.169 358.851 390.627 359.375C390.085 359.9 389.772 360.639 389.688 361.591C390.174 361.032 390.839 360.753 391.681 360.753C392.485 360.753 393.126 361.036 393.604 361.604C394.086 362.171 394.328 362.903 394.328 363.8C394.328 364.752 394.067 365.514 393.547 366.085C393.031 366.656 392.337 366.942 391.465 366.942C390.58 366.942 389.863 366.603 389.313 365.926C388.763 365.245 388.488 364.369 388.488 363.298V362.848C388.488 361.146 388.85 359.847 389.573 358.95C390.301 358.049 391.382 357.588 392.817 357.566H393.026ZM391.484 361.73C391.082 361.73 390.712 361.851 390.373 362.092C390.035 362.333 389.8 362.636 389.668 363V363.432C389.668 364.193 389.84 364.807 390.183 365.272C390.525 365.738 390.953 365.971 391.465 365.971C391.994 365.971 392.409 365.776 392.709 365.387C393.014 364.997 393.166 364.487 393.166 363.857C393.166 363.222 393.012 362.71 392.703 362.321C392.398 361.927 391.992 361.73 391.484 361.73Z" fill="#333333"/>
<path d="M82.0811 522.659H80.9004V514.833L78.5327 515.702V514.636L81.897 513.373H82.0811V522.659Z" fill="#333333"/>
<path d="M91.3169 518.717C91.3169 520.093 91.082 521.115 90.6123 521.783C90.1426 522.452 89.4084 522.786 88.4097 522.786C87.4237 522.786 86.6937 522.46 86.2197 521.809C85.7458 521.153 85.5003 520.175 85.4834 518.876V517.308C85.4834 515.95 85.7183 514.94 86.188 514.28C86.6577 513.62 87.394 513.29 88.397 513.29C89.3914 513.29 90.1235 513.61 90.5933 514.249C91.063 514.883 91.3042 515.865 91.3169 517.194V518.717ZM90.1426 517.111C90.1426 516.117 90.0029 515.393 89.7236 514.94C89.4443 514.483 89.0021 514.255 88.397 514.255C87.7961 514.255 87.3581 514.481 87.083 514.934C86.8079 515.387 86.6662 516.083 86.6577 517.022V518.901C86.6577 519.9 86.8016 520.639 87.0894 521.117C87.3813 521.591 87.8215 521.828 88.4097 521.828C88.9894 521.828 89.4189 521.603 89.6982 521.155C89.9818 520.706 90.1299 520 90.1426 519.035V517.111Z" fill="#333333"/>
<path d="M82.0811 466.814H80.9004V458.988L78.5327 459.857V458.791L81.897 457.528H82.0811V466.814Z" fill="#333333"/>
<path d="M91.5771 466.814H85.5215V465.97L88.7207 462.416C89.1947 461.878 89.5205 461.442 89.6982 461.108C89.8802 460.769 89.9712 460.42 89.9712 460.061C89.9712 459.578 89.8252 459.182 89.5332 458.874C89.2412 458.565 88.8519 458.41 88.3652 458.41C87.7812 458.41 87.3263 458.577 87.0005 458.912C86.6789 459.242 86.5181 459.703 86.5181 460.295H85.3438C85.3438 459.445 85.6167 458.757 86.1626 458.232C86.7127 457.708 87.4469 457.445 88.3652 457.445C89.2243 457.445 89.9035 457.672 90.4028 458.125C90.9022 458.573 91.1519 459.172 91.1519 459.921C91.1519 460.831 90.5721 461.914 89.4126 463.171L86.937 465.856H91.5771V466.814Z" fill="#333333"/>
<path d="M394.023 440.984C394.023 441.446 393.9 441.856 393.655 442.216C393.414 442.576 393.086 442.857 392.671 443.06C393.153 443.267 393.534 443.57 393.813 443.968C394.097 444.366 394.239 444.816 394.239 445.32C394.239 446.12 393.968 446.757 393.426 447.23C392.889 447.704 392.18 447.941 391.3 447.941C390.411 447.941 389.698 447.704 389.161 447.23C388.627 446.752 388.361 446.115 388.361 445.32C388.361 444.82 388.496 444.37 388.767 443.968C389.042 443.566 389.421 443.261 389.903 443.054C389.493 442.851 389.169 442.569 388.932 442.209C388.695 441.85 388.577 441.441 388.577 440.984C388.577 440.206 388.826 439.588 389.326 439.131C389.825 438.674 390.483 438.445 391.3 438.445C392.112 438.445 392.768 438.674 393.268 439.131C393.771 439.588 394.023 440.206 394.023 440.984ZM393.064 445.294C393.064 444.778 392.899 444.357 392.569 444.031C392.243 443.705 391.816 443.542 391.287 443.542C390.758 443.542 390.333 443.703 390.011 444.025C389.694 444.347 389.535 444.77 389.535 445.294C389.535 445.819 389.69 446.232 389.999 446.532C390.312 446.833 390.745 446.983 391.3 446.983C391.85 446.983 392.282 446.833 392.595 446.532C392.908 446.228 393.064 445.815 393.064 445.294ZM391.3 439.41C390.839 439.41 390.464 439.554 390.176 439.842C389.893 440.125 389.751 440.513 389.751 441.003C389.751 441.473 389.891 441.854 390.17 442.146C390.453 442.434 390.83 442.578 391.3 442.578C391.77 442.578 392.144 442.434 392.423 442.146C392.707 441.854 392.849 441.473 392.849 441.003C392.849 440.534 392.703 440.151 392.411 439.854C392.119 439.558 391.748 439.41 391.3 439.41Z" fill="#333333"/>
<path d="M301.201 522.66H300.021V514.833L297.653 515.703V514.636L301.017 513.373H301.201V522.66Z" fill="#333333"/>
<path d="M308.501 522.66H307.32V514.833L304.953 515.703V514.636L308.317 513.373H308.501V522.66Z" fill="#333333"/>
<rect x="461" y="4552" width="5" height="5" fill="white"/>
<rect x="461" y="5116" width="5" height="5" fill="white"/>
<rect y="4552" width="5" height="5" fill="white"/>
<rect y="5116" width="5" height="5" fill="white"/>
<ellipse cx="84.7534" cy="4949.08" rx="17.1533" ry="17.0777" fill="#EDD257"/>
<ellipse cx="391.3" cy="4995.08" rx="17.1533" ry="17.0777" fill="#EDD257"/>
<ellipse cx="154.473" cy="4966.25" rx="4.98" ry="4.95804" fill="#EDD257"/>
<ellipse cx="154.473" cy="4924.38" rx="4.98" ry="4.95804" fill="#EDD257"/>
<ellipse cx="154.473" cy="4857.18" rx="4.98" ry="4.95804" fill="#EDD257"/>
<ellipse cx="275.1" cy="4798.78" rx="4.98" ry="4.95804" fill="#EDD257"/>
<ellipse cx="302.767" cy="4851.67" rx="4.98" ry="4.95804" fill="#EDD257"/>
<ellipse cx="302.767" cy="4905.65" rx="4.98" ry="4.95804" fill="#EDD257"/>
<path d="M307.747 4971.76C307.747 4974.5 305.517 4976.72 302.767 4976.72C300.016 4976.72 297.787 4974.5 297.787 4971.76C297.787 4969.02 300.016 4966.8 302.767 4966.8C305.517 4966.8 307.747 4969.02 307.747 4971.76Z" fill="#EDD257"/>
<path fill-rule="evenodd" clip-rule="evenodd" d="M303.32 4972.31L380 5000L379.66 5000.94L302.98 4973.25L303.32 4972.31Z" fill="#EDD257"/>
<path fill-rule="evenodd" clip-rule="evenodd" d="M303.32 4906.21L380 4986L379.279 4986.69L302.599 4906.9L303.32 4906.21Z" fill="#EDD257"/>
<path fill-rule="evenodd" clip-rule="evenodd" d="M303.32 4852.22L386 4981L385.159 4981.54L302.479 4852.76L303.32 4852.22Z" fill="#EDD257"/>
<path fill-rule="evenodd" clip-rule="evenodd" d="M275.653 4797.13L303.32 4852.22L302.425 4852.66L274.758 4797.57L275.653 4797.13Z" fill="#EDD257"/>
<path fill-rule="evenodd" clip-rule="evenodd" d="M156.133 4924.94L91.9998 4941L91.7568 4940.03L155.89 4923.97L156.133 4924.94Z" fill="#EDD257"/>
<path fill-rule="evenodd" clip-rule="evenodd" d="M153.92 4857.73L84.9999 4938L84.2412 4937.35L153.161 4857.07L153.92 4857.73Z" fill="#EDD257"/>
<path fill-rule="evenodd" clip-rule="evenodd" d="M153.92 4966.8L99.9998 4950L100.297 4949.04L154.217 4965.85L153.92 4966.8Z" fill="#EDD257"/>
<path d="M87.4766 4946.98C87.4766 4947.45 87.3538 4947.86 87.1084 4948.22C86.8672 4948.58 86.5392 4948.86 86.1245 4949.06C86.6069 4949.27 86.9878 4949.57 87.2671 4949.97C87.5506 4950.37 87.6924 4950.82 87.6924 4951.32C87.6924 4952.12 87.4215 4952.76 86.8799 4953.23C86.3424 4953.7 85.6336 4953.94 84.7534 4953.94C83.8647 4953.94 83.1517 4953.7 82.6143 4953.23C82.0811 4952.75 81.8145 4952.12 81.8145 4951.32C81.8145 4950.82 81.9499 4950.37 82.2207 4949.97C82.4958 4949.57 82.8745 4949.26 83.3569 4949.05C82.9465 4948.85 82.6227 4948.57 82.3857 4948.21C82.1488 4947.85 82.0303 4947.44 82.0303 4946.98C82.0303 4946.21 82.2799 4945.59 82.7793 4945.13C83.2786 4944.67 83.9367 4944.45 84.7534 4944.45C85.5659 4944.45 86.2218 4944.67 86.7212 4945.13C87.2248 4945.59 87.4766 4946.21 87.4766 4946.98ZM86.5181 4951.29C86.5181 4950.78 86.353 4950.36 86.0229 4950.03C85.6971 4949.71 85.2697 4949.54 84.7407 4949.54C84.2118 4949.54 83.7865 4949.7 83.4648 4950.02C83.1475 4950.35 82.9888 4950.77 82.9888 4951.29C82.9888 4951.82 83.1432 4952.23 83.4521 4952.53C83.7653 4952.83 84.1991 4952.98 84.7534 4952.98C85.3035 4952.98 85.7352 4952.83 86.0483 4952.53C86.3615 4952.23 86.5181 4951.81 86.5181 4951.29ZM84.7534 4945.41C84.2922 4945.41 83.9176 4945.55 83.6299 4945.84C83.3464 4946.13 83.2046 4946.51 83.2046 4947C83.2046 4947.47 83.3442 4947.85 83.6235 4948.15C83.9071 4948.43 84.2837 4948.58 84.7534 4948.58C85.2231 4948.58 85.5977 4948.43 85.877 4948.15C86.1605 4947.85 86.3022 4947.47 86.3022 4947C86.3022 4946.53 86.1562 4946.15 85.8643 4945.85C85.5723 4945.56 85.202 4945.41 84.7534 4945.41Z" fill="#333333"/>
<path d="M394.023 4992.98C394.023 4993.45 393.9 4993.86 393.655 4994.22C393.414 4994.58 393.086 4994.86 392.671 4995.06C393.153 4995.27 393.534 4995.57 393.813 4995.97C394.097 4996.37 394.239 4996.82 394.239 4997.32C394.239 4998.12 393.968 4998.76 393.426 4999.23C392.889 4999.7 392.18 4999.94 391.3 4999.94C390.411 4999.94 389.698 4999.7 389.161 4999.23C388.627 4998.75 388.361 4998.12 388.361 4997.32C388.361 4996.82 388.496 4996.37 388.767 4995.97C389.042 4995.57 389.421 4995.26 389.903 4995.05C389.493 4994.85 389.169 4994.57 388.932 4994.21C388.695 4993.85 388.577 4993.44 388.577 4992.98C388.577 4992.21 388.826 4991.59 389.326 4991.13C389.825 4990.67 390.483 4990.45 391.3 4990.45C392.112 4990.45 392.768 4990.67 393.268 4991.13C393.771 4991.59 394.023 4992.21 394.023 4992.98ZM393.064 4997.29C393.064 4996.78 392.899 4996.36 392.569 4996.03C392.243 4995.71 391.816 4995.54 391.287 4995.54C390.758 4995.54 390.333 4995.7 390.011 4996.02C389.694 4996.35 389.535 4996.77 389.535 4997.29C389.535 4997.82 389.69 4998.23 389.999 4998.53C390.312 4998.83 390.745 4998.98 391.3 4998.98C391.85 4998.98 392.282 4998.83 392.595 4998.53C392.908 4998.23 393.064 4997.81 393.064 4997.29ZM391.3 4991.41C390.839 4991.41 390.464 4991.55 390.176 4991.84C389.893 4992.13 389.751 4992.51 389.751 4993C389.751 4993.47 389.891 4993.85 390.17 4994.15C390.453 4994.43 390.83 4994.58 391.3 4994.58C391.77 4994.58 392.144 4994.43 392.423 4994.15C392.707 4993.85 392.849 4993.47 392.849 4993C392.849 4992.53 392.703 4992.15 392.411 4991.85C392.119 4991.56 391.748 4991.41 391.3 4991.41Z" fill="#333333"/>
</svg>
