<svg width="466" height="7966" viewBox="0 0 466 7966" fill="none" xmlns="http://www.w3.org/2000/svg">
<rect x="461" width="5" height="5" fill="white"/>
<rect width="5" height="5" fill="white"/>
<rect x="461" y="564" width="5" height="5" fill="white"/>
<rect y="564" width="5" height="5" fill="white"/>
<path fill-rule="evenodd" clip-rule="evenodd" d="M422.171 98.0894C422.171 107.555 414.498 115.228 405.032 115.228C396.045 115.228 388.673 108.309 387.952 99.5077L337.796 103.935C337.293 106.151 335.311 107.805 332.943 107.805C330.195 107.805 327.968 105.577 327.968 102.829C327.968 100.081 330.195 97.8535 332.943 97.8535C335.691 97.8535 337.919 100.081 337.919 102.829C337.919 102.844 337.919 102.86 337.919 102.875C337.919 102.89 337.918 102.905 337.918 102.92L387.899 98.5085C387.896 98.3692 387.894 98.2295 387.894 98.0894C387.894 88.6242 395.567 80.9512 405.032 80.9512C414.498 80.9512 422.171 88.6242 422.171 98.0894Z" fill="#E0E0E0"/>
<path fill-rule="evenodd" clip-rule="evenodd" d="M278.764 135.448C281.231 135.448 283.279 133.652 283.672 131.297L388.17 144.399C387.989 145.398 387.894 146.428 387.894 147.479C387.894 156.944 395.567 164.617 405.032 164.617C414.498 164.617 422.171 156.944 422.171 147.479C422.171 138.014 414.498 130.341 405.032 130.341C396.967 130.341 390.202 135.913 388.378 143.417L283.737 130.297C283.644 127.63 281.453 125.497 278.764 125.497C276.016 125.497 273.789 127.725 273.789 130.473C273.789 133.221 276.016 135.448 278.764 135.448Z" fill="#E0E0E0"/>
<path fill-rule="evenodd" clip-rule="evenodd" d="M422.252 195.708C422.252 205.173 414.579 212.846 405.114 212.846C396.172 212.846 388.829 205.998 388.045 197.26H284.599C283.946 199.247 282.076 200.683 279.87 200.683C277.122 200.683 274.895 198.455 274.895 195.707C274.895 192.959 277.122 190.731 279.87 190.731C282.618 190.731 284.846 192.959 284.846 195.707C284.846 195.894 284.835 196.078 284.815 196.26H387.984C387.979 196.076 387.976 195.892 387.976 195.708C387.976 186.242 395.649 178.569 405.114 178.569C414.579 178.569 422.252 186.242 422.252 195.708Z" fill="#E0E0E0"/>
<path fill-rule="evenodd" clip-rule="evenodd" d="M422.252 270.894C422.252 280.359 414.579 288.032 405.114 288.032C396.172 288.032 388.83 281.185 388.045 272.447H331.242C331.27 272.663 331.285 272.883 331.285 273.106C331.285 275.854 329.058 278.082 326.31 278.082C323.562 278.082 321.334 275.854 321.334 273.106C321.334 270.359 323.562 268.131 326.31 268.131C328.476 268.131 330.319 269.515 331.002 271.447H387.984C387.979 271.264 387.976 271.079 387.976 270.894C387.976 261.429 395.649 253.756 405.114 253.756C414.579 253.756 422.252 261.429 422.252 270.894Z" fill="#E0E0E0"/>
<path fill-rule="evenodd" clip-rule="evenodd" d="M238.407 203.447C238.407 206.195 236.179 208.423 233.431 208.423C231.156 208.423 229.237 206.896 228.644 204.811L77.2189 231.887C77.257 232.353 77.2764 232.825 77.2764 233.301C77.2764 242.766 69.6034 250.44 60.1382 250.44C50.673 250.44 43 242.766 43 233.301C43 223.836 50.673 216.163 60.1382 216.163C68.7852 216.163 75.9365 222.567 77.1082 230.891L228.47 203.826C228.46 203.701 228.455 203.575 228.455 203.447C228.455 200.699 230.683 198.472 233.431 198.472C236.179 198.472 238.407 200.699 238.407 203.447Z" fill="#E0E0E0"/>
<path fill-rule="evenodd" clip-rule="evenodd" d="M180.91 241.041C180.91 243.789 178.683 246.017 175.935 246.017C173.967 246.017 172.265 244.874 171.458 243.216L76.9084 279.508C77.1496 280.653 77.2764 281.84 77.2764 283.057C77.2764 292.522 69.6034 300.195 60.1382 300.195C50.673 300.195 43 292.522 43 283.057C43 273.592 50.673 265.919 60.1382 265.919C68.0354 265.919 74.685 271.26 76.6714 278.527L171.114 242.277C171.013 241.882 170.959 241.468 170.959 241.041C170.959 238.293 173.187 236.065 175.935 236.065C178.683 236.065 180.91 238.293 180.91 241.041Z" fill="#E0E0E0"/>
<path fill-rule="evenodd" clip-rule="evenodd" d="M179.805 285.269C179.805 288.017 177.577 290.244 174.829 290.244C173.292 290.244 171.917 289.547 171.004 288.451L77.2166 331.37C77.2562 331.846 77.2764 332.327 77.2764 332.813C77.2764 342.278 69.6034 349.951 60.1382 349.951C50.673 349.951 43 342.278 43 332.813C43 323.348 50.673 315.675 60.1382 315.675C68.7584 315.675 75.8921 322.039 77.0972 330.325L170.438 287.61C170.065 286.912 169.854 286.115 169.854 285.269C169.854 282.521 172.081 280.293 174.829 280.293C177.577 280.293 179.805 282.521 179.805 285.269Z" fill="#E0E0E0"/>
<path fill-rule="evenodd" clip-rule="evenodd" d="M153.268 316.228C153.268 318.976 151.041 321.203 148.293 321.203C147.323 321.203 146.419 320.926 145.654 320.447L74.2353 372.821C75.8362 375.131 76.8837 377.855 77.186 380.799L144.568 372.713C144.473 372.328 144.423 371.926 144.423 371.513C144.423 368.765 146.65 366.537 149.398 366.537C152.146 366.537 154.374 368.765 154.374 371.513C154.374 374.261 152.146 376.488 149.398 376.488C147.426 376.488 145.723 375.341 144.917 373.678L77.2593 381.797C77.2707 382.053 77.2764 382.311 77.2764 382.57C77.2764 385.356 76.6118 387.986 75.4325 390.311L145.244 410.789C146.135 409.442 147.663 408.554 149.398 408.554C152.146 408.554 154.374 410.781 154.374 413.529C154.374 416.277 152.146 418.505 149.398 418.505C146.65 418.505 144.423 416.277 144.423 413.529C144.423 412.881 144.547 412.261 144.772 411.693L74.9425 391.21C71.9693 396.293 66.4525 399.708 60.1382 399.708C50.673 399.708 43 392.035 43 382.57C43 373.105 50.673 365.432 60.1382 365.432C65.6225 365.432 70.5051 368.008 73.6421 372.016L144.836 319.807C143.9 318.902 143.317 317.633 143.317 316.228C143.317 313.48 145.545 311.252 148.293 311.252C151.041 311.252 153.268 313.48 153.268 316.228Z" fill="#E0E0E0"/>
<path fill-rule="evenodd" clip-rule="evenodd" d="M196.391 467.708C196.391 469.037 195.87 470.245 195.02 471.137L229.073 506.738C232.194 503.469 236.595 501.432 241.472 501.432C250.937 501.432 258.61 509.105 258.61 518.57C258.61 528.035 250.937 535.708 241.472 535.708C232.007 535.708 224.334 528.035 224.334 518.57C224.334 514.342 225.865 510.472 228.402 507.483L194.261 471.79C193.455 472.353 192.473 472.684 191.415 472.684C188.667 472.684 186.439 470.456 186.439 467.708C186.439 464.96 188.667 462.732 191.415 462.732C194.163 462.732 196.391 464.96 196.391 467.708Z" fill="#E0E0E0"/>
<path fill-rule="evenodd" clip-rule="evenodd" d="M76.7743 438.673C74.9242 446.14 68.1777 451.676 60.1382 451.676C50.673 451.676 43 444.003 43 434.538C43 425.072 50.673 417.399 60.1382 417.399C69.6034 417.399 77.2764 425.072 77.2764 434.538C77.2764 435.613 77.1775 436.665 76.9881 437.685L134.519 441.585C134.856 439.165 136.934 437.302 139.447 437.302C142.195 437.302 144.423 439.529 144.423 442.277C144.423 445.025 142.195 447.253 139.447 447.253C136.802 447.253 134.64 445.19 134.481 442.585L76.7743 438.673Z" fill="#E0E0E0"/>
<path fill-rule="evenodd" clip-rule="evenodd" d="M131.154 451.122C131.154 453.87 128.927 456.098 126.179 456.098C124.91 456.098 123.752 455.623 122.873 454.841L72.6819 506.892C75.5325 509.952 77.2764 514.057 77.2764 518.57C77.2764 528.035 69.6034 535.708 60.1382 535.708C50.673 535.708 43 528.035 43 518.57C43 509.104 50.673 501.431 60.1382 501.431C64.7312 501.431 68.9021 503.238 71.9792 506.18L122.195 454.104C121.572 453.273 121.203 452.241 121.203 451.122C121.203 448.374 123.431 446.146 126.179 446.146C128.927 446.146 131.154 448.374 131.154 451.122Z" fill="#E0E0E0"/>
<path fill-rule="evenodd" clip-rule="evenodd" d="M179.805 436.748C179.805 439.496 177.577 441.724 174.829 441.724C174.773 441.724 174.716 441.723 174.66 441.721L155.867 502.575C162.284 505.051 166.837 511.279 166.837 518.57C166.837 528.035 159.164 535.708 149.699 535.708C140.234 535.708 132.561 528.035 132.561 518.57C132.561 512.282 135.948 506.784 140.996 503.803L120.058 474.201C119.146 475.301 117.768 476.001 116.228 476.001C113.48 476.001 111.252 473.773 111.252 471.025C111.252 468.277 113.48 466.05 116.228 466.05C118.976 466.05 121.203 468.277 121.203 471.025C121.203 471.848 121.004 472.623 120.651 473.306L141.877 503.317C144.037 502.207 146.462 501.543 149.033 501.444L151.219 471.562C148.654 471.363 146.634 469.218 146.634 466.602C146.634 463.854 148.862 461.626 151.61 461.626C154.358 461.626 156.586 463.854 156.586 466.602C156.586 469.142 154.682 471.237 152.224 471.54L150.036 501.435C151.737 501.468 153.378 501.748 154.923 502.242L173.655 441.584C171.474 441.057 169.854 439.092 169.854 436.748C169.854 434 172.081 431.772 174.829 431.772C177.577 431.772 179.805 434 179.805 436.748Z" fill="#E0E0E0"/>
<path fill-rule="evenodd" clip-rule="evenodd" d="M279.317 236.618C279.317 238.496 278.276 240.131 276.74 240.978L290.564 284.936C291.029 284.793 291.522 284.716 292.033 284.716C294.781 284.716 297.009 286.943 297.009 289.691C297.009 290.253 296.916 290.792 296.744 291.295L388.605 342.658C390.213 334.862 397.117 329 405.39 329C414.855 329 422.528 336.673 422.528 346.138C422.528 355.603 414.855 363.276 405.39 363.276C398.303 363.276 392.221 358.975 389.612 352.841L296.826 427.668C296.945 428.095 297.009 428.544 297.009 429.009C297.009 431.757 294.781 433.984 292.033 433.984C289.285 433.984 287.057 431.757 287.057 429.009C287.057 426.261 289.285 424.033 292.033 424.033C293.946 424.033 295.606 425.113 296.439 426.695L389.231 351.863C388.756 350.522 388.443 349.104 388.316 347.634L295.883 347.634C295.657 350.173 293.524 352.163 290.927 352.163C288.179 352.163 285.951 349.935 285.951 347.188C285.951 344.44 288.179 342.212 290.927 342.212C293.488 342.212 295.597 344.146 295.872 346.634L388.259 346.634C388.254 346.469 388.252 346.304 388.252 346.138C388.252 345.311 388.311 344.498 388.424 343.703L296.327 292.207C295.462 293.679 293.863 294.667 292.033 294.667C289.285 294.667 287.057 292.439 287.057 289.691C287.057 287.811 288.1 286.174 289.64 285.328L275.816 241.372C275.35 241.516 274.855 241.594 274.341 241.594C271.593 241.594 269.366 239.366 269.366 236.618C269.366 233.87 271.593 231.643 274.341 231.643C277.089 231.643 279.317 233.87 279.317 236.618Z" fill="#E0E0E0"/>
<path fill-rule="evenodd" clip-rule="evenodd" d="M297.008 99.5127C297.008 102.261 294.781 104.488 292.033 104.488C289.61 104.488 287.592 102.757 287.148 100.463L78.6936 114.935C79.3228 116.719 79.6651 118.638 79.6651 120.637C79.6651 130.102 71.9921 137.775 62.5269 137.775C53.0617 137.775 45.3887 130.102 45.3887 120.637C45.3887 111.172 53.0617 103.499 62.5269 103.499C69.6229 103.499 75.7117 107.812 78.3152 113.959L287.057 99.4671C287.082 96.7402 289.3 94.5371 292.033 94.5371C294.781 94.5371 297.008 96.7648 297.008 99.5127Z" fill="#E0E0E0"/>
<path fill-rule="evenodd" clip-rule="evenodd" d="M262.962 109.478C262.812 109.004 262.731 108.499 262.731 107.976C262.731 105.228 264.959 103 267.707 103C270.455 103 272.683 105.228 272.683 107.976C272.683 110.724 270.455 112.951 267.707 112.951C265.838 112.951 264.21 111.921 263.36 110.398L77.4571 177.165C77.4972 177.643 77.5177 178.127 77.5177 178.616C77.5177 188.081 69.8446 195.754 60.3794 195.754C50.9143 195.754 43.2412 188.081 43.2412 178.616C43.2412 169.151 50.9143 161.478 60.3794 161.478C69.0052 161.478 76.1425 167.85 77.3407 176.144L262.962 109.478Z" fill="#E0E0E0"/>
<rect x="461" y="4552" width="5" height="5" fill="white"/>
<rect y="4552" width="5" height="5" fill="white"/>
<rect x="461" y="5116" width="5" height="5" fill="white"/>
<rect y="5116" width="5" height="5" fill="white"/>
<path fill-rule="evenodd" clip-rule="evenodd" d="M180.91 4793.04C180.91 4795.79 178.683 4798.02 175.935 4798.02C173.967 4798.02 172.265 4796.87 171.458 4795.22L76.9084 4831.51C77.1496 4832.65 77.2764 4833.84 77.2764 4835.06C77.2764 4844.52 69.6034 4852.2 60.1382 4852.2C50.673 4852.2 43 4844.52 43 4835.06C43 4825.59 50.673 4817.92 60.1382 4817.92C68.0354 4817.92 74.685 4823.26 76.6714 4830.53L171.114 4794.28C171.013 4793.88 170.959 4793.47 170.959 4793.04C170.959 4790.29 173.187 4788.07 175.935 4788.07C178.683 4788.07 180.91 4790.29 180.91 4793.04Z" fill="#EDD257"/>
<rect x="461" y="5121" width="5" height="5" fill="white"/>
<rect y="5121" width="5" height="5" fill="white"/>
<rect x="461" y="5685" width="5" height="5" fill="white"/>
<rect y="5685" width="5" height="5" fill="white"/>
<path fill-rule="evenodd" clip-rule="evenodd" d="M153.268 5437.23C153.268 5439.98 151.041 5442.2 148.293 5442.2C147.323 5442.2 146.419 5441.93 145.654 5441.45L74.2353 5493.82C75.8362 5496.13 76.8837 5498.85 77.186 5501.8L144.568 5493.71C144.473 5493.33 144.423 5492.93 144.423 5492.51C144.423 5489.76 146.65 5487.54 149.398 5487.54C152.146 5487.54 154.374 5489.76 154.374 5492.51C154.374 5495.26 152.146 5497.49 149.398 5497.49C147.426 5497.49 145.723 5496.34 144.917 5494.68L77.2593 5502.8C77.2707 5503.05 77.2764 5503.31 77.2764 5503.57C77.2764 5506.36 76.6118 5508.99 75.4325 5511.31L145.244 5531.79C146.135 5530.44 147.663 5529.55 149.398 5529.55C152.146 5529.55 154.374 5531.78 154.374 5534.53C154.374 5537.28 152.146 5539.5 149.398 5539.5C146.65 5539.5 144.423 5537.28 144.423 5534.53C144.423 5533.88 144.547 5533.26 144.772 5532.69L74.9425 5512.21C71.9693 5517.29 66.4525 5520.71 60.1382 5520.71C50.673 5520.71 43 5513.04 43 5503.57C43 5494.1 50.673 5486.43 60.1382 5486.43C65.6225 5486.43 70.5051 5489.01 73.6421 5493.02L144.836 5440.81C143.9 5439.9 143.317 5438.63 143.317 5437.23C143.317 5434.48 145.545 5432.25 148.293 5432.25C151.041 5432.25 153.268 5434.48 153.268 5437.23Z" fill="#EDD257"/>
<path fill-rule="evenodd" clip-rule="evenodd" d="M279.317 5357.62C279.317 5359.5 278.276 5361.13 276.74 5361.98L290.564 5405.94C291.029 5405.79 291.522 5405.72 292.033 5405.72C294.781 5405.72 297.009 5407.94 297.009 5410.69C297.009 5411.25 296.916 5411.79 296.744 5412.3L388.605 5463.66C390.213 5455.86 397.117 5450 405.39 5450C414.855 5450 422.528 5457.67 422.528 5467.14C422.528 5476.6 414.855 5484.28 405.39 5484.28C398.303 5484.28 392.221 5479.98 389.612 5473.84L296.826 5548.67C296.945 5549.09 297.009 5549.54 297.009 5550.01C297.009 5552.76 294.781 5554.98 292.033 5554.98C289.285 5554.98 287.057 5552.76 287.057 5550.01C287.057 5547.26 289.285 5545.03 292.033 5545.03C293.946 5545.03 295.606 5546.11 296.439 5547.7L389.231 5472.86C388.756 5471.52 388.443 5470.1 388.316 5468.63L295.883 5468.63C295.657 5471.17 293.524 5473.16 290.927 5473.16C288.179 5473.16 285.951 5470.94 285.951 5468.19C285.951 5465.44 288.179 5463.21 290.927 5463.21C293.488 5463.21 295.597 5465.15 295.872 5467.63L388.259 5467.63C388.254 5467.47 388.252 5467.3 388.252 5467.14C388.252 5466.31 388.311 5465.5 388.424 5464.7L296.327 5413.21C295.462 5414.68 293.863 5415.67 292.033 5415.67C289.285 5415.67 287.057 5413.44 287.057 5410.69C287.057 5408.81 288.1 5407.17 289.64 5406.33L275.816 5362.37C275.35 5362.52 274.855 5362.59 274.341 5362.59C271.593 5362.59 269.366 5360.37 269.366 5357.62C269.366 5354.87 271.593 5352.64 274.341 5352.64C277.089 5352.64 279.317 5354.87 279.317 5357.62Z" fill="#EDD257"/>
<rect x="461" y="5690" width="5" height="5" fill="white"/>
<rect y="5690" width="5" height="5" fill="white"/>
<rect x="461" y="6254" width="5" height="5" fill="white"/>
<rect y="6254" width="5" height="5" fill="white"/>
<path fill-rule="evenodd" clip-rule="evenodd" d="M179.805 5975.27C179.805 5978.02 177.577 5980.24 174.829 5980.24C173.292 5980.24 171.917 5979.55 171.004 5978.45L77.2166 6021.37C77.2562 6021.85 77.2764 6022.33 77.2764 6022.81C77.2764 6032.28 69.6034 6039.95 60.1382 6039.95C50.673 6039.95 43 6032.28 43 6022.81C43 6013.35 50.673 6005.67 60.1382 6005.67C68.7584 6005.67 75.8921 6012.04 77.0972 6020.33L170.438 5977.61C170.065 5976.91 169.854 5976.12 169.854 5975.27C169.854 5972.52 172.081 5970.29 174.829 5970.29C177.577 5970.29 179.805 5972.52 179.805 5975.27Z" fill="#EDD257"/>
<rect x="461" y="6259" width="5" height="5" fill="white"/>
<rect y="6259" width="5" height="5" fill="white"/>
<rect x="461" y="6823" width="5" height="5" fill="white"/>
<rect y="6823" width="5" height="5" fill="white"/>
<path fill-rule="evenodd" clip-rule="evenodd" d="M179.805 6695.75C179.805 6698.5 177.577 6700.72 174.829 6700.72C174.773 6700.72 174.716 6700.72 174.66 6700.72L155.867 6761.58C162.284 6764.05 166.837 6770.28 166.837 6777.57C166.837 6787.04 159.164 6794.71 149.699 6794.71C140.234 6794.71 132.561 6787.04 132.561 6777.57C132.561 6771.28 135.948 6765.79 140.996 6762.8L120.058 6733.2C119.146 6734.3 117.768 6735 116.228 6735C113.48 6735 111.252 6732.77 111.252 6730.03C111.252 6727.28 113.48 6725.05 116.228 6725.05C118.976 6725.05 121.203 6727.28 121.203 6730.03C121.203 6730.85 121.004 6731.62 120.651 6732.31L141.877 6762.32C144.037 6761.21 146.462 6760.54 149.033 6760.45L151.219 6730.56C148.654 6730.36 146.634 6728.22 146.634 6725.6C146.634 6722.85 148.862 6720.63 151.61 6720.63C154.358 6720.63 156.586 6722.85 156.586 6725.6C156.586 6728.14 154.682 6730.24 152.224 6730.54L150.036 6760.44C151.737 6760.47 153.378 6760.75 154.923 6761.24L173.655 6700.59C171.474 6700.06 169.854 6698.09 169.854 6695.75C169.854 6693 172.081 6690.77 174.829 6690.77C177.577 6690.77 179.805 6693 179.805 6695.75Z" fill="#EDD257"/>
<rect x="461" y="6828" width="5" height="5" fill="white"/>
<rect y="6828" width="5" height="5" fill="white"/>
<rect x="461" y="7392" width="5" height="5" fill="white"/>
<rect y="7392" width="5" height="5" fill="white"/>
<path fill-rule="evenodd" clip-rule="evenodd" d="M196.391 7295.71C196.391 7297.04 195.87 7298.24 195.02 7299.14L229.073 7334.74C232.194 7331.47 236.595 7329.43 241.472 7329.43C250.937 7329.43 258.61 7337.1 258.61 7346.57C258.61 7356.04 250.937 7363.71 241.472 7363.71C232.007 7363.71 224.334 7356.04 224.334 7346.57C224.334 7342.34 225.865 7338.47 228.402 7335.48L194.261 7299.79C193.455 7300.35 192.473 7300.68 191.415 7300.68C188.667 7300.68 186.439 7298.46 186.439 7295.71C186.439 7292.96 188.667 7290.73 191.415 7290.73C194.163 7290.73 196.391 7292.96 196.391 7295.71Z" fill="#EDD257"/>
<rect x="461" y="7397" width="5" height="5" fill="white"/>
<rect y="7397" width="5" height="5" fill="white"/>
<rect x="461" y="7961" width="5" height="5" fill="white"/>
<rect y="7961" width="5" height="5" fill="white"/>
<path fill-rule="evenodd" clip-rule="evenodd" d="M76.7743 7835.67C74.9242 7843.14 68.1777 7848.67 60.1382 7848.67C50.673 7848.67 43 7841 43 7831.54C43 7822.07 50.673 7814.4 60.1382 7814.4C69.6034 7814.4 77.2764 7822.07 77.2764 7831.54C77.2764 7832.61 77.1775 7833.66 76.9881 7834.68L134.519 7838.58C134.856 7836.16 136.934 7834.3 139.447 7834.3C142.195 7834.3 144.423 7836.53 144.423 7839.28C144.423 7842.02 142.195 7844.25 139.447 7844.25C136.802 7844.25 134.64 7842.19 134.481 7839.58L76.7743 7835.67Z" fill="#EDD257"/>
<rect x="461" y="3983" width="5" height="5" fill="white"/>
<rect y="3983" width="5" height="5" fill="white"/>
<rect x="461" y="4547" width="5" height="5" fill="white"/>
<rect y="4547" width="5" height="5" fill="white"/>
<path fill-rule="evenodd" clip-rule="evenodd" d="M131.154 4434.12C131.154 4436.87 128.927 4439.1 126.179 4439.1C124.91 4439.1 123.752 4438.62 122.873 4437.84L72.6819 4489.89C75.5325 4492.95 77.2764 4497.06 77.2764 4501.57C77.2764 4511.03 69.6034 4518.71 60.1382 4518.71C50.673 4518.71 43 4511.03 43 4501.57C43 4492.1 50.673 4484.43 60.1382 4484.43C64.7312 4484.43 68.9021 4486.24 71.9792 4489.18L122.195 4437.1C121.572 4436.27 121.203 4435.24 121.203 4434.12C121.203 4431.37 123.431 4429.15 126.179 4429.15C128.927 4429.15 131.154 4431.37 131.154 4434.12Z" fill="#EDD257"/>
<path fill-rule="evenodd" clip-rule="evenodd" d="M262.962 4092.48C262.812 4092 262.731 4091.5 262.731 4090.98C262.731 4088.23 264.959 4086 267.707 4086C270.455 4086 272.683 4088.23 272.683 4090.98C272.683 4093.72 270.455 4095.95 267.707 4095.95C265.838 4095.95 264.21 4094.92 263.36 4093.4L77.4571 4160.16C77.4972 4160.64 77.5177 4161.13 77.5177 4161.62C77.5177 4171.08 69.8446 4178.75 60.3794 4178.75C50.9143 4178.75 43.2412 4171.08 43.2412 4161.62C43.2412 4152.15 50.9143 4144.48 60.3794 4144.48C69.0052 4144.48 76.1425 4150.85 77.3407 4159.14L262.962 4092.48Z" fill="#EDD257"/>
<rect x="461" y="3414" width="5" height="5" fill="white"/>
<rect y="3414" width="5" height="5" fill="white"/>
<rect x="461" y="3978" width="5" height="5" fill="white"/>
<rect y="3978" width="5" height="5" fill="white"/>
<path fill-rule="evenodd" clip-rule="evenodd" d="M422.252 3684.89C422.252 3694.36 414.579 3702.03 405.114 3702.03C396.172 3702.03 388.83 3695.18 388.045 3686.45H331.242C331.27 3686.66 331.285 3686.88 331.285 3687.11C331.285 3689.85 329.058 3692.08 326.31 3692.08C323.562 3692.08 321.334 3689.85 321.334 3687.11C321.334 3684.36 323.562 3682.13 326.31 3682.13C328.476 3682.13 330.319 3683.52 331.002 3685.45H387.984C387.979 3685.26 387.976 3685.08 387.976 3684.89C387.976 3675.43 395.649 3667.76 405.114 3667.76C414.579 3667.76 422.252 3675.43 422.252 3684.89Z" fill="#EDD257"/>
<rect x="461" y="2845" width="5" height="5" fill="white"/>
<rect y="2845" width="5" height="5" fill="white"/>
<rect x="461" y="3409" width="5" height="5" fill="white"/>
<rect y="3409" width="5" height="5" fill="white"/>
<path fill-rule="evenodd" clip-rule="evenodd" d="M238.407 3048.45C238.407 3051.2 236.179 3053.42 233.431 3053.42C231.156 3053.42 229.237 3051.9 228.644 3049.81L77.2189 3076.89C77.257 3077.35 77.2764 3077.82 77.2764 3078.3C77.2764 3087.77 69.6034 3095.44 60.1382 3095.44C50.673 3095.44 43 3087.77 43 3078.3C43 3068.84 50.673 3061.16 60.1382 3061.16C68.7852 3061.16 75.9365 3067.57 77.1082 3075.89L228.47 3048.83C228.46 3048.7 228.455 3048.57 228.455 3048.45C228.455 3045.7 230.683 3043.47 233.431 3043.47C236.179 3043.47 238.407 3045.7 238.407 3048.45Z" fill="#EDD257"/>
<rect x="461" y="2276" width="5" height="5" fill="white"/>
<rect y="2276" width="5" height="5" fill="white"/>
<rect x="461" y="2840" width="5" height="5" fill="white"/>
<rect y="2840" width="5" height="5" fill="white"/>
<path fill-rule="evenodd" clip-rule="evenodd" d="M422.252 2471.71C422.252 2481.17 414.579 2488.85 405.114 2488.85C396.172 2488.85 388.829 2482 388.045 2473.26H284.599C283.946 2475.25 282.076 2476.68 279.87 2476.68C277.122 2476.68 274.895 2474.46 274.895 2471.71C274.895 2468.96 277.122 2466.73 279.87 2466.73C282.618 2466.73 284.846 2468.96 284.846 2471.71C284.846 2471.89 284.835 2472.08 284.815 2472.26H387.984C387.979 2472.08 387.976 2471.89 387.976 2471.71C387.976 2462.24 395.649 2454.57 405.114 2454.57C414.579 2454.57 422.252 2462.24 422.252 2471.71Z" fill="#EDD257"/>
<rect x="461" y="1707" width="5" height="5" fill="white"/>
<rect y="1707" width="5" height="5" fill="white"/>
<rect x="461" y="2271" width="5" height="5" fill="white"/>
<rect y="2271" width="5" height="5" fill="white"/>
<path fill-rule="evenodd" clip-rule="evenodd" d="M278.764 1842.45C281.231 1842.45 283.279 1840.65 283.672 1838.3L388.17 1851.4C387.989 1852.4 387.894 1853.43 387.894 1854.48C387.894 1863.94 395.567 1871.62 405.032 1871.62C414.498 1871.62 422.171 1863.94 422.171 1854.48C422.171 1845.01 414.498 1837.34 405.032 1837.34C396.967 1837.34 390.202 1842.91 388.378 1850.42L283.737 1837.3C283.644 1834.63 281.453 1832.5 278.764 1832.5C276.016 1832.5 273.789 1834.72 273.789 1837.47C273.789 1840.22 276.016 1842.45 278.764 1842.45Z" fill="#EDD257"/>
<rect x="461" y="1138" width="5" height="5" fill="white"/>
<rect y="1138" width="5" height="5" fill="white"/>
<rect x="461" y="1702" width="5" height="5" fill="white"/>
<rect y="1702" width="5" height="5" fill="white"/>
<path fill-rule="evenodd" clip-rule="evenodd" d="M422.171 1236.09C422.171 1245.55 414.498 1253.23 405.032 1253.23C396.045 1253.23 388.673 1246.31 387.952 1237.51L337.796 1241.94C337.293 1244.15 335.311 1245.8 332.943 1245.8C330.195 1245.8 327.968 1243.58 327.968 1240.83C327.968 1238.08 330.195 1235.85 332.943 1235.85C335.691 1235.85 337.919 1238.08 337.919 1240.83C337.919 1240.84 337.919 1240.86 337.919 1240.87C337.919 1240.89 337.918 1240.91 337.918 1240.92L387.899 1236.51C387.896 1236.37 387.894 1236.23 387.894 1236.09C387.894 1226.62 395.567 1218.95 405.032 1218.95C414.498 1218.95 422.171 1226.62 422.171 1236.09Z" fill="#EDD257"/>
<rect x="461" y="569" width="5" height="5" fill="white"/>
<rect y="569" width="5" height="5" fill="white"/>
<rect x="461" y="1133" width="5" height="5" fill="white"/>
<rect y="1133" width="5" height="5" fill="white"/>
<path fill-rule="evenodd" clip-rule="evenodd" d="M297.008 668.513C297.008 671.261 294.781 673.488 292.033 673.488C289.61 673.488 287.592 671.757 287.148 669.463L78.6936 683.935C79.3228 685.719 79.6651 687.638 79.6651 689.637C79.6651 699.102 71.9921 706.775 62.5269 706.775C53.0617 706.775 45.3887 699.102 45.3887 689.637C45.3887 680.172 53.0617 672.499 62.5269 672.499C69.6229 672.499 75.7117 676.812 78.3152 682.959L287.057 668.467C287.082 665.74 289.3 663.537 292.033 663.537C294.781 663.537 297.008 665.765 297.008 668.513Z" fill="#EDD257"/>
<path d="M403.879 147.177H404.761C405.316 147.168 405.751 147.022 406.069 146.739C406.386 146.455 406.545 146.072 406.545 145.59C406.545 144.507 406.005 143.965 404.926 143.965C404.418 143.965 404.012 144.111 403.708 144.403C403.407 144.691 403.257 145.074 403.257 145.552H402.083C402.083 144.82 402.349 144.212 402.882 143.73C403.42 143.243 404.101 143 404.926 143C405.798 143 406.481 143.231 406.977 143.692C407.472 144.153 407.719 144.794 407.719 145.615C407.719 146.017 407.588 146.407 407.326 146.783C407.068 147.16 406.714 147.441 406.266 147.627C406.773 147.788 407.165 148.055 407.44 148.427C407.719 148.8 407.859 149.255 407.859 149.792C407.859 150.621 407.588 151.279 407.046 151.766C406.505 152.253 405.8 152.496 404.933 152.496C404.065 152.496 403.358 152.261 402.812 151.792C402.271 151.322 402 150.702 402 149.932H403.181C403.181 150.418 403.339 150.808 403.657 151.1C403.974 151.392 404.399 151.538 404.933 151.538C405.5 151.538 405.933 151.389 406.234 151.093C406.534 150.797 406.685 150.372 406.685 149.817C406.685 149.28 406.52 148.867 406.189 148.58C405.859 148.292 405.383 148.144 404.761 148.135H403.879V147.177Z" fill="#333333"/>
<path d="M408.289 102.369H402.233V101.525L405.432 97.9702C405.906 97.4328 406.232 96.9969 406.41 96.6626C406.592 96.3241 406.683 95.9749 406.683 95.6152C406.683 95.1328 406.537 94.7371 406.245 94.4282C405.953 94.1193 405.563 93.9648 405.077 93.9648C404.493 93.9648 404.038 94.132 403.712 94.4663C403.39 94.7964 403.229 95.2576 403.229 95.8501H402.055C402.055 94.9995 402.328 94.3118 402.874 93.7871C403.424 93.2624 404.158 93 405.077 93C405.936 93 406.615 93.2264 407.114 93.6792C407.614 94.1278 407.863 94.7266 407.863 95.4756C407.863 96.3854 407.284 97.4688 406.124 98.7256L403.648 101.411H408.289V102.369Z" fill="#333333"/>
<path d="M62.5874 125.916H61.4067V118.089L59.0391 118.958V117.892L62.4033 116.629H62.5874V125.916Z" fill="#333333"/>
<path d="M63.5469 175.313L59.7192 183.896H58.4878L62.3027 175.618H57.3008V174.653H63.5469V175.313Z" fill="#333333"/>
<path d="M406.389 197.138H407.671V198.097H406.389V200.242H405.208V198.097H401V197.405L405.139 191H406.389V197.138ZM402.333 197.138H405.208V192.606L405.069 192.86L402.333 197.138Z" fill="#333333"/>
<path d="M406.922 265.926V266.922H406.707C405.792 266.939 405.065 267.21 404.523 267.735C403.981 268.26 403.668 268.998 403.583 269.95C404.07 269.392 404.735 269.112 405.577 269.112C406.381 269.112 407.022 269.396 407.5 269.963C407.982 270.53 408.224 271.262 408.224 272.159C408.224 273.111 407.963 273.873 407.443 274.444C406.927 275.016 406.233 275.301 405.361 275.301C404.476 275.301 403.759 274.963 403.209 274.286C402.659 273.604 402.384 272.728 402.384 271.658V271.207C402.384 269.506 402.746 268.207 403.469 267.31C404.197 266.408 405.278 265.947 406.713 265.926H406.922ZM405.38 270.09C404.978 270.09 404.608 270.21 404.269 270.452C403.931 270.693 403.696 270.995 403.564 271.359V271.791C403.564 272.553 403.736 273.166 404.079 273.632C404.421 274.097 404.849 274.33 405.361 274.33C405.89 274.33 406.305 274.135 406.605 273.746C406.91 273.357 407.062 272.847 407.062 272.216C407.062 271.582 406.908 271.069 406.599 270.68C406.294 270.287 405.888 270.09 405.38 270.09Z" fill="#333333"/>
<path d="M407.091 347.355C406.846 347.647 406.552 347.882 406.209 348.06C405.87 348.238 405.498 348.327 405.092 348.327C404.559 348.327 404.093 348.195 403.695 347.933C403.302 347.671 402.997 347.303 402.781 346.829C402.565 346.35 402.458 345.824 402.458 345.248C402.458 344.63 402.574 344.074 402.807 343.579C403.044 343.083 403.378 342.705 403.81 342.442C404.241 342.18 404.745 342.049 405.32 342.049C406.234 342.049 406.954 342.392 407.479 343.077C408.007 343.758 408.272 344.689 408.272 345.87V346.213C408.272 348.011 407.917 349.325 407.206 350.155C406.495 350.98 405.422 351.403 403.987 351.424H403.759V350.434H404.006C404.975 350.417 405.72 350.165 406.241 349.679C406.761 349.188 407.045 348.413 407.091 347.355ZM405.282 347.355C405.676 347.355 406.038 347.235 406.368 346.994C406.702 346.752 406.945 346.454 407.098 346.099V345.629C407.098 344.859 406.931 344.232 406.596 343.75C406.262 343.268 405.839 343.026 405.327 343.026C404.81 343.026 404.396 343.225 404.083 343.623C403.769 344.017 403.613 344.537 403.613 345.185C403.613 345.815 403.763 346.336 404.063 346.746C404.368 347.152 404.774 347.355 405.282 347.355Z" fill="#333333"/>
<path d="M56.8784 233.947L57.3481 229.339H62.0835V230.424H58.3447L58.0654 232.944C58.5182 232.678 59.0324 232.544 59.6079 232.544C60.45 232.544 61.1187 232.824 61.6138 233.382C62.1089 233.937 62.3564 234.688 62.3564 235.636C62.3564 236.588 62.0983 237.339 61.582 237.889C61.07 238.435 60.3527 238.708 59.4302 238.708C58.6134 238.708 57.9469 238.482 57.4307 238.029C56.9144 237.576 56.6203 236.95 56.5483 236.15H57.6592C57.7311 236.679 57.9194 237.079 58.2241 237.35C58.5288 237.616 58.9308 237.75 59.4302 237.75C59.9761 237.75 60.4035 237.563 60.7124 237.191C61.0256 236.819 61.1821 236.304 61.1821 235.648C61.1821 235.031 61.0129 234.535 60.6743 234.163C60.34 233.786 59.8936 233.598 59.335 233.598C58.8229 233.598 58.4209 233.71 58.1289 233.935L57.8179 234.188L56.8784 233.947Z" fill="#333333"/>
<path d="M62.6621 281.539C62.6621 282 62.5394 282.411 62.2939 282.771C62.0527 283.13 61.7248 283.412 61.3101 283.615C61.7925 283.822 62.1733 284.125 62.4526 284.522C62.7362 284.92 62.8779 285.371 62.8779 285.875C62.8779 286.674 62.6071 287.311 62.0654 287.785C61.528 288.259 60.8192 288.496 59.939 288.496C59.0503 288.496 58.3372 288.259 57.7998 287.785C57.2666 287.307 57 286.67 57 285.875C57 285.375 57.1354 284.924 57.4062 284.522C57.6813 284.12 58.0601 283.816 58.5425 283.608C58.132 283.405 57.8083 283.124 57.5713 282.764C57.3343 282.404 57.2158 281.996 57.2158 281.539C57.2158 280.76 57.4655 280.143 57.9648 279.686C58.4642 279.229 59.1222 279 59.939 279C60.7515 279 61.4074 279.229 61.9067 279.686C62.4103 280.143 62.6621 280.76 62.6621 281.539ZM61.7036 285.849C61.7036 285.333 61.5386 284.912 61.2085 284.586C60.8826 284.26 60.4552 284.097 59.9263 284.097C59.3973 284.097 58.972 284.258 58.6504 284.58C58.333 284.901 58.1743 285.324 58.1743 285.849C58.1743 286.374 58.3288 286.786 58.6377 287.087C58.9508 287.387 59.3846 287.538 59.939 287.538C60.4891 287.538 60.9207 287.387 61.2339 287.087C61.547 286.782 61.7036 286.37 61.7036 285.849ZM59.939 279.965C59.4777 279.965 59.1032 280.109 58.8154 280.396C58.5319 280.68 58.3901 281.067 58.3901 281.558C58.3901 282.028 58.5298 282.409 58.8091 282.701C59.0926 282.988 59.4692 283.132 59.939 283.132C60.4087 283.132 60.7832 282.988 61.0625 282.701C61.346 282.409 61.4878 282.028 61.4878 281.558C61.4878 281.088 61.3418 280.705 61.0498 280.409C60.7578 280.113 60.3875 279.965 59.939 279.965Z" fill="#333333"/>
<path d="M56.5483 338.094H55.3677V330.267L53 331.137V330.07L56.3643 328.807H56.5483V338.094Z" fill="#333333"/>
<path d="M65.7842 334.152C65.7842 335.527 65.5493 336.549 65.0796 337.218C64.6099 337.886 63.8757 338.221 62.877 338.221C61.891 338.221 61.161 337.895 60.687 337.243C60.2131 336.587 59.9676 335.61 59.9507 334.311V332.743C59.9507 331.384 60.1855 330.375 60.6553 329.715C61.125 329.055 61.8613 328.725 62.8643 328.725C63.8587 328.725 64.5908 329.044 65.0605 329.683C65.5303 330.318 65.7715 331.3 65.7842 332.628V334.152ZM64.6099 332.546C64.6099 331.551 64.4702 330.828 64.1909 330.375C63.9116 329.918 63.4694 329.689 62.8643 329.689C62.2633 329.689 61.8254 329.916 61.5503 330.369C61.2752 330.821 61.1335 331.518 61.125 332.457V334.336C61.125 335.335 61.2689 336.073 61.5566 336.551C61.8486 337.025 62.2887 337.262 62.877 337.262C63.4567 337.262 63.8862 337.038 64.1655 336.589C64.4491 336.141 64.5972 335.434 64.6099 334.469V332.546Z" fill="#333333"/>
<path d="M61.8394 383.787C61.5939 384.079 61.2998 384.314 60.957 384.492C60.6185 384.669 60.2461 384.758 59.8398 384.758C59.3066 384.758 58.8411 384.627 58.4434 384.365C58.0498 384.102 57.7451 383.734 57.5293 383.26C57.3135 382.782 57.2056 382.255 57.2056 381.68C57.2056 381.062 57.3219 380.505 57.5547 380.01C57.7917 379.515 58.126 379.136 58.5576 378.874C58.9893 378.612 59.4928 378.48 60.0684 378.48C60.9824 378.48 61.7018 378.823 62.2266 379.509C62.7555 380.19 63.02 381.121 63.02 382.302V382.645C63.02 384.443 62.6646 385.757 61.9536 386.586C61.2427 387.412 60.1699 387.835 58.7354 387.856H58.5068V386.866H58.7544C59.7235 386.849 60.4683 386.597 60.9888 386.11C61.5093 385.619 61.7928 384.845 61.8394 383.787ZM60.0303 383.787C60.4238 383.787 60.7856 383.667 61.1157 383.425C61.45 383.184 61.6934 382.886 61.8457 382.53V382.061C61.8457 381.29 61.6785 380.664 61.3442 380.182C61.0099 379.699 60.5868 379.458 60.0747 379.458C59.5584 379.458 59.1437 379.657 58.8306 380.055C58.5174 380.448 58.3608 380.969 58.3608 381.616C58.3608 382.247 58.5111 382.767 58.8115 383.178C59.1162 383.584 59.5225 383.787 60.0303 383.787Z" fill="#333333"/>
<path d="M56.5483 439.817H55.3677V431.991L53 432.86V431.794L56.3643 430.531H56.5483V439.817Z" fill="#333333"/>
<path d="M61.6963 434.625H62.5786C63.133 434.617 63.5688 434.471 63.8862 434.187C64.2036 433.903 64.3623 433.521 64.3623 433.038C64.3623 431.955 63.8228 431.413 62.7437 431.413C62.2358 431.413 61.8296 431.559 61.5249 431.851C61.2244 432.139 61.0742 432.522 61.0742 433H59.8999C59.8999 432.268 60.1665 431.661 60.6997 431.178C61.2371 430.692 61.9185 430.448 62.7437 430.448C63.6154 430.448 64.2988 430.679 64.7939 431.14C65.2891 431.601 65.5366 432.243 65.5366 433.063C65.5366 433.465 65.4054 433.855 65.1431 434.231C64.8849 434.608 64.5316 434.889 64.083 435.076C64.5908 435.236 64.9823 435.503 65.2573 435.875C65.5366 436.248 65.6763 436.703 65.6763 437.24C65.6763 438.07 65.4054 438.728 64.8638 439.214C64.3221 439.701 63.6175 439.944 62.75 439.944C61.8825 439.944 61.1758 439.709 60.6299 439.24C60.0882 438.77 59.8174 438.15 59.8174 437.38H60.998C60.998 437.867 61.1567 438.256 61.4741 438.548C61.7915 438.84 62.2168 438.986 62.75 438.986C63.3171 438.986 63.7508 438.838 64.0513 438.542C64.3517 438.245 64.502 437.82 64.502 437.266C64.502 436.728 64.3369 436.316 64.0068 436.028C63.6768 435.74 63.2007 435.592 62.5786 435.583H61.6963V434.625Z" fill="#333333"/>
<path d="M63.2461 515.66L59.4185 524.242H58.187L62.002 515.965H57V515H63.2461V515.66Z" fill="#333333"/>
<path d="M146.109 523.849H144.929V516.022L142.561 516.892V515.826L145.925 514.562H146.109V523.849Z" fill="#333333"/>
<path d="M153.409 523.849H152.229V516.022L149.861 516.892V515.826L153.225 514.562H153.409V523.849Z" fill="#333333"/>
<path d="M237.882 522.85H236.701V515.023L234.333 515.893V514.826L237.698 513.563H237.882V522.85Z" fill="#333333"/>
<path d="M247.378 522.85H241.322V522.005L244.521 518.451C244.995 517.913 245.321 517.477 245.499 517.143C245.681 516.805 245.772 516.455 245.772 516.096C245.772 515.613 245.626 515.218 245.334 514.909C245.042 514.6 244.653 514.445 244.166 514.445C243.582 514.445 243.127 514.612 242.801 514.947C242.48 515.277 242.319 515.738 242.319 516.331H241.145C241.145 515.48 241.417 514.792 241.963 514.268C242.514 513.743 243.248 513.48 244.166 513.48C245.025 513.48 245.704 513.707 246.204 514.16C246.703 514.608 246.953 515.207 246.953 515.956C246.953 516.866 246.373 517.949 245.213 519.206L242.738 521.891H247.378V522.85Z" fill="#333333"/>
<path d="M62.5874 694.916H61.4067V687.089L59.0391 687.958V686.892L62.4033 685.629H62.5874V694.916Z" fill="#333333"/>
<path d="M408.289 1240.37H402.233V1239.52L405.432 1235.97C405.906 1235.43 406.232 1235 406.41 1234.66C406.592 1234.32 406.683 1233.97 406.683 1233.62C406.683 1233.13 406.537 1232.74 406.245 1232.43C405.953 1232.12 405.563 1231.96 405.077 1231.96C404.493 1231.96 404.038 1232.13 403.712 1232.47C403.39 1232.8 403.229 1233.26 403.229 1233.85H402.055C402.055 1233 402.328 1232.31 402.874 1231.79C403.424 1231.26 404.158 1231 405.077 1231C405.936 1231 406.615 1231.23 407.114 1231.68C407.614 1232.13 407.863 1232.73 407.863 1233.48C407.863 1234.39 407.284 1235.47 406.124 1236.73L403.648 1239.41H408.289V1240.37Z" fill="#333333"/>
<path d="M403.879 1854.18H404.761C405.316 1854.17 405.751 1854.02 406.069 1853.74C406.386 1853.46 406.545 1853.07 406.545 1852.59C406.545 1851.51 406.005 1850.96 404.926 1850.96C404.418 1850.96 404.012 1851.11 403.708 1851.4C403.407 1851.69 403.257 1852.07 403.257 1852.55H402.083C402.083 1851.82 402.349 1851.21 402.882 1850.73C403.42 1850.24 404.101 1850 404.926 1850C405.798 1850 406.481 1850.23 406.977 1850.69C407.472 1851.15 407.719 1851.79 407.719 1852.62C407.719 1853.02 407.588 1853.41 407.326 1853.78C407.068 1854.16 406.714 1854.44 406.266 1854.63C406.773 1854.79 407.165 1855.05 407.44 1855.43C407.719 1855.8 407.859 1856.25 407.859 1856.79C407.859 1857.62 407.588 1858.28 407.046 1858.77C406.505 1859.25 405.8 1859.5 404.933 1859.5C404.065 1859.5 403.358 1859.26 402.812 1858.79C402.271 1858.32 402 1857.7 402 1856.93H403.181C403.181 1857.42 403.339 1857.81 403.657 1858.1C403.974 1858.39 404.399 1858.54 404.933 1858.54C405.5 1858.54 405.933 1858.39 406.234 1858.09C406.534 1857.8 406.685 1857.37 406.685 1856.82C406.685 1856.28 406.52 1855.87 406.189 1855.58C405.859 1855.29 405.383 1855.14 404.761 1855.14H403.879V1854.18Z" fill="#333333"/>
<path d="M406.389 2473.14H407.671V2474.1H406.389V2476.24H405.208V2474.1H401V2473.4L405.139 2467H406.389V2473.14ZM402.333 2473.14H405.208V2468.61L405.069 2468.86L402.333 2473.14Z" fill="#333333"/>
<path d="M56.8784 3078.95L57.3481 3074.34H62.0835V3075.42H58.3447L58.0654 3077.94C58.5182 3077.68 59.0324 3077.54 59.6079 3077.54C60.45 3077.54 61.1187 3077.82 61.6138 3078.38C62.1089 3078.94 62.3564 3079.69 62.3564 3080.64C62.3564 3081.59 62.0983 3082.34 61.582 3082.89C61.07 3083.44 60.3527 3083.71 59.4302 3083.71C58.6134 3083.71 57.9469 3083.48 57.4307 3083.03C56.9144 3082.58 56.6203 3081.95 56.5483 3081.15H57.6592C57.7311 3081.68 57.9194 3082.08 58.2241 3082.35C58.5288 3082.62 58.9308 3082.75 59.4302 3082.75C59.9761 3082.75 60.4035 3082.56 60.7124 3082.19C61.0256 3081.82 61.1821 3081.3 61.1821 3080.65C61.1821 3080.03 61.0129 3079.54 60.6743 3079.16C60.34 3078.79 59.8936 3078.6 59.335 3078.6C58.8229 3078.6 58.4209 3078.71 58.1289 3078.93L57.8179 3079.19L56.8784 3078.95Z" fill="#333333"/>
<path d="M406.922 3679.93V3680.92H406.707C405.792 3680.94 405.065 3681.21 404.523 3681.73C403.981 3682.26 403.668 3683 403.583 3683.95C404.07 3683.39 404.735 3683.11 405.577 3683.11C406.381 3683.11 407.022 3683.4 407.5 3683.96C407.982 3684.53 408.224 3685.26 408.224 3686.16C408.224 3687.11 407.963 3687.87 407.443 3688.44C406.927 3689.02 406.233 3689.3 405.361 3689.3C404.476 3689.3 403.759 3688.96 403.209 3688.29C402.659 3687.6 402.384 3686.73 402.384 3685.66V3685.21C402.384 3683.51 402.746 3682.21 403.469 3681.31C404.197 3680.41 405.278 3679.95 406.713 3679.93H406.922ZM405.38 3684.09C404.978 3684.09 404.608 3684.21 404.269 3684.45C403.931 3684.69 403.696 3685 403.564 3685.36V3685.79C403.564 3686.55 403.736 3687.17 404.079 3687.63C404.421 3688.1 404.849 3688.33 405.361 3688.33C405.89 3688.33 406.305 3688.14 406.605 3687.75C406.91 3687.36 407.062 3686.85 407.062 3686.22C407.062 3685.58 406.908 3685.07 406.599 3684.68C406.294 3684.29 405.888 3684.09 405.38 3684.09Z" fill="#333333"/>
<path d="M63.5469 4158.31L59.7192 4166.89H58.4878L62.3027 4158.62H57.3008V4157.65H63.5469V4158.31Z" fill="#333333"/>
<path d="M63.2461 4498.66L59.4185 4507.24H58.187L62.002 4498.96H57V4498H63.2461V4498.66Z" fill="#333333"/>
<path d="M62.6621 4833.54C62.6621 4834 62.5394 4834.41 62.2939 4834.77C62.0527 4835.13 61.7248 4835.41 61.3101 4835.61C61.7925 4835.82 62.1733 4836.12 62.4526 4836.52C62.7362 4836.92 62.8779 4837.37 62.8779 4837.87C62.8779 4838.67 62.6071 4839.31 62.0654 4839.79C61.528 4840.26 60.8192 4840.5 59.939 4840.5C59.0503 4840.5 58.3372 4840.26 57.7998 4839.79C57.2666 4839.31 57 4838.67 57 4837.87C57 4837.38 57.1354 4836.92 57.4062 4836.52C57.6813 4836.12 58.0601 4835.82 58.5425 4835.61C58.132 4835.41 57.8083 4835.12 57.5713 4834.76C57.3343 4834.4 57.2158 4834 57.2158 4833.54C57.2158 4832.76 57.4655 4832.14 57.9648 4831.69C58.4642 4831.23 59.1222 4831 59.939 4831C60.7515 4831 61.4074 4831.23 61.9067 4831.69C62.4103 4832.14 62.6621 4832.76 62.6621 4833.54ZM61.7036 4837.85C61.7036 4837.33 61.5386 4836.91 61.2085 4836.59C60.8826 4836.26 60.4552 4836.1 59.9263 4836.1C59.3973 4836.1 58.972 4836.26 58.6504 4836.58C58.333 4836.9 58.1743 4837.32 58.1743 4837.85C58.1743 4838.37 58.3288 4838.79 58.6377 4839.09C58.9508 4839.39 59.3846 4839.54 59.939 4839.54C60.4891 4839.54 60.9207 4839.39 61.2339 4839.09C61.547 4838.78 61.7036 4838.37 61.7036 4837.85ZM59.939 4831.96C59.4777 4831.96 59.1032 4832.11 58.8154 4832.4C58.5319 4832.68 58.3901 4833.07 58.3901 4833.56C58.3901 4834.03 58.5298 4834.41 58.8091 4834.7C59.0926 4834.99 59.4692 4835.13 59.939 4835.13C60.4087 4835.13 60.7832 4834.99 61.0625 4834.7C61.346 4834.41 61.4878 4834.03 61.4878 4833.56C61.4878 4833.09 61.3418 4832.71 61.0498 4832.41C60.7578 4832.11 60.3875 4831.96 59.939 4831.96Z" fill="#333333"/>
<path d="M407.091 5468.36C406.846 5468.65 406.552 5468.88 406.209 5469.06C405.87 5469.24 405.498 5469.33 405.092 5469.33C404.559 5469.33 404.093 5469.2 403.695 5468.93C403.302 5468.67 402.997 5468.3 402.781 5467.83C402.565 5467.35 402.458 5466.82 402.458 5466.25C402.458 5465.63 402.574 5465.07 402.807 5464.58C403.044 5464.08 403.378 5463.7 403.81 5463.44C404.241 5463.18 404.745 5463.05 405.32 5463.05C406.234 5463.05 406.954 5463.39 407.479 5464.08C408.007 5464.76 408.272 5465.69 408.272 5466.87V5467.21C408.272 5469.01 407.917 5470.33 407.206 5471.15C406.495 5471.98 405.422 5472.4 403.987 5472.42H403.759V5471.43H404.006C404.975 5471.42 405.72 5471.17 406.241 5470.68C406.761 5470.19 407.045 5469.41 407.091 5468.36ZM405.282 5468.36C405.676 5468.36 406.038 5468.23 406.368 5467.99C406.702 5467.75 406.945 5467.45 407.098 5467.1V5466.63C407.098 5465.86 406.931 5465.23 406.596 5464.75C406.262 5464.27 405.839 5464.03 405.327 5464.03C404.81 5464.03 404.396 5464.23 404.083 5464.62C403.769 5465.02 403.613 5465.54 403.613 5466.18C403.613 5466.82 403.763 5467.34 404.063 5467.75C404.368 5468.15 404.774 5468.36 405.282 5468.36Z" fill="#333333"/>
<path d="M61.8394 5504.79C61.5939 5505.08 61.2998 5505.31 60.957 5505.49C60.6185 5505.67 60.2461 5505.76 59.8398 5505.76C59.3066 5505.76 58.8411 5505.63 58.4434 5505.36C58.0498 5505.1 57.7451 5504.73 57.5293 5504.26C57.3135 5503.78 57.2056 5503.26 57.2056 5502.68C57.2056 5502.06 57.3219 5501.51 57.5547 5501.01C57.7917 5500.52 58.126 5500.14 58.5576 5499.87C58.9893 5499.61 59.4928 5499.48 60.0684 5499.48C60.9824 5499.48 61.7018 5499.82 62.2266 5500.51C62.7555 5501.19 63.02 5502.12 63.02 5503.3V5503.64C63.02 5505.44 62.6646 5506.76 61.9536 5507.59C61.2427 5508.41 60.1699 5508.83 58.7354 5508.86H58.5068V5507.87H58.7544C59.7235 5507.85 60.4683 5507.6 60.9888 5507.11C61.5093 5506.62 61.7928 5505.85 61.8394 5504.79ZM60.0303 5504.79C60.4238 5504.79 60.7856 5504.67 61.1157 5504.43C61.45 5504.18 61.6934 5503.89 61.8457 5503.53V5503.06C61.8457 5502.29 61.6785 5501.66 61.3442 5501.18C61.0099 5500.7 60.5868 5500.46 60.0747 5500.46C59.5584 5500.46 59.1437 5500.66 58.8306 5501.05C58.5174 5501.45 58.3608 5501.97 58.3608 5502.62C58.3608 5503.25 58.5111 5503.77 58.8115 5504.18C59.1162 5504.58 59.5225 5504.79 60.0303 5504.79Z" fill="#333333"/>
<path d="M56.5483 6028.09H55.3677V6020.27L53 6021.14V6020.07L56.3643 6018.81H56.5483V6028.09Z" fill="#333333"/>
<path d="M65.7842 6024.15C65.7842 6025.53 65.5493 6026.55 65.0796 6027.22C64.6099 6027.89 63.8757 6028.22 62.877 6028.22C61.891 6028.22 61.161 6027.89 60.687 6027.24C60.2131 6026.59 59.9676 6025.61 59.9507 6024.31V6022.74C59.9507 6021.38 60.1855 6020.38 60.6553 6019.71C61.125 6019.05 61.8613 6018.72 62.8643 6018.72C63.8587 6018.72 64.5908 6019.04 65.0605 6019.68C65.5303 6020.32 65.7715 6021.3 65.7842 6022.63V6024.15ZM64.6099 6022.55C64.6099 6021.55 64.4702 6020.83 64.1909 6020.38C63.9116 6019.92 63.4694 6019.69 62.8643 6019.69C62.2633 6019.69 61.8254 6019.92 61.5503 6020.37C61.2752 6020.82 61.1335 6021.52 61.125 6022.46V6024.34C61.125 6025.33 61.2689 6026.07 61.5566 6026.55C61.8486 6027.03 62.2887 6027.26 62.877 6027.26C63.4567 6027.26 63.8862 6027.04 64.1655 6026.59C64.4491 6026.14 64.5972 6025.43 64.6099 6024.47V6022.55Z" fill="#333333"/>
<path d="M146.109 6782.85H144.929V6775.02L142.561 6775.89V6774.83L145.925 6773.56H146.109V6782.85Z" fill="#333333"/>
<path d="M153.409 6782.85H152.229V6775.02L149.861 6775.89V6774.83L153.225 6773.56H153.409V6782.85Z" fill="#333333"/>
<path d="M237.882 7350.85H236.701V7343.02L234.333 7343.89V7342.83L237.698 7341.56H237.882V7350.85Z" fill="#333333"/>
<path d="M247.378 7350.85H241.322V7350.01L244.521 7346.45C244.995 7345.91 245.321 7345.48 245.499 7345.14C245.681 7344.8 245.772 7344.46 245.772 7344.1C245.772 7343.61 245.626 7343.22 245.334 7342.91C245.042 7342.6 244.653 7342.45 244.166 7342.45C243.582 7342.45 243.127 7342.61 242.801 7342.95C242.48 7343.28 242.319 7343.74 242.319 7344.33H241.145C241.145 7343.48 241.417 7342.79 241.963 7342.27C242.514 7341.74 243.248 7341.48 244.166 7341.48C245.025 7341.48 245.704 7341.71 246.204 7342.16C246.703 7342.61 246.953 7343.21 246.953 7343.96C246.953 7344.87 246.373 7345.95 245.213 7347.21L242.738 7349.89H247.378V7350.85Z" fill="#333333"/>
<path d="M56.5483 7836.82H55.3677V7828.99L53 7829.86V7828.79L56.3643 7827.53H56.5483V7836.82Z" fill="#333333"/>
<path d="M61.6963 7831.63H62.5786C63.133 7831.62 63.5688 7831.47 63.8862 7831.19C64.2036 7830.9 64.3623 7830.52 64.3623 7830.04C64.3623 7828.96 63.8228 7828.41 62.7437 7828.41C62.2358 7828.41 61.8296 7828.56 61.5249 7828.85C61.2244 7829.14 61.0742 7829.52 61.0742 7830H59.8999C59.8999 7829.27 60.1665 7828.66 60.6997 7828.18C61.2371 7827.69 61.9185 7827.45 62.7437 7827.45C63.6154 7827.45 64.2988 7827.68 64.7939 7828.14C65.2891 7828.6 65.5366 7829.24 65.5366 7830.06C65.5366 7830.47 65.4054 7830.86 65.1431 7831.23C64.8849 7831.61 64.5316 7831.89 64.083 7832.08C64.5908 7832.24 64.9823 7832.5 65.2573 7832.88C65.5366 7833.25 65.6763 7833.7 65.6763 7834.24C65.6763 7835.07 65.4054 7835.73 64.8638 7836.22C64.3221 7836.7 63.6175 7836.95 62.75 7836.95C61.8825 7836.95 61.1758 7836.71 60.6299 7836.24C60.0882 7835.77 59.8174 7835.15 59.8174 7834.38H60.998C60.998 7834.87 61.1567 7835.26 61.4741 7835.55C61.7915 7835.84 62.2168 7835.99 62.75 7835.99C63.3171 7835.99 63.7508 7835.84 64.0513 7835.54C64.3517 7835.25 64.502 7834.82 64.502 7834.27C64.502 7833.73 64.3369 7833.32 64.0068 7833.03C63.6768 7832.74 63.2007 7832.59 62.5786 7832.58H61.6963V7831.63Z" fill="#333333"/>
</svg>
