<svg width="466" height="7966" viewBox="0 0 466 7966" fill="none" xmlns="http://www.w3.org/2000/svg">
<rect x="461" width="5" height="5" fill="white"/>
<rect width="5" height="5" fill="white"/>
<rect x="461" y="564" width="5" height="5" fill="white"/>
<rect y="564" width="5" height="5" fill="white"/>
<path fill-rule="evenodd" clip-rule="evenodd" d="M422.171 98.0894C422.171 107.555 414.498 115.228 405.032 115.228C396.045 115.228 388.673 108.309 387.952 99.5077L337.796 103.935C337.293 106.151 335.311 107.805 332.943 107.805C330.195 107.805 327.968 105.577 327.968 102.829C327.968 100.081 330.195 97.8535 332.943 97.8535C335.691 97.8535 337.919 100.081 337.919 102.829C337.919 102.844 337.919 102.86 337.919 102.875C337.919 102.89 337.918 102.905 337.918 102.92L387.899 98.5085C387.896 98.3692 387.894 98.2295 387.894 98.0894C387.894 88.6242 395.567 80.9512 405.032 80.9512C414.498 80.9512 422.171 88.6242 422.171 98.0894Z" fill="#E0E0E0"/>
<path fill-rule="evenodd" clip-rule="evenodd" d="M278.764 135.448C281.231 135.448 283.279 133.652 283.672 131.297L388.17 144.399C387.989 145.398 387.894 146.428 387.894 147.479C387.894 156.944 395.567 164.617 405.032 164.617C414.498 164.617 422.171 156.944 422.171 147.479C422.171 138.014 414.498 130.341 405.032 130.341C396.967 130.341 390.202 135.913 388.378 143.417L283.737 130.297C283.644 127.63 281.453 125.497 278.764 125.497C276.016 125.497 273.789 127.725 273.789 130.473C273.789 133.221 276.016 135.448 278.764 135.448Z" fill="#E0E0E0"/>
<path fill-rule="evenodd" clip-rule="evenodd" d="M422.252 195.708C422.252 205.173 414.579 212.846 405.114 212.846C396.172 212.846 388.829 205.998 388.045 197.26H284.598C283.946 199.247 282.076 200.683 279.87 200.683C277.122 200.683 274.894 198.455 274.894 195.707C274.894 192.959 277.122 190.731 279.87 190.731C282.618 190.731 284.846 192.959 284.846 195.707C284.846 195.894 284.835 196.078 284.815 196.26H387.984C387.978 196.076 387.975 195.892 387.975 195.708C387.975 186.242 395.648 178.569 405.114 178.569C414.579 178.569 422.252 186.242 422.252 195.708Z" fill="#E0E0E0"/>
<path fill-rule="evenodd" clip-rule="evenodd" d="M422.252 270.894C422.252 280.359 414.579 288.032 405.114 288.032C396.172 288.032 388.83 281.185 388.045 272.447H331.242C331.27 272.663 331.285 272.883 331.285 273.106C331.285 275.854 329.057 278.082 326.309 278.082C323.561 278.082 321.334 275.854 321.334 273.106C321.334 270.359 323.561 268.131 326.309 268.131C328.476 268.131 330.318 269.515 331.002 271.447H387.984C387.978 271.264 387.975 271.079 387.975 270.894C387.975 261.429 395.648 253.756 405.114 253.756C414.579 253.756 422.252 261.429 422.252 270.894Z" fill="#E0E0E0"/>
<path fill-rule="evenodd" clip-rule="evenodd" d="M238.407 203.447C238.407 206.195 236.179 208.423 233.431 208.423C231.156 208.423 229.237 206.896 228.644 204.811L77.2189 231.887C77.257 232.353 77.2764 232.825 77.2764 233.301C77.2764 242.766 69.6034 250.44 60.1382 250.44C50.673 250.44 43 242.766 43 233.301C43 223.836 50.673 216.163 60.1382 216.163C68.7852 216.163 75.9365 222.567 77.1082 230.891L228.47 203.826C228.46 203.701 228.455 203.575 228.455 203.447C228.455 200.699 230.683 198.472 233.431 198.472C236.179 198.472 238.407 200.699 238.407 203.447Z" fill="#E0E0E0"/>
<path fill-rule="evenodd" clip-rule="evenodd" d="M180.91 241.041C180.91 243.789 178.683 246.017 175.935 246.017C173.967 246.017 172.265 244.874 171.458 243.216L76.9084 279.508C77.1496 280.653 77.2764 281.84 77.2764 283.057C77.2764 292.522 69.6034 300.195 60.1382 300.195C50.673 300.195 43 292.522 43 283.057C43 273.592 50.673 265.919 60.1382 265.919C68.0354 265.919 74.685 271.26 76.6714 278.527L171.114 242.277C171.013 241.882 170.959 241.468 170.959 241.041C170.959 238.293 173.187 236.065 175.935 236.065C178.683 236.065 180.91 238.293 180.91 241.041Z" fill="#E0E0E0"/>
<path fill-rule="evenodd" clip-rule="evenodd" d="M179.805 285.269C179.805 288.017 177.577 290.244 174.829 290.244C173.292 290.244 171.917 289.547 171.004 288.451L77.2166 331.37C77.2562 331.846 77.2764 332.327 77.2764 332.813C77.2764 342.278 69.6034 349.951 60.1382 349.951C50.673 349.951 43 342.278 43 332.813C43 323.348 50.673 315.675 60.1382 315.675C68.7584 315.675 75.8921 322.039 77.0972 330.325L170.438 287.61C170.065 286.912 169.854 286.115 169.854 285.269C169.854 282.521 172.081 280.293 174.829 280.293C177.577 280.293 179.805 282.521 179.805 285.269Z" fill="#E0E0E0"/>
<path fill-rule="evenodd" clip-rule="evenodd" d="M153.268 316.228C153.268 318.976 151.041 321.203 148.293 321.203C147.323 321.203 146.419 320.926 145.654 320.447L74.2353 372.821C75.8362 375.131 76.8837 377.855 77.186 380.799L144.568 372.713C144.473 372.328 144.423 371.926 144.423 371.513C144.423 368.765 146.65 366.537 149.398 366.537C152.146 366.537 154.374 368.765 154.374 371.513C154.374 374.261 152.146 376.488 149.398 376.488C147.426 376.488 145.723 375.341 144.917 373.678L77.2593 381.797C77.2707 382.053 77.2764 382.311 77.2764 382.57C77.2764 385.356 76.6118 387.986 75.4325 390.311L145.244 410.789C146.135 409.442 147.663 408.554 149.398 408.554C152.146 408.554 154.374 410.781 154.374 413.529C154.374 416.277 152.146 418.505 149.398 418.505C146.65 418.505 144.423 416.277 144.423 413.529C144.423 412.881 144.547 412.261 144.772 411.693L74.9425 391.21C71.9693 396.293 66.4525 399.708 60.1382 399.708C50.673 399.708 43 392.035 43 382.57C43 373.105 50.673 365.432 60.1382 365.432C65.6225 365.432 70.5051 368.008 73.6421 372.016L144.836 319.807C143.9 318.902 143.317 317.633 143.317 316.228C143.317 313.48 145.545 311.252 148.293 311.252C151.041 311.252 153.268 313.48 153.268 316.228Z" fill="#E0E0E0"/>
<path fill-rule="evenodd" clip-rule="evenodd" d="M196.39 467.708C196.39 469.037 195.869 470.245 195.02 471.137L229.073 506.738C232.194 503.469 236.595 501.432 241.472 501.432C250.937 501.432 258.61 509.105 258.61 518.57C258.61 528.035 250.937 535.708 241.472 535.708C232.007 535.708 224.333 528.035 224.333 518.57C224.333 514.342 225.864 510.472 228.402 507.483L194.261 471.79C193.454 472.353 192.473 472.684 191.415 472.684C188.667 472.684 186.439 470.456 186.439 467.708C186.439 464.96 188.667 462.732 191.415 462.732C194.163 462.732 196.39 464.96 196.39 467.708Z" fill="#E0E0E0"/>
<path fill-rule="evenodd" clip-rule="evenodd" d="M76.7743 438.673C74.9242 446.14 68.1777 451.676 60.1382 451.676C50.673 451.676 43 444.003 43 434.538C43 425.072 50.673 417.399 60.1382 417.399C69.6034 417.399 77.2764 425.072 77.2764 434.538C77.2764 435.613 77.1775 436.665 76.9881 437.685L134.519 441.585C134.856 439.165 136.934 437.302 139.447 437.302C142.195 437.302 144.423 439.529 144.423 442.277C144.423 445.025 142.195 447.253 139.447 447.253C136.802 447.253 134.64 445.19 134.481 442.585L76.7743 438.673Z" fill="#E0E0E0"/>
<path fill-rule="evenodd" clip-rule="evenodd" d="M131.154 451.122C131.154 453.87 128.927 456.098 126.179 456.098C124.91 456.098 123.752 455.623 122.873 454.841L72.6819 506.892C75.5325 509.952 77.2764 514.057 77.2764 518.57C77.2764 528.035 69.6034 535.708 60.1382 535.708C50.673 535.708 43 528.035 43 518.57C43 509.104 50.673 501.431 60.1382 501.431C64.7312 501.431 68.9021 503.238 71.9792 506.18L122.195 454.104C121.572 453.273 121.203 452.241 121.203 451.122C121.203 448.374 123.431 446.146 126.179 446.146C128.927 446.146 131.154 448.374 131.154 451.122Z" fill="#E0E0E0"/>
<path fill-rule="evenodd" clip-rule="evenodd" d="M179.805 436.748C179.805 439.496 177.577 441.724 174.829 441.724C174.773 441.724 174.716 441.723 174.66 441.721L155.867 502.575C162.284 505.051 166.837 511.279 166.837 518.57C166.837 528.035 159.164 535.708 149.699 535.708C140.234 535.708 132.561 528.035 132.561 518.57C132.561 512.282 135.948 506.784 140.996 503.803L120.058 474.201C119.146 475.301 117.768 476.001 116.228 476.001C113.48 476.001 111.252 473.773 111.252 471.025C111.252 468.277 113.48 466.05 116.228 466.05C118.976 466.05 121.203 468.277 121.203 471.025C121.203 471.848 121.004 472.623 120.651 473.306L141.877 503.317C144.037 502.207 146.462 501.543 149.033 501.444L151.219 471.562C148.654 471.363 146.634 469.218 146.634 466.602C146.634 463.854 148.862 461.626 151.61 461.626C154.358 461.626 156.586 463.854 156.586 466.602C156.586 469.142 154.682 471.237 152.224 471.54L150.036 501.435C151.737 501.468 153.378 501.748 154.923 502.242L173.655 441.584C171.474 441.057 169.854 439.092 169.854 436.748C169.854 434 172.081 431.772 174.829 431.772C177.577 431.772 179.805 434 179.805 436.748Z" fill="#E0E0E0"/>
<path fill-rule="evenodd" clip-rule="evenodd" d="M279.317 236.618C279.317 238.496 278.276 240.131 276.74 240.978L290.564 284.936C291.029 284.793 291.522 284.716 292.033 284.716C294.781 284.716 297.009 286.943 297.009 289.691C297.009 290.253 296.916 290.792 296.744 291.295L388.605 342.658C390.213 334.862 397.117 329 405.39 329C414.855 329 422.528 336.673 422.528 346.138C422.528 355.603 414.855 363.276 405.39 363.276C398.303 363.276 392.221 358.975 389.612 352.841L296.826 427.668C296.945 428.095 297.009 428.544 297.009 429.009C297.009 431.757 294.781 433.984 292.033 433.984C289.285 433.984 287.057 431.757 287.057 429.009C287.057 426.261 289.285 424.033 292.033 424.033C293.946 424.033 295.606 425.113 296.439 426.695L389.231 351.863C388.756 350.522 388.443 349.104 388.316 347.634L295.883 347.634C295.657 350.173 293.524 352.163 290.927 352.163C288.179 352.163 285.951 349.935 285.951 347.188C285.951 344.44 288.179 342.212 290.927 342.212C293.488 342.212 295.597 344.146 295.872 346.634L388.259 346.634C388.254 346.469 388.252 346.304 388.252 346.138C388.252 345.311 388.311 344.498 388.424 343.703L296.327 292.207C295.462 293.679 293.863 294.667 292.033 294.667C289.285 294.667 287.057 292.439 287.057 289.691C287.057 287.811 288.1 286.174 289.64 285.328L275.816 241.372C275.35 241.516 274.855 241.594 274.341 241.594C271.593 241.594 269.366 239.366 269.366 236.618C269.366 233.87 271.593 231.643 274.341 231.643C277.089 231.643 279.317 233.87 279.317 236.618Z" fill="#E0E0E0"/>
<path fill-rule="evenodd" clip-rule="evenodd" d="M297.009 99.5127C297.009 102.261 294.781 104.488 292.033 104.488C289.61 104.488 287.592 102.757 287.148 100.463L78.6937 114.935C79.3229 116.719 79.6652 118.638 79.6652 120.637C79.6652 130.102 71.9922 137.775 62.527 137.775C53.0618 137.775 45.3888 130.102 45.3888 120.637C45.3888 111.172 53.0618 103.499 62.527 103.499C69.623 103.499 75.7118 107.812 78.3153 113.959L287.058 99.4671C287.082 96.7402 289.3 94.5371 292.033 94.5371C294.781 94.5371 297.009 96.7648 297.009 99.5127Z" fill="#E0E0E0"/>
<path fill-rule="evenodd" clip-rule="evenodd" d="M262.962 109.478C262.813 109.004 262.732 108.499 262.732 107.976C262.732 105.228 264.959 103 267.707 103C270.455 103 272.683 105.228 272.683 107.976C272.683 110.724 270.455 112.951 267.707 112.951C265.839 112.951 264.21 111.921 263.36 110.398L77.4573 177.165C77.4974 177.643 77.5179 178.127 77.5179 178.616C77.5179 188.081 69.8449 195.754 60.3797 195.754C50.9145 195.754 43.2415 188.081 43.2415 178.616C43.2415 169.151 50.9145 161.478 60.3797 161.478C69.0054 161.478 76.1428 167.85 77.3409 176.144L262.962 109.478Z" fill="#E0E0E0"/>
<rect x="461" y="4552" width="5" height="5" fill="white"/>
<rect y="4552" width="5" height="5" fill="white"/>
<rect x="461" y="5116" width="5" height="5" fill="white"/>
<rect y="5116" width="5" height="5" fill="white"/>
<path fill-rule="evenodd" clip-rule="evenodd" d="M180.91 4793.04C180.91 4795.79 178.683 4798.02 175.935 4798.02C173.967 4798.02 172.265 4796.87 171.458 4795.22L76.9084 4831.51C77.1496 4832.65 77.2764 4833.84 77.2764 4835.06C77.2764 4844.52 69.6034 4852.2 60.1382 4852.2C50.673 4852.2 43 4844.52 43 4835.06C43 4825.59 50.673 4817.92 60.1382 4817.92C68.0354 4817.92 74.685 4823.26 76.6714 4830.53L171.114 4794.28C171.013 4793.88 170.959 4793.47 170.959 4793.04C170.959 4790.29 173.187 4788.07 175.935 4788.07C178.683 4788.07 180.91 4790.29 180.91 4793.04Z" fill="#EDD257"/>
<rect x="461" y="5121" width="5" height="5" fill="white"/>
<rect y="5121" width="5" height="5" fill="white"/>
<rect x="461" y="5685" width="5" height="5" fill="white"/>
<rect y="5685" width="5" height="5" fill="white"/>
<path fill-rule="evenodd" clip-rule="evenodd" d="M153.268 5437.23C153.268 5439.98 151.041 5442.2 148.293 5442.2C147.323 5442.2 146.419 5441.93 145.654 5441.45L74.2353 5493.82C75.8362 5496.13 76.8837 5498.85 77.186 5501.8L144.568 5493.71C144.473 5493.33 144.423 5492.93 144.423 5492.51C144.423 5489.76 146.65 5487.54 149.398 5487.54C152.146 5487.54 154.374 5489.76 154.374 5492.51C154.374 5495.26 152.146 5497.49 149.398 5497.49C147.426 5497.49 145.723 5496.34 144.917 5494.68L77.2593 5502.8C77.2707 5503.05 77.2764 5503.31 77.2764 5503.57C77.2764 5506.36 76.6118 5508.99 75.4325 5511.31L145.244 5531.79C146.135 5530.44 147.663 5529.55 149.398 5529.55C152.146 5529.55 154.374 5531.78 154.374 5534.53C154.374 5537.28 152.146 5539.5 149.398 5539.5C146.65 5539.5 144.423 5537.28 144.423 5534.53C144.423 5533.88 144.547 5533.26 144.772 5532.69L74.9425 5512.21C71.9693 5517.29 66.4525 5520.71 60.1382 5520.71C50.673 5520.71 43 5513.04 43 5503.57C43 5494.1 50.673 5486.43 60.1382 5486.43C65.6225 5486.43 70.5051 5489.01 73.6421 5493.02L144.836 5440.81C143.9 5439.9 143.317 5438.63 143.317 5437.23C143.317 5434.48 145.545 5432.25 148.293 5432.25C151.041 5432.25 153.268 5434.48 153.268 5437.23Z" fill="#EDD257"/>
<path fill-rule="evenodd" clip-rule="evenodd" d="M279.317 5357.62C279.317 5359.5 278.276 5361.13 276.74 5361.98L290.564 5405.94C291.029 5405.79 291.522 5405.72 292.033 5405.72C294.781 5405.72 297.009 5407.94 297.009 5410.69C297.009 5411.25 296.916 5411.79 296.744 5412.3L388.605 5463.66C390.213 5455.86 397.117 5450 405.39 5450C414.855 5450 422.528 5457.67 422.528 5467.14C422.528 5476.6 414.855 5484.28 405.39 5484.28C398.303 5484.28 392.221 5479.98 389.612 5473.84L296.826 5548.67C296.945 5549.09 297.009 5549.54 297.009 5550.01C297.009 5552.76 294.781 5554.98 292.033 5554.98C289.285 5554.98 287.057 5552.76 287.057 5550.01C287.057 5547.26 289.285 5545.03 292.033 5545.03C293.946 5545.03 295.606 5546.11 296.439 5547.7L389.231 5472.86C388.756 5471.52 388.443 5470.1 388.316 5468.63L295.883 5468.63C295.657 5471.17 293.524 5473.16 290.927 5473.16C288.179 5473.16 285.951 5470.94 285.951 5468.19C285.951 5465.44 288.179 5463.21 290.927 5463.21C293.488 5463.21 295.597 5465.15 295.872 5467.63L388.259 5467.63C388.254 5467.47 388.252 5467.3 388.252 5467.14C388.252 5466.31 388.311 5465.5 388.424 5464.7L296.327 5413.21C295.462 5414.68 293.863 5415.67 292.033 5415.67C289.285 5415.67 287.057 5413.44 287.057 5410.69C287.057 5408.81 288.1 5407.17 289.64 5406.33L275.816 5362.37C275.35 5362.52 274.855 5362.59 274.341 5362.59C271.593 5362.59 269.366 5360.37 269.366 5357.62C269.366 5354.87 271.593 5352.64 274.341 5352.64C277.089 5352.64 279.317 5354.87 279.317 5357.62Z" fill="#EDD257"/>
<rect x="461" y="5690" width="5" height="5" fill="white"/>
<rect y="5690" width="5" height="5" fill="white"/>
<rect x="461" y="6254" width="5" height="5" fill="white"/>
<rect y="6254" width="5" height="5" fill="white"/>
<path fill-rule="evenodd" clip-rule="evenodd" d="M179.805 5975.27C179.805 5978.02 177.577 5980.24 174.829 5980.24C173.292 5980.24 171.917 5979.55 171.004 5978.45L77.2166 6021.37C77.2562 6021.85 77.2764 6022.33 77.2764 6022.81C77.2764 6032.28 69.6034 6039.95 60.1382 6039.95C50.673 6039.95 43 6032.28 43 6022.81C43 6013.35 50.673 6005.67 60.1382 6005.67C68.7584 6005.67 75.8921 6012.04 77.0972 6020.33L170.438 5977.61C170.065 5976.91 169.854 5976.12 169.854 5975.27C169.854 5972.52 172.081 5970.29 174.829 5970.29C177.577 5970.29 179.805 5972.52 179.805 5975.27Z" fill="#EDD257"/>
<rect x="461" y="6259" width="5" height="5" fill="white"/>
<rect y="6259" width="5" height="5" fill="white"/>
<rect x="461" y="6823" width="5" height="5" fill="white"/>
<rect y="6823" width="5" height="5" fill="white"/>
<path fill-rule="evenodd" clip-rule="evenodd" d="M179.805 6695.75C179.805 6698.5 177.577 6700.72 174.829 6700.72C174.773 6700.72 174.716 6700.72 174.66 6700.72L155.867 6761.58C162.284 6764.05 166.837 6770.28 166.837 6777.57C166.837 6787.04 159.164 6794.71 149.699 6794.71C140.234 6794.71 132.561 6787.04 132.561 6777.57C132.561 6771.28 135.948 6765.79 140.996 6762.8L120.058 6733.2C119.146 6734.3 117.768 6735 116.228 6735C113.48 6735 111.252 6732.77 111.252 6730.03C111.252 6727.28 113.48 6725.05 116.228 6725.05C118.976 6725.05 121.203 6727.28 121.203 6730.03C121.203 6730.85 121.004 6731.62 120.651 6732.31L141.877 6762.32C144.037 6761.21 146.462 6760.54 149.033 6760.45L151.219 6730.56C148.654 6730.36 146.634 6728.22 146.634 6725.6C146.634 6722.85 148.862 6720.63 151.61 6720.63C154.358 6720.63 156.586 6722.85 156.586 6725.6C156.586 6728.14 154.682 6730.24 152.224 6730.54L150.036 6760.44C151.737 6760.47 153.378 6760.75 154.923 6761.24L173.655 6700.59C171.474 6700.06 169.854 6698.09 169.854 6695.75C169.854 6693 172.081 6690.77 174.829 6690.77C177.577 6690.77 179.805 6693 179.805 6695.75Z" fill="#EDD257"/>
<rect x="461" y="6828" width="5" height="5" fill="white"/>
<rect y="6828" width="5" height="5" fill="white"/>
<rect x="461" y="7392" width="5" height="5" fill="white"/>
<rect y="7392" width="5" height="5" fill="white"/>
<path fill-rule="evenodd" clip-rule="evenodd" d="M196.39 7295.71C196.39 7297.04 195.869 7298.24 195.02 7299.14L229.073 7334.74C232.194 7331.47 236.595 7329.43 241.472 7329.43C250.937 7329.43 258.61 7337.1 258.61 7346.57C258.61 7356.04 250.937 7363.71 241.472 7363.71C232.007 7363.71 224.333 7356.04 224.333 7346.57C224.333 7342.34 225.864 7338.47 228.402 7335.48L194.261 7299.79C193.454 7300.35 192.473 7300.68 191.415 7300.68C188.667 7300.68 186.439 7298.46 186.439 7295.71C186.439 7292.96 188.667 7290.73 191.415 7290.73C194.163 7290.73 196.39 7292.96 196.39 7295.71Z" fill="#EDD257"/>
<rect x="461" y="7397" width="5" height="5" fill="white"/>
<rect y="7397" width="5" height="5" fill="white"/>
<rect x="461" y="7961" width="5" height="5" fill="white"/>
<rect y="7961" width="5" height="5" fill="white"/>
<path fill-rule="evenodd" clip-rule="evenodd" d="M76.7743 7835.67C74.9242 7843.14 68.1777 7848.67 60.1382 7848.67C50.673 7848.67 43 7841 43 7831.54C43 7822.07 50.673 7814.4 60.1382 7814.4C69.6034 7814.4 77.2764 7822.07 77.2764 7831.54C77.2764 7832.61 77.1775 7833.66 76.9881 7834.68L134.519 7838.58C134.856 7836.16 136.934 7834.3 139.447 7834.3C142.195 7834.3 144.423 7836.53 144.423 7839.28C144.423 7842.02 142.195 7844.25 139.447 7844.25C136.802 7844.25 134.64 7842.19 134.481 7839.58L76.7743 7835.67Z" fill="#EDD257"/>
<rect x="461" y="3983" width="5" height="5" fill="white"/>
<rect y="3983" width="5" height="5" fill="white"/>
<rect x="461" y="4547" width="5" height="5" fill="white"/>
<rect y="4547" width="5" height="5" fill="white"/>
<path fill-rule="evenodd" clip-rule="evenodd" d="M131.154 4434.12C131.154 4436.87 128.927 4439.1 126.179 4439.1C124.91 4439.1 123.752 4438.62 122.873 4437.84L72.6819 4489.89C75.5325 4492.95 77.2764 4497.06 77.2764 4501.57C77.2764 4511.03 69.6034 4518.71 60.1382 4518.71C50.673 4518.71 43 4511.03 43 4501.57C43 4492.1 50.673 4484.43 60.1382 4484.43C64.7312 4484.43 68.9021 4486.24 71.9792 4489.18L122.195 4437.1C121.572 4436.27 121.203 4435.24 121.203 4434.12C121.203 4431.37 123.431 4429.15 126.179 4429.15C128.927 4429.15 131.154 4431.37 131.154 4434.12Z" fill="#EDD257"/>
<path fill-rule="evenodd" clip-rule="evenodd" d="M262.962 4092.48C262.813 4092 262.732 4091.5 262.732 4090.98C262.732 4088.23 264.959 4086 267.707 4086C270.455 4086 272.683 4088.23 272.683 4090.98C272.683 4093.72 270.455 4095.95 267.707 4095.95C265.839 4095.95 264.21 4094.92 263.36 4093.4L77.4573 4160.16C77.4974 4160.64 77.5179 4161.13 77.5179 4161.62C77.5179 4171.08 69.8449 4178.75 60.3797 4178.75C50.9145 4178.75 43.2415 4171.08 43.2415 4161.62C43.2415 4152.15 50.9145 4144.48 60.3797 4144.48C69.0054 4144.48 76.1428 4150.85 77.3409 4159.14L262.962 4092.48Z" fill="#EDD257"/>
<rect x="461" y="3414" width="5" height="5" fill="white"/>
<rect y="3414" width="5" height="5" fill="white"/>
<rect x="461" y="3978" width="5" height="5" fill="white"/>
<rect y="3978" width="5" height="5" fill="white"/>
<path fill-rule="evenodd" clip-rule="evenodd" d="M422.252 3684.89C422.252 3694.36 414.579 3702.03 405.114 3702.03C396.172 3702.03 388.83 3695.18 388.045 3686.45H331.242C331.27 3686.66 331.285 3686.88 331.285 3687.11C331.285 3689.85 329.057 3692.08 326.309 3692.08C323.561 3692.08 321.334 3689.85 321.334 3687.11C321.334 3684.36 323.561 3682.13 326.309 3682.13C328.476 3682.13 330.318 3683.52 331.002 3685.45H387.984C387.978 3685.26 387.975 3685.08 387.975 3684.89C387.975 3675.43 395.648 3667.76 405.114 3667.76C414.579 3667.76 422.252 3675.43 422.252 3684.89Z" fill="#EDD257"/>
<rect x="461" y="2845" width="5" height="5" fill="white"/>
<rect y="2845" width="5" height="5" fill="white"/>
<rect x="461" y="3409" width="5" height="5" fill="white"/>
<rect y="3409" width="5" height="5" fill="white"/>
<path fill-rule="evenodd" clip-rule="evenodd" d="M238.407 3048.45C238.407 3051.2 236.179 3053.42 233.431 3053.42C231.156 3053.42 229.237 3051.9 228.644 3049.81L77.2189 3076.89C77.257 3077.35 77.2764 3077.82 77.2764 3078.3C77.2764 3087.77 69.6034 3095.44 60.1382 3095.44C50.673 3095.44 43 3087.77 43 3078.3C43 3068.84 50.673 3061.16 60.1382 3061.16C68.7852 3061.16 75.9365 3067.57 77.1082 3075.89L228.47 3048.83C228.46 3048.7 228.455 3048.57 228.455 3048.45C228.455 3045.7 230.683 3043.47 233.431 3043.47C236.179 3043.47 238.407 3045.7 238.407 3048.45Z" fill="#EDD257"/>
<rect x="461" y="2276" width="5" height="5" fill="white"/>
<rect y="2276" width="5" height="5" fill="white"/>
<rect x="461" y="2840" width="5" height="5" fill="white"/>
<rect y="2840" width="5" height="5" fill="white"/>
<path fill-rule="evenodd" clip-rule="evenodd" d="M422.252 2471.71C422.252 2481.17 414.579 2488.85 405.114 2488.85C396.172 2488.85 388.829 2482 388.045 2473.26H284.598C283.946 2475.25 282.076 2476.68 279.87 2476.68C277.122 2476.68 274.894 2474.46 274.894 2471.71C274.894 2468.96 277.122 2466.73 279.87 2466.73C282.618 2466.73 284.846 2468.96 284.846 2471.71C284.846 2471.89 284.835 2472.08 284.815 2472.26H387.984C387.978 2472.08 387.975 2471.89 387.975 2471.71C387.975 2462.24 395.648 2454.57 405.114 2454.57C414.579 2454.57 422.252 2462.24 422.252 2471.71Z" fill="#EDD257"/>
<rect x="461" y="1707" width="5" height="5" fill="white"/>
<rect y="1707" width="5" height="5" fill="white"/>
<rect x="461" y="2271" width="5" height="5" fill="white"/>
<rect y="2271" width="5" height="5" fill="white"/>
<path fill-rule="evenodd" clip-rule="evenodd" d="M278.764 1842.45C281.231 1842.45 283.279 1840.65 283.672 1838.3L388.17 1851.4C387.989 1852.4 387.894 1853.43 387.894 1854.48C387.894 1863.94 395.567 1871.62 405.032 1871.62C414.498 1871.62 422.171 1863.94 422.171 1854.48C422.171 1845.01 414.498 1837.34 405.032 1837.34C396.967 1837.34 390.202 1842.91 388.378 1850.42L283.737 1837.3C283.644 1834.63 281.453 1832.5 278.764 1832.5C276.016 1832.5 273.789 1834.72 273.789 1837.47C273.789 1840.22 276.016 1842.45 278.764 1842.45Z" fill="#EDD257"/>
<rect x="461" y="1138" width="5" height="5" fill="white"/>
<rect y="1138" width="5" height="5" fill="white"/>
<rect x="461" y="1702" width="5" height="5" fill="white"/>
<rect y="1702" width="5" height="5" fill="white"/>
<path fill-rule="evenodd" clip-rule="evenodd" d="M422.171 1236.09C422.171 1245.55 414.498 1253.23 405.032 1253.23C396.045 1253.23 388.673 1246.31 387.952 1237.51L337.796 1241.94C337.293 1244.15 335.311 1245.8 332.943 1245.8C330.195 1245.8 327.968 1243.58 327.968 1240.83C327.968 1238.08 330.195 1235.85 332.943 1235.85C335.691 1235.85 337.919 1238.08 337.919 1240.83C337.919 1240.84 337.919 1240.86 337.919 1240.87C337.919 1240.89 337.918 1240.91 337.918 1240.92L387.899 1236.51C387.896 1236.37 387.894 1236.23 387.894 1236.09C387.894 1226.62 395.567 1218.95 405.032 1218.95C414.498 1218.95 422.171 1226.62 422.171 1236.09Z" fill="#EDD257"/>
<rect x="461" y="569" width="5" height="5" fill="white"/>
<rect y="569" width="5" height="5" fill="white"/>
<rect x="461" y="1133" width="5" height="5" fill="white"/>
<rect y="1133" width="5" height="5" fill="white"/>
<path fill-rule="evenodd" clip-rule="evenodd" d="M297.009 668.513C297.009 671.261 294.781 673.488 292.033 673.488C289.61 673.488 287.592 671.757 287.148 669.463L78.6937 683.935C79.3229 685.719 79.6652 687.638 79.6652 689.637C79.6652 699.102 71.9922 706.775 62.527 706.775C53.0618 706.775 45.3888 699.102 45.3888 689.637C45.3888 680.172 53.0618 672.499 62.527 672.499C69.623 672.499 75.7118 676.812 78.3153 682.959L287.058 668.467C287.082 665.74 289.3 663.537 292.033 663.537C294.781 663.537 297.009 665.765 297.009 668.513Z" fill="#EDD257"/>
</svg>
