<svg width="466" height="6828" viewBox="0 0 466 6828" fill="none" xmlns="http://www.w3.org/2000/svg">
<rect x="461" y="569" width="5" height="5" fill="white"/>
<rect x="461" y="1133" width="5" height="5" fill="white"/>
<rect y="569" width="5" height="5" fill="white"/>
<rect y="1133" width="5" height="5" fill="white"/>
<circle cx="228.184" cy="596.876" r="16.7644" fill="#EDD257"/>
<path d="M229.162 601.764H227.981V593.938L225.614 594.807V593.741L228.978 592.478H229.162V601.764Z" fill="#333333"/>
<circle cx="239" cy="715.849" r="4.86707" fill="#EDD257"/>
<path fill-rule="evenodd" clip-rule="evenodd" d="M238.459 714.227L227.643 607.151L228.638 607.051L239.454 714.126L238.459 714.227Z" fill="#EDD257"/>
<rect x="461" y="1138" width="5" height="5" fill="white"/>
<rect x="461" y="1702" width="5" height="5" fill="white"/>
<rect y="1138" width="5" height="5" fill="white"/>
<rect y="1702" width="5" height="5" fill="white"/>
<circle cx="401.236" cy="1272.95" r="16.7644" fill="#EDD257"/>
<path d="M404.409 1276.84H398.354V1276L401.553 1272.44C402.027 1271.9 402.353 1271.47 402.531 1271.13C402.712 1270.79 402.803 1270.45 402.803 1270.09C402.803 1269.6 402.657 1269.21 402.365 1268.9C402.073 1268.59 401.684 1268.44 401.198 1268.44C400.614 1268.44 400.159 1268.6 399.833 1268.94C399.511 1269.27 399.35 1269.73 399.35 1270.32H398.176C398.176 1269.47 398.449 1268.78 398.995 1268.26C399.545 1267.73 400.279 1267.47 401.198 1267.47C402.057 1267.47 402.736 1267.7 403.235 1268.15C403.734 1268.6 403.984 1269.2 403.984 1269.95C403.984 1270.86 403.404 1271.94 402.245 1273.2L399.769 1275.88H404.409V1276.84Z" fill="#333333"/>
<circle cx="279.018" cy="1310.81" r="4.86707" fill="#EDD257"/>
<path fill-rule="evenodd" clip-rule="evenodd" d="M278.478 1311.35L393.124 1275.66L393.421 1276.61L278.775 1312.3L278.478 1311.35Z" fill="#EDD257"/>
<rect x="461" y="1707" width="5" height="5" fill="white"/>
<rect x="461" y="2271" width="5" height="5" fill="white"/>
<rect y="1707" width="5" height="5" fill="white"/>
<rect y="2271" width="5" height="5" fill="white"/>
<circle cx="401.236" cy="1916.58" r="16.7644" fill="#EDD257"/>
<path d="M400.061 1916.28H400.944C401.498 1916.27 401.934 1916.12 402.251 1915.84C402.569 1915.55 402.727 1915.17 402.727 1914.69C402.727 1913.61 402.188 1913.06 401.109 1913.06C400.601 1913.06 400.195 1913.21 399.89 1913.5C399.589 1913.79 399.439 1914.17 399.439 1914.65H398.265C398.265 1913.92 398.531 1913.31 399.065 1912.83C399.602 1912.34 400.283 1912.1 401.109 1912.1C401.98 1912.1 402.664 1912.33 403.159 1912.79C403.654 1913.25 403.902 1913.89 403.902 1914.71C403.902 1915.12 403.77 1915.51 403.508 1915.88C403.25 1916.26 402.897 1916.54 402.448 1916.73C402.956 1916.89 403.347 1917.15 403.622 1917.53C403.902 1917.9 404.041 1918.35 404.041 1918.89C404.041 1919.72 403.77 1920.38 403.229 1920.87C402.687 1921.35 401.983 1921.6 401.115 1921.6C400.247 1921.6 399.541 1921.36 398.995 1920.89C398.453 1920.42 398.182 1919.8 398.182 1919.03H399.363C399.363 1919.52 399.522 1919.91 399.839 1920.2C400.156 1920.49 400.582 1920.64 401.115 1920.64C401.682 1920.64 402.116 1920.49 402.416 1920.19C402.717 1919.9 402.867 1919.47 402.867 1918.92C402.867 1918.38 402.702 1917.97 402.372 1917.68C402.042 1917.39 401.566 1917.24 400.944 1917.23H400.061V1916.28Z" fill="#333333"/>
<circle cx="291.997" cy="1915.5" r="4.86707" fill="#EDD257"/>
<path fill-rule="evenodd" clip-rule="evenodd" d="M293.619 1916.04L392.042 1916.04L392.042 1917.04L293.619 1917.04L293.619 1916.04Z" fill="#EDD257"/>
<rect x="461" y="2276" width="5" height="5" fill="white"/>
<rect x="461" y="2840" width="5" height="5" fill="white"/>
<rect y="2276" width="5" height="5" fill="white"/>
<rect y="2840" width="5" height="5" fill="white"/>
<circle cx="76.7644" cy="2485.58" r="16.7644" fill="#EDD257"/>
<path d="M78.8401 2486.36H80.1223V2487.32H78.8401V2489.47H77.6594V2487.32H73.4509V2486.63L77.5896 2480.23H78.8401V2486.36ZM74.7839 2486.36H77.6594V2481.83L77.5198 2482.09L74.7839 2486.36Z" fill="#333333"/>
<circle cx="239" cy="2468.28" r="4.86707" fill="#EDD257"/>
<path fill-rule="evenodd" clip-rule="evenodd" d="M238.459 2468.82L88.1209 2487.2L87.9995 2486.21L238.338 2467.82L238.459 2468.82Z" fill="#EDD257"/>
<rect x="461" y="2845" width="5" height="5" fill="white"/>
<rect x="461" y="3409" width="5" height="5" fill="white"/>
<rect y="2845" width="5" height="5" fill="white"/>
<rect y="3409" width="5" height="5" fill="white"/>
<circle cx="401.236" cy="3132.45" r="16.7644" fill="#EDD257"/>
<path d="M398.893 3132.71L399.363 3128.1H404.098V3129.19H400.36L400.08 3131.71C400.533 3131.44 401.047 3131.31 401.623 3131.31C402.465 3131.31 403.134 3131.58 403.629 3132.14C404.124 3132.7 404.371 3133.45 404.371 3134.4C404.371 3135.35 404.113 3136.1 403.597 3136.65C403.085 3137.2 402.368 3137.47 401.445 3137.47C400.628 3137.47 399.962 3137.24 399.446 3136.79C398.929 3136.34 398.635 3135.71 398.563 3134.91H399.674C399.746 3135.44 399.934 3135.84 400.239 3136.11C400.544 3136.38 400.946 3136.51 401.445 3136.51C401.991 3136.51 402.418 3136.32 402.727 3135.95C403.04 3135.58 403.197 3135.07 403.197 3134.41C403.197 3133.79 403.028 3133.3 402.689 3132.92C402.355 3132.55 401.908 3132.36 401.35 3132.36C400.838 3132.36 400.436 3132.47 400.144 3132.7L399.833 3132.95L398.893 3132.71Z" fill="#333333"/>
<circle cx="334.178" cy="3132.45" r="4.86707" fill="#EDD257"/>
<path fill-rule="evenodd" clip-rule="evenodd" d="M335.801 3132.91L392.042 3131.91L392.042 3132.91L335.801 3133.91L335.801 3132.91Z" fill="#EDD257"/>
<rect x="461" y="3414" width="5" height="5" fill="white"/>
<rect x="461" y="3978" width="5" height="5" fill="white"/>
<rect y="3414" width="5" height="5" fill="white"/>
<rect y="3978" width="5" height="5" fill="white"/>
<circle cx="301.731" cy="3441.88" r="16.7644" fill="#EDD257"/>
<path d="M303.458 3436.52V3437.51H303.242C302.328 3437.53 301.6 3437.8 301.058 3438.32C300.517 3438.85 300.204 3439.59 300.119 3440.54C300.606 3439.98 301.27 3439.7 302.112 3439.7C302.916 3439.7 303.557 3439.99 304.035 3440.55C304.518 3441.12 304.759 3441.85 304.759 3442.75C304.759 3443.7 304.499 3444.46 303.978 3445.03C303.462 3445.61 302.768 3445.89 301.896 3445.89C301.012 3445.89 300.295 3445.55 299.744 3444.88C299.194 3444.19 298.919 3443.32 298.919 3442.25V3441.8C298.919 3440.1 299.281 3438.8 300.005 3437.9C300.733 3437 301.814 3436.54 303.248 3436.52H303.458ZM301.915 3440.68C301.513 3440.68 301.143 3440.8 300.804 3441.04C300.466 3441.28 300.231 3441.59 300.1 3441.95V3442.38C300.1 3443.14 300.271 3443.76 300.614 3444.22C300.957 3444.69 301.384 3444.92 301.896 3444.92C302.425 3444.92 302.84 3444.73 303.14 3444.34C303.445 3443.95 303.597 3443.44 303.597 3442.81C303.597 3442.17 303.443 3441.66 303.134 3441.27C302.829 3440.88 302.423 3440.68 301.915 3440.68Z" fill="#333333"/>
<circle cx="328.77" cy="3521.91" r="4.86707" fill="#EDD257"/>
<circle cx="253.06" cy="3544.63" r="4.86707" fill="#EDD257"/>
<circle cx="266.867" cy="3537.87" r="4.86707" fill="#EDD257"/>
<path fill-rule="evenodd" clip-rule="evenodd" d="M328.23 3522.45L306.598 3449.99L307.556 3449.7L329.188 3522.17L328.23 3522.45Z" fill="#EDD257"/>
<path fill-rule="evenodd" clip-rule="evenodd" d="M252.52 3544.09L294.701 3449.99L295.614 3450.4L253.432 3544.49L252.52 3544.09Z" fill="#EDD257"/>
<path fill-rule="evenodd" clip-rule="evenodd" d="M266.163 3538.55L264 3518L264.995 3517.9L267.158 3538.45L266.163 3538.55Z" fill="#EDD257"/>
<rect x="461" y="3983" width="5" height="5" fill="white"/>
<rect x="461" y="4547" width="5" height="5" fill="white"/>
<rect y="3983" width="5" height="5" fill="white"/>
<rect y="4547" width="5" height="5" fill="white"/>
<circle cx="401.236" cy="4341.84" r="16.7644" fill="#EDD257"/>
<circle cx="76.7644" cy="4331.02" r="16.7644" fill="#EDD257"/>
<path d="M404.321 4338.14L400.493 4346.72H399.261L403.076 4338.45H398.074V4337.48H404.321V4338.14Z" fill="#333333"/>
<path d="M80.2461 4327.66L76.4185 4336.24H75.187L79.002 4327.96H74V4327H80.2461V4327.66Z" fill="#333333"/>
<circle cx="310.384" cy="4291" r="4.86707" fill="#EDD257"/>
<circle cx="317.955" cy="4344" r="4.86707" fill="#EDD257"/>
<circle cx="324.444" cy="4402.41" r="4.86707" fill="#EDD257"/>
<circle cx="149.23" cy="4399.16" r="4.86707" fill="#EDD257"/>
<circle cx="153.556" cy="4347.25" r="4.86707" fill="#EDD257"/>
<circle cx="153.556" cy="4286.68" r="4.86707" fill="#EDD257"/>
<circle cx="280.1" cy="4222.86" r="4.86707" fill="#EDD257"/>
<path fill-rule="evenodd" clip-rule="evenodd" d="M325 4402.16L394.221 4347L394.844 4347.78L325.623 4402.94L325 4402.16Z" fill="#EDD257"/>
<path fill-rule="evenodd" clip-rule="evenodd" d="M318.496 4343.46H387.716V4344.46H318.496V4343.46Z" fill="#EDD257"/>
<path fill-rule="evenodd" clip-rule="evenodd" d="M309.843 4291.54L394.206 4335.89L393.74 4336.77L309.378 4292.43L309.843 4291.54Z" fill="#EDD257"/>
<path fill-rule="evenodd" clip-rule="evenodd" d="M280.599 4223.41L310.301 4291.89L309.384 4292.28L279.682 4223.81L280.599 4223.41Z" fill="#EDD257"/>
<path fill-rule="evenodd" clip-rule="evenodd" d="M150.852 4346.7L87.0392 4333.73L87.2385 4332.75L151.051 4345.72L150.852 4346.7Z" fill="#EDD257"/>
<path fill-rule="evenodd" clip-rule="evenodd" d="M150.852 4287.22L85.9579 4326.15L85.4434 4325.3L150.338 4286.36L150.852 4287.22Z" fill="#EDD257"/>
<path fill-rule="evenodd" clip-rule="evenodd" d="M150.852 4400.78L82.7129 4341.3L83.3706 4340.54L151.51 4400.03L150.852 4400.78Z" fill="#EDD257"/>
<rect x="461" y="4552" width="5" height="5" fill="white"/>
<rect x="461" y="5116" width="5" height="5" fill="white"/>
<rect y="4552" width="5" height="5" fill="white"/>
<rect y="5116" width="5" height="5" fill="white"/>
<circle cx="76.7644" cy="4830.8" r="16.7644" fill="#EDD257"/>
<path d="M79.4875 4828.86C79.4875 4829.32 79.3648 4829.73 79.1194 4830.09C78.8782 4830.45 78.5502 4830.73 78.1355 4830.94C78.6179 4831.14 78.9988 4831.44 79.2781 4831.84C79.5616 4832.24 79.7034 4832.69 79.7034 4833.19C79.7034 4833.99 79.4325 4834.63 78.8909 4835.11C78.3534 4835.58 77.6446 4835.82 76.7644 4835.82C75.8757 4835.82 75.1627 4835.58 74.6252 4835.11C74.092 4834.63 73.8254 4833.99 73.8254 4833.19C73.8254 4832.7 73.9609 4832.24 74.2317 4831.84C74.5068 4831.44 74.8855 4831.14 75.3679 4830.93C74.9574 4830.73 74.6337 4830.44 74.3967 4830.08C74.1597 4829.72 74.0413 4829.32 74.0413 4828.86C74.0413 4828.08 74.2909 4827.46 74.7903 4827.01C75.2896 4826.55 75.9477 4826.32 76.7644 4826.32C77.5769 4826.32 78.2328 4826.55 78.7322 4827.01C79.2358 4827.46 79.4875 4828.08 79.4875 4828.86ZM78.5291 4833.17C78.5291 4832.65 78.364 4832.23 78.0339 4831.91C77.7081 4831.58 77.2807 4831.42 76.7517 4831.42C76.2227 4831.42 75.7974 4831.58 75.4758 4831.9C75.1584 4832.22 74.9998 4832.64 74.9998 4833.17C74.9998 4833.69 75.1542 4834.11 75.4631 4834.41C75.7763 4834.71 76.21 4834.86 76.7644 4834.86C77.3145 4834.86 77.7462 4834.71 78.0593 4834.41C78.3725 4834.1 78.5291 4833.69 78.5291 4833.17ZM76.7644 4827.29C76.3031 4827.29 75.9286 4827.43 75.6409 4827.72C75.3573 4828 75.2156 4828.39 75.2156 4828.88C75.2156 4829.35 75.3552 4829.73 75.6345 4830.02C75.9181 4830.31 76.2947 4830.45 76.7644 4830.45C77.2341 4830.45 77.6086 4830.31 77.8879 4830.02C78.1715 4829.73 78.3132 4829.35 78.3132 4828.88C78.3132 4828.41 78.1672 4828.03 77.8752 4827.73C77.5833 4827.43 77.213 4827.29 76.7644 4827.29Z" fill="#333333"/>
<circle cx="186.003" cy="4832.96" r="4.86707" fill="#EDD257"/>
<path fill-rule="evenodd" clip-rule="evenodd" d="M185.462 4832.42H85.9578V4831.42H185.462V4832.42Z" fill="#EDD257"/>
<rect x="461" y="5121" width="5" height="5" fill="white"/>
<rect x="461" y="5685" width="5" height="5" fill="white"/>
<rect y="5121" width="5" height="5" fill="white"/>
<rect y="5685" width="5" height="5" fill="white"/>
<circle cx="158.964" cy="5644.24" r="16.7644" fill="#EDD257"/>
<path d="M161.583 5645.06C161.337 5645.35 161.043 5645.59 160.7 5645.77C160.362 5645.94 159.989 5646.03 159.583 5646.03C159.05 5646.03 158.584 5645.9 158.187 5645.64C157.793 5645.38 157.488 5645.01 157.272 5644.53C157.057 5644.06 156.949 5643.53 156.949 5642.95C156.949 5642.34 157.065 5641.78 157.298 5641.28C157.535 5640.79 157.869 5640.41 158.301 5640.15C158.732 5639.89 159.236 5639.75 159.812 5639.75C160.726 5639.75 161.445 5640.1 161.97 5640.78C162.499 5641.46 162.763 5642.39 162.763 5643.58V5643.92C162.763 5645.72 162.408 5647.03 161.697 5647.86C160.986 5648.69 159.913 5649.11 158.479 5649.13H158.25V5648.14H158.498C159.467 5648.12 160.211 5647.87 160.732 5647.38C161.252 5646.89 161.536 5646.12 161.583 5645.06ZM159.773 5645.06C160.167 5645.06 160.529 5644.94 160.859 5644.7C161.193 5644.46 161.437 5644.16 161.589 5643.8V5643.33C161.589 5642.56 161.422 5641.94 161.087 5641.46C160.753 5640.97 160.33 5640.73 159.818 5640.73C159.302 5640.73 158.887 5640.93 158.574 5641.33C158.261 5641.72 158.104 5642.24 158.104 5642.89C158.104 5643.52 158.254 5644.04 158.555 5644.45C158.859 5644.86 159.266 5645.06 159.773 5645.06Z" fill="#333333"/>
<circle cx="158.964" cy="5590.16" r="4.86707" fill="#EDD257"/>
<path fill-rule="evenodd" clip-rule="evenodd" d="M159.504 5590.7L160.504 5632.88H159.504L158.504 5590.7H159.504Z" fill="#EDD257"/>
<rect x="461" y="5690" width="5" height="5" fill="white"/>
<rect x="461" y="6254" width="5" height="5" fill="white"/>
<rect y="5690" width="5" height="5" fill="white"/>
<rect y="6254" width="5" height="5" fill="white"/>
<circle cx="261.713" cy="6213.24" r="16.7644" fill="#EDD257"/>
<path d="M259.041 6218.12H257.86V6210.3L255.492 6211.17V6210.1L258.856 6208.84H259.041V6218.12Z" fill="#333333"/>
<path d="M268.276 6214.18C268.276 6215.56 268.042 6216.58 267.572 6217.25C267.102 6217.92 266.368 6218.25 265.369 6218.25C264.383 6218.25 263.653 6217.92 263.179 6217.27C262.705 6216.62 262.46 6215.64 262.443 6214.34V6212.77C262.443 6211.41 262.678 6210.4 263.147 6209.74C263.617 6209.08 264.354 6208.75 265.356 6208.75C266.351 6208.75 267.083 6209.07 267.553 6209.71C268.022 6210.35 268.264 6211.33 268.276 6212.66V6214.18ZM267.102 6212.58C267.102 6211.58 266.962 6210.86 266.683 6210.4C266.404 6209.95 265.962 6209.72 265.356 6209.72C264.756 6209.72 264.318 6209.95 264.042 6210.4C263.767 6210.85 263.626 6211.55 263.617 6212.49V6214.37C263.617 6215.36 263.761 6216.1 264.049 6216.58C264.341 6217.05 264.781 6217.29 265.369 6217.29C265.949 6217.29 266.378 6217.07 266.658 6216.62C266.941 6216.17 267.089 6215.46 267.102 6214.5V6212.58Z" fill="#333333"/>
<circle cx="204.39" cy="6159.16" r="4.86707" fill="#EDD257"/>
<path fill-rule="evenodd" clip-rule="evenodd" d="M206.012 6159.7L251.438 6208.37L250.707 6209.05L205.281 6160.38L206.012 6159.7Z" fill="#EDD257"/>
<rect x="461" y="6259" width="5" height="5" fill="white"/>
<rect x="461" y="6823" width="5" height="5" fill="white"/>
<rect y="6259" width="5" height="5" fill="white"/>
<rect y="6823" width="5" height="5" fill="white"/>
<circle cx="76.7644" cy="6680.57" r="16.7644" fill="#EDD257"/>
<path d="M74.092 6685.46H72.9114V6677.63L70.5437 6678.5V6677.43L73.908 6676.17H74.092V6685.46Z" fill="#333333"/>
<path d="M81.3918 6685.46H80.2112V6677.63L77.8435 6678.5V6677.43L81.2078 6676.17H81.3918V6685.46Z" fill="#333333"/>
<circle cx="153.556" cy="6702.2" r="4.86707" fill="#EDD257"/>
<circle cx="145.985" cy="6685.98" r="4.86707" fill="#EDD257"/>
<path fill-rule="evenodd" clip-rule="evenodd" d="M145.444 6685.43L84.8762 6677.86L85.0002 6676.87L145.568 6684.44L145.444 6685.43Z" fill="#EDD257"/>
<path fill-rule="evenodd" clip-rule="evenodd" d="M154.097 6701.66L85.9577 6682.19L86.2324 6681.23L154.371 6700.7L154.097 6701.66Z" fill="#EDD257"/>
<rect x="461" width="5" height="5" fill="white"/>
<rect x="461" y="564" width="5" height="5" fill="white"/>
<rect width="5" height="5" fill="white"/>
<rect y="564" width="5" height="5" fill="white"/>
<circle cx="401.236" cy="134.952" r="16.7644" fill="#E0E0E0"/>
<circle cx="401.236" cy="209.58" r="16.7644" fill="#E0E0E0"/>
<circle cx="401.236" cy="287.453" r="16.7644" fill="#E0E0E0"/>
<circle cx="401.236" cy="358.837" r="16.7644" fill="#E0E0E0"/>
<circle cx="76.7644" cy="209.58" r="16.7644" fill="#E0E0E0"/>
<circle cx="76.7644" cy="278.8" r="16.7644" fill="#E0E0E0"/>
<circle cx="76.7644" cy="348.021" r="16.7644" fill="#E0E0E0"/>
<circle cx="76.7644" cy="421.568" r="16.7644" fill="#E0E0E0"/>
<circle cx="158.964" cy="523.236" r="16.7644" fill="#E0E0E0"/>
<circle cx="261.713" cy="523.236" r="16.7644" fill="#E0E0E0"/>
<circle cx="301.731" cy="27.8757" r="16.7644" fill="#E0E0E0"/>
<circle cx="228.184" cy="27.8757" r="16.7644" fill="#E0E0E0"/>
<path d="M404.409 138.84H398.354V137.996L401.553 134.441C402.027 133.903 402.353 133.468 402.531 133.133C402.712 132.795 402.803 132.446 402.803 132.086C402.803 131.604 402.657 131.208 402.365 130.899C402.073 130.59 401.684 130.436 401.198 130.436C400.614 130.436 400.159 130.603 399.833 130.937C399.511 131.267 399.35 131.728 399.35 132.321H398.176C398.176 131.47 398.449 130.783 398.995 130.258C399.545 129.733 400.279 129.471 401.198 129.471C402.057 129.471 402.736 129.697 403.235 130.15C403.734 130.598 403.984 131.197 403.984 131.946C403.984 132.856 403.404 133.939 402.245 135.196L399.769 137.881H404.409V138.84Z" fill="#333333"/>
<path d="M400.061 209.276H400.944C401.498 209.268 401.934 209.122 402.251 208.838C402.569 208.555 402.727 208.172 402.727 207.689C402.727 206.606 402.188 206.064 401.109 206.064C400.601 206.064 400.195 206.21 399.89 206.502C399.589 206.79 399.439 207.173 399.439 207.651H398.265C398.265 206.919 398.531 206.312 399.065 205.83C399.602 205.343 400.283 205.1 401.109 205.1C401.98 205.1 402.664 205.33 403.159 205.792C403.654 206.253 403.902 206.894 403.902 207.715C403.902 208.117 403.77 208.506 403.508 208.883C403.25 209.259 402.897 209.541 402.448 209.727C402.956 209.888 403.347 210.154 403.622 210.527C403.902 210.899 404.041 211.354 404.041 211.892C404.041 212.721 403.77 213.379 403.229 213.866C402.687 214.352 401.983 214.596 401.115 214.596C400.247 214.596 399.541 214.361 398.995 213.891C398.453 213.421 398.182 212.801 398.182 212.031H399.363C399.363 212.518 399.522 212.907 399.839 213.199C400.156 213.491 400.582 213.637 401.115 213.637C401.682 213.637 402.116 213.489 402.416 213.193C402.717 212.897 402.867 212.471 402.867 211.917C402.867 211.38 402.702 210.967 402.372 210.679C402.042 210.391 401.566 210.243 400.944 210.235H400.061V209.276Z" fill="#333333"/>
<path d="M398.893 287.708L399.363 283.1H404.098V284.185H400.36L400.08 286.705C400.533 286.438 401.047 286.305 401.623 286.305C402.465 286.305 403.134 286.584 403.629 287.143C404.124 287.697 404.371 288.449 404.371 289.396C404.371 290.349 404.113 291.1 403.597 291.65C403.085 292.196 402.368 292.469 401.445 292.469C400.628 292.469 399.962 292.242 399.446 291.79C398.929 291.337 398.635 290.71 398.563 289.911H399.674C399.746 290.44 399.934 290.84 400.239 291.11C400.544 291.377 400.946 291.51 401.445 291.51C401.991 291.51 402.418 291.324 402.727 290.952C403.04 290.579 403.197 290.065 403.197 289.409C403.197 288.791 403.028 288.296 402.689 287.924C402.355 287.547 401.908 287.359 401.35 287.359C400.838 287.359 400.436 287.471 400.144 287.695L399.833 287.949L398.893 287.708Z" fill="#333333"/>
<path d="M404.321 355.143L400.493 363.725H399.261L403.076 355.447H398.074V354.482H404.321V355.143Z" fill="#333333"/>
<path d="M78.8401 210.365H80.1223V211.323H78.8401V213.469H77.6594V211.323H73.4509V210.631L77.5896 204.227H78.8401V210.365ZM74.7839 210.365H77.6594V205.833L77.5198 206.086L74.7839 210.365Z" fill="#333333"/>
<path d="M79.4875 276.858C79.4875 277.32 79.3648 277.73 79.1194 278.09C78.8782 278.45 78.5502 278.731 78.1355 278.934C78.6179 279.141 78.9988 279.444 79.2781 279.842C79.5616 280.24 79.7034 280.69 79.7034 281.194C79.7034 281.994 79.4325 282.631 78.8909 283.104C78.3534 283.578 77.6446 283.815 76.7644 283.815C75.8757 283.815 75.1627 283.578 74.6252 283.104C74.092 282.626 73.8254 281.989 73.8254 281.194C73.8254 280.694 73.9609 280.244 74.2317 279.842C74.5068 279.44 74.8855 279.135 75.3679 278.928C74.9574 278.725 74.6337 278.443 74.3967 278.083C74.1597 277.724 74.0413 277.315 74.0413 276.858C74.0413 276.08 74.2909 275.462 74.7903 275.005C75.2896 274.548 75.9477 274.319 76.7644 274.319C77.5769 274.319 78.2328 274.548 78.7322 275.005C79.2358 275.462 79.4875 276.08 79.4875 276.858ZM78.5291 281.168C78.5291 280.652 78.364 280.231 78.0339 279.905C77.7081 279.579 77.2807 279.417 76.7517 279.417C76.2227 279.417 75.7974 279.577 75.4758 279.899C75.1584 280.221 74.9998 280.644 74.9998 281.168C74.9998 281.693 75.1542 282.106 75.4631 282.406C75.7763 282.707 76.21 282.857 76.7644 282.857C77.3145 282.857 77.7462 282.707 78.0593 282.406C78.3725 282.102 78.5291 281.689 78.5291 281.168ZM76.7644 275.284C76.3031 275.284 75.9286 275.428 75.6409 275.716C75.3573 275.999 75.2156 276.387 75.2156 276.877C75.2156 277.347 75.3552 277.728 75.6345 278.02C75.9181 278.308 76.2947 278.452 76.7644 278.452C77.2341 278.452 77.6086 278.308 77.8879 278.02C78.1715 277.728 78.3132 277.347 78.3132 276.877C78.3132 276.408 78.1672 276.025 77.8752 275.729C77.5833 275.432 77.213 275.284 76.7644 275.284Z" fill="#333333"/>
<path d="M80.2461 344.66L76.4185 353.242H75.187L79.002 344.965H74V344H80.2461V344.66Z" fill="#333333"/>
<path d="M74.092 426.457H72.9114V418.63L70.5437 419.5V418.433L73.908 417.17H74.092V426.457Z" fill="#333333"/>
<path d="M81.3918 426.457H80.2112V418.63L77.8435 419.5V418.433L81.2078 417.17H81.3918V426.457Z" fill="#333333"/>
<path d="M161.583 524.062C161.337 524.354 161.043 524.588 160.7 524.766C160.362 524.944 159.989 525.033 159.583 525.033C159.05 525.033 158.584 524.902 158.187 524.639C157.793 524.377 157.488 524.009 157.272 523.535C157.057 523.056 156.949 522.53 156.949 521.954C156.949 521.336 157.065 520.78 157.298 520.285C157.535 519.79 157.869 519.411 158.301 519.148C158.732 518.886 159.236 518.755 159.812 518.755C160.726 518.755 161.445 519.098 161.97 519.783C162.499 520.465 162.763 521.396 162.763 522.576V522.919C162.763 524.717 162.408 526.031 161.697 526.861C160.986 527.686 159.913 528.109 158.479 528.13H158.25V527.14H158.498C159.467 527.123 160.211 526.871 160.732 526.385C161.252 525.894 161.536 525.119 161.583 524.062ZM159.773 524.062C160.167 524.062 160.529 523.941 160.859 523.7C161.193 523.458 161.437 523.16 161.589 522.805V522.335C161.589 521.565 161.422 520.938 161.087 520.456C160.753 519.974 160.33 519.732 159.818 519.732C159.302 519.732 158.887 519.931 158.574 520.329C158.261 520.723 158.104 521.243 158.104 521.891C158.104 522.521 158.254 523.042 158.555 523.452C158.859 523.858 159.266 524.062 159.773 524.062Z" fill="#333333"/>
<path d="M259.041 528.124H257.86V520.297L255.492 521.167V520.101L258.856 518.837H259.041V528.124Z" fill="#333333"/>
<path d="M268.276 524.182C268.276 525.557 268.042 526.579 267.572 527.248C267.102 527.917 266.368 528.251 265.369 528.251C264.383 528.251 263.653 527.925 263.179 527.273C262.705 526.618 262.46 525.64 262.443 524.341V522.773C262.443 521.415 262.678 520.405 263.147 519.745C263.617 519.085 264.354 518.755 265.356 518.755C266.351 518.755 267.083 519.074 267.553 519.713C268.022 520.348 268.264 521.33 268.276 522.659V524.182ZM267.102 522.576C267.102 521.582 266.962 520.858 266.683 520.405C266.404 519.948 265.962 519.72 265.356 519.72C264.756 519.72 264.318 519.946 264.042 520.399C263.767 520.852 263.626 521.548 263.617 522.487V524.366C263.617 525.365 263.761 526.103 264.049 526.582C264.341 527.056 264.781 527.292 265.369 527.292C265.949 527.292 266.378 527.068 266.658 526.62C266.941 526.171 267.089 525.464 267.102 524.5V522.576Z" fill="#333333"/>
<path d="M303.458 22.5156V23.5122H303.242C302.328 23.5291 301.6 23.8 301.058 24.3247C300.517 24.8494 300.204 25.5879 300.119 26.54C300.606 25.9814 301.27 25.7021 302.112 25.7021C302.916 25.7021 303.557 25.9857 304.035 26.5527C304.518 27.1198 304.759 27.8519 304.759 28.749C304.759 29.7012 304.499 30.4629 303.978 31.0342C303.462 31.6055 302.768 31.8911 301.896 31.8911C301.012 31.8911 300.295 31.5526 299.744 30.8755C299.194 30.1942 298.919 29.3182 298.919 28.2476V27.7969C298.919 26.0957 299.281 24.7965 300.005 23.8994C300.733 22.998 301.814 22.5368 303.248 22.5156H303.458ZM301.915 26.6797C301.513 26.6797 301.143 26.8003 300.804 27.0415C300.466 27.2827 300.231 27.5853 300.1 27.9492V28.3809C300.1 29.1426 300.271 29.7562 300.614 30.2217C300.957 30.6872 301.384 30.9199 301.896 30.9199C302.425 30.9199 302.84 30.7253 303.14 30.3359C303.445 29.9466 303.597 29.4367 303.597 28.8062C303.597 28.1714 303.443 27.6593 303.134 27.27C302.829 26.8765 302.423 26.6797 301.915 26.6797Z" fill="#333333"/>
<path d="M229.162 32.7642H227.981V24.9375L225.614 25.8071V24.7407L228.978 23.4775H229.162V32.7642Z" fill="#333333"/>
<circle cx="328.77" cy="107.912" r="4.86707" fill="#E0E0E0"/>
<circle cx="253.06" cy="130.626" r="4.86707" fill="#E0E0E0"/>
<circle cx="266.867" cy="123.867" r="4.86707" fill="#E0E0E0"/>
<circle cx="239" cy="146.849" r="4.86707" fill="#E0E0E0"/>
<circle cx="279.018" cy="172.807" r="4.86707" fill="#E0E0E0"/>
<circle cx="291.997" cy="208.499" r="4.86707" fill="#E0E0E0"/>
<circle cx="310.384" cy="308.003" r="4.86707" fill="#E0E0E0"/>
<circle cx="334.178" cy="287.453" r="4.86707" fill="#E0E0E0"/>
<circle cx="317.955" cy="361" r="4.86707" fill="#E0E0E0"/>
<circle cx="324.444" cy="419.405" r="4.86707" fill="#E0E0E0"/>
<circle cx="204.39" cy="469.157" r="4.86707" fill="#E0E0E0"/>
<circle cx="158.964" cy="469.157" r="4.86707" fill="#E0E0E0"/>
<circle cx="153.556" cy="443.199" r="4.86707" fill="#E0E0E0"/>
<circle cx="145.985" cy="426.975" r="4.86707" fill="#E0E0E0"/>
<circle cx="149.23" cy="416.16" r="4.86707" fill="#E0E0E0"/>
<circle cx="153.556" cy="364.245" r="4.86707" fill="#E0E0E0"/>
<circle cx="153.556" cy="303.677" r="4.86707" fill="#E0E0E0"/>
<circle cx="186.003" cy="280.964" r="4.86707" fill="#E0E0E0"/>
<circle cx="280.1" cy="239.864" r="4.86707" fill="#E0E0E0"/>
<circle cx="239" cy="192.275" r="4.86707" fill="#E0E0E0"/>
<path fill-rule="evenodd" clip-rule="evenodd" d="M325 419.16L394.221 364L394.844 364.782L325.623 419.942L325 419.16Z" fill="#E0E0E0"/>
<path fill-rule="evenodd" clip-rule="evenodd" d="M238.459 145.227L227.643 38.1513L228.638 38.0508L239.454 145.126L238.459 145.227Z" fill="#E0E0E0"/>
<path fill-rule="evenodd" clip-rule="evenodd" d="M328.23 108.453L306.598 35.9882L307.556 35.7021L329.188 108.167L328.23 108.453Z" fill="#E0E0E0"/>
<path fill-rule="evenodd" clip-rule="evenodd" d="M252.52 130.085L294.701 35.9884L295.614 36.3975L253.432 130.494L252.52 130.085Z" fill="#E0E0E0"/>
<path fill-rule="evenodd" clip-rule="evenodd" d="M266.163 124.55L264 104L264.995 103.896L267.158 124.445L266.163 124.55Z" fill="#E0E0E0"/>
<path fill-rule="evenodd" clip-rule="evenodd" d="M278.478 173.347L393.124 137.656L393.421 138.61L278.775 174.302L278.478 173.347Z" fill="#E0E0E0"/>
<path fill-rule="evenodd" clip-rule="evenodd" d="M293.619 209.039L392.042 209.039L392.042 210.039L293.619 210.039L293.619 209.039Z" fill="#E0E0E0"/>
<path fill-rule="evenodd" clip-rule="evenodd" d="M335.801 287.912L392.042 286.912L392.042 287.912L335.801 288.912L335.801 287.912Z" fill="#E0E0E0"/>
<path fill-rule="evenodd" clip-rule="evenodd" d="M318.496 360.459H387.716V361.459H318.496V360.459Z" fill="#E0E0E0"/>
<path fill-rule="evenodd" clip-rule="evenodd" d="M309.843 308.544L394.206 352.888L393.74 353.773L309.378 309.429L309.843 308.544Z" fill="#E0E0E0"/>
<path fill-rule="evenodd" clip-rule="evenodd" d="M280.599 240.413L310.301 308.886L309.384 309.284L279.682 240.811L280.599 240.413Z" fill="#E0E0E0"/>
<path fill-rule="evenodd" clip-rule="evenodd" d="M238.459 192.816L88.1209 211.203L87.9995 210.21L238.338 191.823L238.459 192.816Z" fill="#E0E0E0"/>
<path fill-rule="evenodd" clip-rule="evenodd" d="M185.462 280.423H85.9578V279.423H185.462V280.423Z" fill="#E0E0E0"/>
<path fill-rule="evenodd" clip-rule="evenodd" d="M150.852 363.704L87.0392 350.725L87.2385 349.745L151.051 362.724L150.852 363.704Z" fill="#E0E0E0"/>
<path fill-rule="evenodd" clip-rule="evenodd" d="M150.852 304.218L85.9579 343.154L85.4434 342.297L150.338 303.36L150.852 304.218Z" fill="#E0E0E0"/>
<path fill-rule="evenodd" clip-rule="evenodd" d="M150.852 417.783L82.7129 358.296L83.3706 357.543L151.51 417.029L150.852 417.783Z" fill="#E0E0E0"/>
<path fill-rule="evenodd" clip-rule="evenodd" d="M159.504 469.698L160.504 511.879L159.504 511.879L158.504 469.698L159.504 469.698Z" fill="#E0E0E0"/>
<path fill-rule="evenodd" clip-rule="evenodd" d="M145.444 426.435L84.8762 418.864L85.0002 417.872L145.568 425.443L145.444 426.435Z" fill="#E0E0E0"/>
<path fill-rule="evenodd" clip-rule="evenodd" d="M154.097 442.658L85.9577 423.19L86.2324 422.229L154.371 441.697L154.097 442.658Z" fill="#E0E0E0"/>
<path fill-rule="evenodd" clip-rule="evenodd" d="M206.012 469.698L251.438 518.368L250.707 519.051L205.281 470.38L206.012 469.698Z" fill="#E0E0E0"/>
</svg>
