<svg width="466" height="6259" viewBox="0 0 466 6259" fill="none" xmlns="http://www.w3.org/2000/svg">
<rect x="461" y="569" width="5" height="5" fill="white"/>
<rect x="461" y="1133" width="5" height="5" fill="white"/>
<rect y="569" width="5" height="5" fill="white"/>
<rect y="1133" width="5" height="5" fill="white"/>
<circle cx="74.7644" cy="794.764" r="16.7644" fill="#EDD257"/>
<path d="M75.5107 798.888H74.3301V791.062L71.9624 791.931V790.865L75.3267 789.602H75.5107V798.888Z" fill="#333333"/>
<path fill-rule="evenodd" clip-rule="evenodd" d="M235 737L80.9999 795L80.6475 794.064L234.647 736.064L235 737Z" fill="#EDD257"/>
<circle cx="235.867" cy="735.867" r="4.86707" fill="#EDD257"/>
<rect x="461" y="1138" width="5" height="5" fill="white"/>
<rect x="461" y="1702" width="5" height="5" fill="white"/>
<rect y="1138" width="5" height="5" fill="white"/>
<rect y="1702" width="5" height="5" fill="white"/>
<circle cx="403.764" cy="1298.76" r="16.7644" fill="#EDD257"/>
<path d="M406.707 1302.89H400.651V1302.04L403.851 1298.49C404.325 1297.95 404.65 1297.52 404.828 1297.18C405.01 1296.84 405.101 1296.49 405.101 1296.13C405.101 1295.65 404.955 1295.26 404.663 1294.95C404.371 1294.64 403.982 1294.48 403.495 1294.48C402.911 1294.48 402.456 1294.65 402.13 1294.99C401.809 1295.32 401.648 1295.78 401.648 1296.37H400.474C400.474 1295.52 400.747 1294.83 401.292 1294.31C401.843 1293.78 402.577 1293.52 403.495 1293.52C404.354 1293.52 405.033 1293.75 405.533 1294.2C406.032 1294.65 406.282 1295.25 406.282 1296C406.282 1296.9 405.702 1297.99 404.542 1299.25L402.067 1301.93H406.707V1302.89Z" fill="#333333"/>
<path fill-rule="evenodd" clip-rule="evenodd" d="M391 1299L302 1299L302 1298L391 1298L391 1299Z" fill="#EDD257"/>
<circle cx="299.867" cy="1297.87" r="4.86707" fill="#EDD257"/>
<rect x="461" y="1707" width="5" height="5" fill="white"/>
<rect x="461" y="2271" width="5" height="5" fill="white"/>
<rect y="1707" width="5" height="5" fill="white"/>
<rect y="2271" width="5" height="5" fill="white"/>
<circle cx="403.764" cy="1925.76" r="16.7644" fill="#EDD257"/>
<path d="M403.359 1925.7H404.241C404.796 1925.69 405.231 1925.54 405.549 1925.26C405.866 1924.97 406.025 1924.59 406.025 1924.11C406.025 1923.03 405.485 1922.48 404.406 1922.48C403.898 1922.48 403.492 1922.63 403.188 1922.92C402.887 1923.21 402.737 1923.59 402.737 1924.07H401.562C401.562 1923.34 401.829 1922.73 402.362 1922.25C402.9 1921.76 403.581 1921.52 404.406 1921.52C405.278 1921.52 405.961 1921.75 406.457 1922.21C406.952 1922.67 407.199 1923.31 407.199 1924.13C407.199 1924.54 407.068 1924.93 406.806 1925.3C406.548 1925.68 406.194 1925.96 405.746 1926.15C406.253 1926.31 406.645 1926.57 406.92 1926.95C407.199 1927.32 407.339 1927.77 407.339 1928.31C407.339 1929.14 407.068 1929.8 406.526 1930.29C405.985 1930.77 405.28 1931.02 404.413 1931.02C403.545 1931.02 402.838 1930.78 402.292 1930.31C401.751 1929.84 401.48 1929.22 401.48 1928.45H402.661C402.661 1928.94 402.819 1929.33 403.137 1929.62C403.454 1929.91 403.879 1930.06 404.413 1930.06C404.98 1930.06 405.413 1929.91 405.714 1929.61C406.014 1929.32 406.165 1928.89 406.165 1928.34C406.165 1927.8 406 1927.39 405.669 1927.1C405.339 1926.81 404.863 1926.66 404.241 1926.65H403.359V1925.7Z" fill="#333333"/>
<path fill-rule="evenodd" clip-rule="evenodd" d="M391 1926L302 1926L302 1925L391 1925L391 1926Z" fill="#EDD257"/>
<circle cx="299.867" cy="1925.87" r="4.86707" fill="#EDD257"/>
<rect x="461" y="2276" width="5" height="5" fill="white"/>
<rect x="461" y="2840" width="5" height="5" fill="white"/>
<rect y="2276" width="5" height="5" fill="white"/>
<rect y="2840" width="5" height="5" fill="white"/>
<circle cx="403.764" cy="2367.76" r="16.7644" fill="#EDD257"/>
<path d="M405.609 2368.78H406.891V2369.74H405.609V2371.89H404.428V2369.74H400.22V2369.05L404.358 2362.65H405.609V2368.78ZM401.553 2368.78H404.428V2364.25L404.289 2364.51L401.553 2368.78Z" fill="#333333"/>
<path fill-rule="evenodd" clip-rule="evenodd" d="M395.041 2370L322 2378L321.891 2377.01L394.932 2369.01L395.041 2370Z" fill="#EDD257"/>
<circle cx="319.867" cy="2377.87" r="4.86707" fill="#EDD257"/>
<rect x="461" y="2845" width="5" height="5" fill="white"/>
<rect x="461" y="3409" width="5" height="5" fill="white"/>
<rect y="2845" width="5" height="5" fill="white"/>
<rect y="3409" width="5" height="5" fill="white"/>
<circle cx="403.764" cy="3146.76" r="16.7644" fill="#EDD257"/>
<path d="M401.191 3146.25L401.661 3141.65H406.396V3142.73H402.657L402.378 3145.25C402.831 3144.99 403.345 3144.85 403.92 3144.85C404.763 3144.85 405.431 3145.13 405.926 3145.69C406.421 3146.24 406.669 3147 406.669 3147.94C406.669 3148.9 406.411 3149.65 405.895 3150.2C405.382 3150.74 404.665 3151.02 403.743 3151.02C402.926 3151.02 402.259 3150.79 401.743 3150.34C401.227 3149.88 400.933 3149.26 400.861 3148.46H401.972C402.044 3148.99 402.232 3149.39 402.537 3149.66C402.841 3149.92 403.243 3150.06 403.743 3150.06C404.289 3150.06 404.716 3149.87 405.025 3149.5C405.338 3149.13 405.495 3148.61 405.495 3147.96C405.495 3147.34 405.325 3146.84 404.987 3146.47C404.653 3146.09 404.206 3145.91 403.647 3145.91C403.135 3145.91 402.733 3146.02 402.441 3146.24L402.13 3146.5L401.191 3146.25Z" fill="#333333"/>
<path fill-rule="evenodd" clip-rule="evenodd" d="M391 3147L336 3147L336 3146L391 3146L391 3147Z" fill="#EDD257"/>
<circle cx="334.867" cy="3146.87" r="4.86707" fill="#EDD257"/>
<rect x="461" y="3414" width="5" height="5" fill="white"/>
<rect x="461" y="3978" width="5" height="5" fill="white"/>
<rect y="3414" width="5" height="5" fill="white"/>
<rect y="3978" width="5" height="5" fill="white"/>
<circle cx="74.7644" cy="3566.76" r="16.7644" fill="#EDD257"/>
<path d="M76.2598 3561.64V3562.64H76.0439C75.1299 3562.65 74.402 3562.92 73.8604 3563.45C73.3187 3563.97 73.0055 3564.71 72.9209 3565.67C73.4076 3565.11 74.0719 3564.83 74.9141 3564.83C75.7181 3564.83 76.3592 3565.11 76.8374 3565.68C77.3198 3566.24 77.561 3566.98 77.561 3567.87C77.561 3568.83 77.3008 3569.59 76.7803 3570.16C76.264 3570.73 75.57 3571.02 74.6982 3571.02C73.8138 3571.02 73.0965 3570.68 72.5464 3570C71.9963 3569.32 71.7212 3568.44 71.7212 3567.37V3566.92C71.7212 3565.22 72.083 3563.92 72.8066 3563.02C73.5345 3562.12 74.6157 3561.66 76.0503 3561.64H76.2598ZM74.7173 3565.8C74.3153 3565.8 73.945 3565.93 73.6064 3566.17C73.2679 3566.41 73.033 3566.71 72.9019 3567.07V3567.51C72.9019 3568.27 73.0732 3568.88 73.416 3569.35C73.7588 3569.81 74.1862 3570.04 74.6982 3570.04C75.2272 3570.04 75.6419 3569.85 75.9424 3569.46C76.2471 3569.07 76.3994 3568.56 76.3994 3567.93C76.3994 3567.3 76.245 3566.78 75.936 3566.4C75.6313 3566 75.2251 3565.8 74.7173 3565.8Z" fill="#333333"/>
<path fill-rule="evenodd" clip-rule="evenodd" d="M257 3564L81.0001 3566L80.9888 3565L256.989 3563L257 3564Z" fill="#EDD257"/>
<path fill-rule="evenodd" clip-rule="evenodd" d="M257 3563L304 3544L304.375 3544.93L257.375 3563.93L257 3563Z" fill="#EDD257"/>
<circle cx="256.867" cy="3562.87" r="4.86707" fill="#EDD257"/>
<circle cx="304.867" cy="3542.87" r="4.86707" fill="#EDD257"/>
<rect x="461" y="4552" width="5" height="5" fill="white"/>
<rect x="461" y="5116" width="5" height="5" fill="white"/>
<rect y="4552" width="5" height="5" fill="white"/>
<rect y="5116" width="5" height="5" fill="white"/>
<circle cx="74.7644" cy="4827.76" r="16.7644" fill="#EDD257"/>
<path d="M77.2563 4825.06C77.2563 4825.52 77.1336 4825.93 76.8882 4826.29C76.647 4826.65 76.319 4826.93 75.9043 4827.13C76.3867 4827.34 76.7676 4827.64 77.0469 4828.04C77.3304 4828.44 77.4722 4828.89 77.4722 4829.39C77.4722 4830.19 77.2013 4830.83 76.6597 4831.3C76.1222 4831.78 75.4134 4832.02 74.5332 4832.02C73.6445 4832.02 72.9315 4831.78 72.394 4831.3C71.8608 4830.83 71.5942 4830.19 71.5942 4829.39C71.5942 4828.89 71.7297 4828.44 72.0005 4828.04C72.2756 4827.64 72.6543 4827.34 73.1367 4827.13C72.7262 4826.92 72.4025 4826.64 72.1655 4826.28C71.9285 4825.92 71.8101 4825.52 71.8101 4825.06C71.8101 4824.28 72.0597 4823.66 72.5591 4823.21C73.0584 4822.75 73.7165 4822.52 74.5332 4822.52C75.3457 4822.52 76.0016 4822.75 76.501 4823.21C77.0046 4823.66 77.2563 4824.28 77.2563 4825.06ZM76.2979 4829.37C76.2979 4828.85 76.1328 4828.43 75.8027 4828.11C75.4769 4827.78 75.0495 4827.62 74.5205 4827.62C73.9915 4827.62 73.5662 4827.78 73.2446 4828.1C72.9272 4828.42 72.7686 4828.84 72.7686 4829.37C72.7686 4829.89 72.923 4830.31 73.2319 4830.61C73.5451 4830.91 73.9788 4831.06 74.5332 4831.06C75.0833 4831.06 75.515 4830.91 75.8281 4830.61C76.1413 4830.3 76.2979 4829.89 76.2979 4829.37ZM74.5332 4823.48C74.0719 4823.48 73.6974 4823.63 73.4097 4823.92C73.1261 4824.2 72.9844 4824.59 72.9844 4825.08C72.9844 4825.55 73.124 4825.93 73.4033 4826.22C73.6868 4826.51 74.0635 4826.65 74.5332 4826.65C75.0029 4826.65 75.3774 4826.51 75.6567 4826.22C75.9403 4825.93 76.082 4825.55 76.082 4825.08C76.082 4824.61 75.936 4824.22 75.644 4823.93C75.3521 4823.63 74.9818 4823.48 74.5332 4823.48Z" fill="#333333"/>
<path fill-rule="evenodd" clip-rule="evenodd" d="M198 4829L87 4829L87 4828L198 4828L198 4829Z" fill="#EDD257"/>
<circle cx="197.867" cy="4827.87" r="4.86707" fill="#EDD257"/>
<rect x="461" y="5121" width="5" height="5" fill="white"/>
<rect x="461" y="5685" width="5" height="5" fill="white"/>
<rect y="5121" width="5" height="5" fill="white"/>
<rect y="5685" width="5" height="5" fill="white"/>
<circle cx="171.764" cy="5654.76" r="16.7644" fill="#EDD257"/>
<path fill-rule="evenodd" clip-rule="evenodd" d="M173 5590L173 5658L172 5658L172 5590L173 5590Z" fill="#EDD257"/>
<path fill-rule="evenodd" clip-rule="evenodd" d="M134 5578L167.734 5655.94L166.816 5656.34L133.082 5578.4L134 5578Z" fill="#EDD257"/>
<circle cx="172.867" cy="5588.87" r="4.86707" fill="#EDD257"/>
<circle cx="132.867" cy="5576.87" r="4.86707" fill="#EDD257"/>
<path d="M174.119 5655.94C173.873 5656.23 173.579 5656.46 173.236 5656.64C172.898 5656.82 172.526 5656.91 172.119 5656.91C171.586 5656.91 171.121 5656.78 170.723 5656.52C170.329 5656.25 170.025 5655.88 169.809 5655.41C169.593 5654.93 169.485 5654.41 169.485 5653.83C169.485 5653.21 169.601 5652.66 169.834 5652.16C170.071 5651.67 170.405 5651.29 170.837 5651.02C171.269 5650.76 171.772 5650.63 172.348 5650.63C173.262 5650.63 173.981 5650.97 174.506 5651.66C175.035 5652.34 175.299 5653.27 175.299 5654.45V5654.79C175.299 5656.59 174.944 5657.91 174.233 5658.74C173.522 5659.56 172.449 5659.99 171.015 5660.01H170.786V5659.02H171.034C172.003 5659 172.748 5658.75 173.268 5658.26C173.789 5657.77 174.072 5657 174.119 5655.94ZM172.31 5655.94C172.703 5655.94 173.065 5655.82 173.395 5655.58C173.729 5655.33 173.973 5655.04 174.125 5654.68V5654.21C174.125 5653.44 173.958 5652.81 173.624 5652.33C173.289 5651.85 172.866 5651.61 172.354 5651.61C171.838 5651.61 171.423 5651.81 171.11 5652.21C170.797 5652.6 170.64 5653.12 170.64 5653.77C170.64 5654.4 170.79 5654.92 171.091 5655.33C171.396 5655.73 171.802 5655.94 172.31 5655.94Z" fill="#333333"/>
<rect x="461" y="5690" width="5" height="5" fill="white"/>
<rect x="461" y="6254" width="5" height="5" fill="white"/>
<rect y="5690" width="5" height="5" fill="white"/>
<rect y="6254" width="5" height="5" fill="white"/>
<circle cx="321.764" cy="6223.76" r="16.7644" fill="#EDD257"/>
<path d="M318.828 6229H317.647V6221.17L315.279 6222.04V6220.98L318.644 6219.71H318.828V6229Z" fill="#333333"/>
<path d="M328.063 6225.06C328.063 6226.43 327.829 6227.46 327.359 6228.12C326.889 6228.79 326.155 6229.13 325.156 6229.13C324.17 6229.13 323.44 6228.8 322.966 6228.15C322.492 6227.49 322.247 6226.52 322.23 6225.22V6223.65C322.23 6222.29 322.465 6221.28 322.935 6220.62C323.404 6219.96 324.141 6219.63 325.144 6219.63C326.138 6219.63 326.87 6219.95 327.34 6220.59C327.81 6221.22 328.051 6222.21 328.063 6223.53V6225.06ZM326.889 6223.45C326.889 6222.46 326.75 6221.73 326.47 6221.28C326.191 6220.82 325.749 6220.6 325.144 6220.6C324.543 6220.6 324.105 6220.82 323.83 6221.27C323.555 6221.73 323.413 6222.42 323.404 6223.36V6225.24C323.404 6226.24 323.548 6226.98 323.836 6227.46C324.128 6227.93 324.568 6228.17 325.156 6228.17C325.736 6228.17 326.166 6227.94 326.445 6227.5C326.728 6227.05 326.876 6226.34 326.889 6225.38V6223.45Z" fill="#333333"/>
<path fill-rule="evenodd" clip-rule="evenodd" d="M316 6220L191 6120L191.749 6119.34L316.749 6219.34L316 6220Z" fill="#EDD257"/>
<path fill-rule="evenodd" clip-rule="evenodd" d="M313 6222L158 6136L158.574 6135.18L313.574 6221.18L313 6222Z" fill="#EDD257"/>
<circle cx="190.867" cy="6118.87" r="4.86707" fill="#EDD257"/>
<circle cx="158.867" cy="6135.87" r="4.86707" fill="#EDD257"/>
<rect x="461" width="5" height="5" fill="white"/>
<rect x="461" y="564" width="5" height="5" fill="white"/>
<rect width="5" height="5" fill="white"/>
<rect y="564" width="5" height="5" fill="white"/>
<circle cx="74.7644" cy="152.764" r="16.7644" fill="#E0E0E0"/>
<path d="M76.2598 147.641V148.637H76.0439C75.1299 148.654 74.402 148.925 73.8604 149.45C73.3187 149.974 73.0055 150.713 72.9209 151.665C73.4076 151.106 74.0719 150.827 74.9141 150.827C75.7181 150.827 76.3592 151.111 76.8374 151.678C77.3198 152.245 77.561 152.977 77.561 153.874C77.561 154.826 77.3008 155.588 76.7803 156.159C76.264 156.73 75.57 157.016 74.6982 157.016C73.8138 157.016 73.0965 156.678 72.5464 156C71.9963 155.319 71.7212 154.443 71.7212 153.373V152.922C71.7212 151.221 72.083 149.922 72.8066 149.024C73.5345 148.123 74.6157 147.662 76.0503 147.641H76.2598ZM74.7173 151.805C74.3153 151.805 73.945 151.925 73.6064 152.167C73.2679 152.408 73.033 152.71 72.9019 153.074V153.506C72.9019 154.268 73.0732 154.881 73.416 155.347C73.7588 155.812 74.1862 156.045 74.6982 156.045C75.2272 156.045 75.6419 155.85 75.9424 155.461C76.2471 155.072 76.3994 154.562 76.3994 153.931C76.3994 153.296 76.245 152.784 75.936 152.395C75.6313 152.001 75.2251 151.805 74.7173 151.805Z" fill="#333333"/>
<circle cx="403.764" cy="91.7644" r="16.7644" fill="#E0E0E0"/>
<path d="M405.609 92.7847H406.891V93.7432H405.609V95.8887H404.428V93.7432H400.22V93.0513L404.358 86.6465H405.609V92.7847ZM401.553 92.7847H404.428V88.2524L404.289 88.5063L401.553 92.7847Z" fill="#333333"/>
<circle cx="403.764" cy="160.764" r="16.7644" fill="#E0E0E0"/>
<path d="M406.707 164.889H400.651V164.044L403.851 160.49C404.325 159.952 404.65 159.516 404.828 159.182C405.01 158.844 405.101 158.494 405.101 158.135C405.101 157.652 404.955 157.257 404.663 156.948C404.371 156.639 403.982 156.484 403.495 156.484C402.911 156.484 402.456 156.652 402.13 156.986C401.809 157.316 401.648 157.777 401.648 158.37H400.474C400.474 157.519 400.747 156.831 401.292 156.307C401.843 155.782 402.577 155.52 403.495 155.52C404.354 155.52 405.033 155.746 405.533 156.199C406.032 156.647 406.282 157.246 406.282 157.995C406.282 158.905 405.702 159.988 404.542 161.245L402.067 163.93H406.707V164.889Z" fill="#333333"/>
<circle cx="403.764" cy="218.764" r="16.7644" fill="#E0E0E0"/>
<path d="M403.359 218.696H404.241C404.796 218.688 405.231 218.542 405.549 218.258C405.866 217.975 406.025 217.592 406.025 217.109C406.025 216.026 405.485 215.484 404.406 215.484C403.898 215.484 403.492 215.63 403.188 215.922C402.887 216.21 402.737 216.593 402.737 217.071H401.562C401.562 216.339 401.829 215.732 402.362 215.25C402.9 214.763 403.581 214.52 404.406 214.52C405.278 214.52 405.961 214.75 406.457 215.211C406.952 215.673 407.199 216.314 407.199 217.135C407.199 217.537 407.068 217.926 406.806 218.303C406.548 218.679 406.194 218.961 405.746 219.147C406.253 219.308 406.645 219.574 406.92 219.947C407.199 220.319 407.339 220.774 407.339 221.312C407.339 222.141 407.068 222.799 406.526 223.286C405.985 223.772 405.28 224.016 404.413 224.016C403.545 224.016 402.838 223.781 402.292 223.311C401.751 222.841 401.48 222.221 401.48 221.451H402.661C402.661 221.938 402.819 222.327 403.137 222.619C403.454 222.911 403.879 223.057 404.413 223.057C404.98 223.057 405.413 222.909 405.714 222.613C406.014 222.317 406.165 221.891 406.165 221.337C406.165 220.799 406 220.387 405.669 220.099C405.339 219.811 404.863 219.663 404.241 219.655H403.359V218.696Z" fill="#333333"/>
<circle cx="403.764" cy="301.764" r="16.7644" fill="#E0E0E0"/>
<path d="M401.191 301.255L401.661 296.646H406.396V297.732H402.657L402.378 300.252C402.831 299.985 403.345 299.852 403.92 299.852C404.763 299.852 405.431 300.131 405.926 300.69C406.421 301.244 406.669 301.995 406.669 302.943C406.669 303.896 406.411 304.647 405.895 305.197C405.382 305.743 404.665 306.016 403.743 306.016C402.926 306.016 402.259 305.789 401.743 305.336C401.227 304.884 400.933 304.257 400.861 303.458H401.972C402.044 303.986 402.232 304.386 402.537 304.657C402.841 304.924 403.243 305.057 403.743 305.057C404.289 305.057 404.716 304.871 405.025 304.499C405.338 304.126 405.495 303.612 405.495 302.956C405.495 302.338 405.325 301.843 404.987 301.471C404.653 301.094 404.206 300.906 403.647 300.906C403.135 300.906 402.733 301.018 402.441 301.242L402.13 301.496L401.191 301.255Z" fill="#333333"/>
<circle cx="403.764" cy="368.764" r="16.7644" fill="#E0E0E0"/>
<path d="M407.618 365.307L403.791 373.889H402.559L406.374 365.611H401.372V364.646H407.618V365.307Z" fill="#333333"/>
<circle cx="74.7644" cy="275.764" r="16.7644" fill="#E0E0E0"/>
<path d="M77.2563 273.059C77.2563 273.52 77.1336 273.93 76.8882 274.29C76.647 274.65 76.319 274.931 75.9043 275.134C76.3867 275.342 76.7676 275.644 77.0469 276.042C77.3304 276.44 77.4722 276.89 77.4722 277.394C77.4722 278.194 77.2013 278.831 76.6597 279.305C76.1222 279.779 75.4134 280.016 74.5332 280.016C73.6445 280.016 72.9315 279.779 72.394 279.305C71.8608 278.826 71.5942 278.19 71.5942 277.394C71.5942 276.895 71.7297 276.444 72.0005 276.042C72.2756 275.64 72.6543 275.335 73.1367 275.128C72.7262 274.925 72.4025 274.643 72.1655 274.284C71.9285 273.924 71.8101 273.516 71.8101 273.059C71.8101 272.28 72.0597 271.662 72.5591 271.205C73.0584 270.748 73.7165 270.52 74.5332 270.52C75.3457 270.52 76.0016 270.748 76.501 271.205C77.0046 271.662 77.2563 272.28 77.2563 273.059ZM76.2979 277.369C76.2979 276.852 76.1328 276.431 75.8027 276.105C75.4769 275.78 75.0495 275.617 74.5205 275.617C73.9915 275.617 73.5662 275.778 73.2446 276.099C72.9272 276.421 72.7686 276.844 72.7686 277.369C72.7686 277.893 72.923 278.306 73.2319 278.606C73.5451 278.907 73.9788 279.057 74.5332 279.057C75.0833 279.057 75.515 278.907 75.8281 278.606C76.1413 278.302 76.2979 277.889 76.2979 277.369ZM74.5332 271.484C74.0719 271.484 73.6974 271.628 73.4097 271.916C73.1261 272.2 72.9844 272.587 72.9844 273.078C72.9844 273.547 73.124 273.928 73.4033 274.22C73.6868 274.508 74.0635 274.652 74.5332 274.652C75.0029 274.652 75.3774 274.508 75.6567 274.22C75.9403 273.928 76.082 273.547 76.082 273.078C76.082 272.608 75.936 272.225 75.644 271.929C75.3521 271.632 74.9818 271.484 74.5332 271.484Z" fill="#333333"/>
<circle cx="74.7644" cy="360.764" r="16.7644" fill="#E0E0E0"/>
<path d="M77.6182 357.307L73.7905 365.889H72.5591L76.374 357.611H71.3721V356.646H77.6182V357.307Z" fill="#333333"/>
<circle cx="171.764" cy="533.764" r="16.7644" fill="#E0E0E0"/>
<circle cx="321.764" cy="533.764" r="16.7644" fill="#E0E0E0"/>
<path d="M318.828 539H317.647V531.173L315.279 532.043V530.977L318.644 529.713H318.828V539Z" fill="#333333"/>
<path d="M328.063 535.058C328.063 536.433 327.829 537.455 327.359 538.124C326.889 538.793 326.155 539.127 325.156 539.127C324.17 539.127 323.44 538.801 322.966 538.149C322.492 537.493 322.247 536.516 322.23 535.217V533.649C322.23 532.291 322.465 531.281 322.935 530.621C323.404 529.961 324.141 529.631 325.144 529.631C326.138 529.631 326.87 529.95 327.34 530.589C327.81 531.224 328.051 532.206 328.063 533.535V535.058ZM326.889 533.452C326.889 532.458 326.75 531.734 326.47 531.281C326.191 530.824 325.749 530.596 325.144 530.596C324.543 530.596 324.105 530.822 323.83 531.275C323.555 531.728 323.413 532.424 323.404 533.363V535.242C323.404 536.241 323.548 536.979 323.836 537.458C324.128 537.931 324.568 538.168 325.156 538.168C325.736 538.168 326.166 537.944 326.445 537.496C326.728 537.047 326.876 536.34 326.889 535.375V533.452Z" fill="#333333"/>
<circle cx="74.7644" cy="225.764" r="16.7644" fill="#E0E0E0"/>
<path d="M75.5107 229.888H74.3301V222.062L71.9624 222.931V221.865L75.3267 220.602H75.5107V229.888Z" fill="#333333"/>
<path fill-rule="evenodd" clip-rule="evenodd" d="M235 168L80.9999 226L80.6475 225.064L234.647 167.064L235 168Z" fill="#E0E0E0"/>
<path fill-rule="evenodd" clip-rule="evenodd" d="M395.041 93.9996L322 102L321.891 101.006L394.932 93.0056L395.041 93.9996Z" fill="#E0E0E0"/>
<path fill-rule="evenodd" clip-rule="evenodd" d="M391 161L302 161L302 160L391 160L391 161Z" fill="#E0E0E0"/>
<path fill-rule="evenodd" clip-rule="evenodd" d="M391 219L302 219L302 218L391 218L391 219Z" fill="#E0E0E0"/>
<path fill-rule="evenodd" clip-rule="evenodd" d="M391 302L336 302L336 301L391 301L391 302Z" fill="#E0E0E0"/>
<path fill-rule="evenodd" clip-rule="evenodd" d="M198 277L87 277L87 276L198 276L198 277Z" fill="#E0E0E0"/>
<path fill-rule="evenodd" clip-rule="evenodd" d="M173 469L173 537L172 537L172 469L173 469Z" fill="#E0E0E0"/>
<path fill-rule="evenodd" clip-rule="evenodd" d="M134 457L167.734 534.943L166.816 535.34L133.082 457.397L134 457Z" fill="#E0E0E0"/>
<path fill-rule="evenodd" clip-rule="evenodd" d="M391 370L317 370L317 369L391 369L391 370Z" fill="#E0E0E0"/>
<path fill-rule="evenodd" clip-rule="evenodd" d="M167 362L87 362L87 361L167 361L167 362Z" fill="#E0E0E0"/>
<path fill-rule="evenodd" clip-rule="evenodd" d="M391 374L317 420L316.472 419.15L390.472 373.15L391 374Z" fill="#E0E0E0"/>
<path fill-rule="evenodd" clip-rule="evenodd" d="M316 530L191 430L191.749 429.338L316.749 529.338L316 530Z" fill="#E0E0E0"/>
<path fill-rule="evenodd" clip-rule="evenodd" d="M313 532L158 446L158.574 445.181L313.574 531.181L313 532Z" fill="#E0E0E0"/>
<path fill-rule="evenodd" clip-rule="evenodd" d="M391 366L312 313L312.557 312.17L391.557 365.17L391 366Z" fill="#E0E0E0"/>
<path fill-rule="evenodd" clip-rule="evenodd" d="M80 357.433L169 309L169.478 309.878L80.478 358.312L80 357.433Z" fill="#E0E0E0"/>
<path fill-rule="evenodd" clip-rule="evenodd" d="M81 366L168.375 396.663L168.044 397.606L80.6689 366.943L81 366Z" fill="#E0E0E0"/>
<path fill-rule="evenodd" clip-rule="evenodd" d="M312 313L287 260L287.904 259.573L312.904 312.573L312 313Z" fill="#E0E0E0"/>
<path fill-rule="evenodd" clip-rule="evenodd" d="M257 150L81.0001 152L80.9888 151L256.989 149L257 150Z" fill="#E0E0E0"/>
<path fill-rule="evenodd" clip-rule="evenodd" d="M257 149L304 130L304.375 130.927L257.375 149.927L257 149Z" fill="#E0E0E0"/>
<circle cx="235.867" cy="166.867" r="4.86707" fill="#E0E0E0"/>
<circle cx="299.867" cy="159.867" r="4.86707" fill="#E0E0E0"/>
<circle cx="299.867" cy="218.867" r="4.86707" fill="#E0E0E0"/>
<circle cx="286.867" cy="258.867" r="4.86707" fill="#E0E0E0"/>
<circle cx="311.867" cy="310.867" r="4.86707" fill="#E0E0E0"/>
<circle cx="334.867" cy="301.867" r="4.86707" fill="#E0E0E0"/>
<circle cx="314.867" cy="369.867" r="4.86707" fill="#E0E0E0"/>
<circle cx="314.867" cy="420.867" r="4.86707" fill="#E0E0E0"/>
<circle cx="190.867" cy="428.867" r="4.86707" fill="#E0E0E0"/>
<circle cx="158.867" cy="445.867" r="4.86707" fill="#E0E0E0"/>
<circle cx="172.867" cy="467.867" r="4.86707" fill="#E0E0E0"/>
<circle cx="132.867" cy="455.867" r="4.86707" fill="#E0E0E0"/>
<circle cx="167.867" cy="396.867" r="4.86707" fill="#E0E0E0"/>
<circle cx="167.867" cy="361.867" r="4.86707" fill="#E0E0E0"/>
<circle cx="167.867" cy="309.867" r="4.86707" fill="#E0E0E0"/>
<circle cx="197.867" cy="275.867" r="4.86707" fill="#E0E0E0"/>
<circle cx="256.867" cy="148.867" r="4.86707" fill="#E0E0E0"/>
<circle cx="304.867" cy="128.867" r="4.86707" fill="#E0E0E0"/>
<circle cx="319.867" cy="101.867" r="4.86707" fill="#E0E0E0"/>
<path d="M174.119 534.938C173.873 535.229 173.579 535.464 173.236 535.642C172.898 535.82 172.526 535.909 172.119 535.909C171.586 535.909 171.121 535.778 170.723 535.515C170.329 535.253 170.025 534.885 169.809 534.411C169.593 533.932 169.485 533.406 169.485 532.83C169.485 532.212 169.601 531.656 169.834 531.161C170.071 530.666 170.405 530.287 170.837 530.024C171.269 529.762 171.772 529.631 172.348 529.631C173.262 529.631 173.981 529.974 174.506 530.659C175.035 531.34 175.299 532.271 175.299 533.452V533.795C175.299 535.593 174.944 536.907 174.233 537.737C173.522 538.562 172.449 538.985 171.015 539.006H170.786V538.016H171.034C172.003 537.999 172.748 537.747 173.268 537.261C173.789 536.77 174.072 535.995 174.119 534.938ZM172.31 534.938C172.703 534.938 173.065 534.817 173.395 534.576C173.729 534.334 173.973 534.036 174.125 533.681V533.211C174.125 532.441 173.958 531.814 173.624 531.332C173.289 530.85 172.866 530.608 172.354 530.608C171.838 530.608 171.423 530.807 171.11 531.205C170.797 531.599 170.64 532.119 170.64 532.767C170.64 533.397 170.79 533.918 171.091 534.328C171.396 534.734 171.802 534.938 172.31 534.938Z" fill="#333333"/>
<rect x="461" y="3983" width="5" height="5" fill="white"/>
<rect x="461" y="4547" width="5" height="5" fill="white"/>
<rect y="3983" width="5" height="5" fill="white"/>
<rect y="4547" width="5" height="5" fill="white"/>
<circle cx="403.764" cy="4351.76" r="16.7644" fill="#EDD257"/>
<path d="M407.618 4348.31L403.791 4356.89H402.559L406.374 4348.61H401.372V4347.65H407.618V4348.31Z" fill="#333333"/>
<circle cx="74.7644" cy="4343.76" r="16.7644" fill="#EDD257"/>
<path d="M77.6182 4340.31L73.7905 4348.89H72.5591L76.374 4340.61H71.3721V4339.65H77.6182V4340.31Z" fill="#333333"/>
<path fill-rule="evenodd" clip-rule="evenodd" d="M391 4353L317 4353L317 4352L391 4352L391 4353Z" fill="#EDD257"/>
<path fill-rule="evenodd" clip-rule="evenodd" d="M167 4345L87 4345L87 4344L167 4344L167 4345Z" fill="#EDD257"/>
<path fill-rule="evenodd" clip-rule="evenodd" d="M391 4357L317 4403L316.472 4402.15L390.472 4356.15L391 4357Z" fill="#EDD257"/>
<path fill-rule="evenodd" clip-rule="evenodd" d="M391 4349L312 4296L312.557 4295.17L391.557 4348.17L391 4349Z" fill="#EDD257"/>
<path fill-rule="evenodd" clip-rule="evenodd" d="M80 4340.43L169 4292L169.478 4292.88L80.478 4341.31L80 4340.43Z" fill="#EDD257"/>
<path fill-rule="evenodd" clip-rule="evenodd" d="M81 4349L168.375 4379.66L168.044 4380.61L80.6689 4349.94L81 4349Z" fill="#EDD257"/>
<path fill-rule="evenodd" clip-rule="evenodd" d="M312 4296L287 4243L287.904 4242.57L312.904 4295.57L312 4296Z" fill="#EDD257"/>
<circle cx="286.867" cy="4241.87" r="4.86707" fill="#EDD257"/>
<circle cx="311.867" cy="4293.87" r="4.86707" fill="#EDD257"/>
<circle cx="314.867" cy="4352.87" r="4.86707" fill="#EDD257"/>
<circle cx="314.867" cy="4403.87" r="4.86707" fill="#EDD257"/>
<circle cx="167.867" cy="4379.87" r="4.86707" fill="#EDD257"/>
<circle cx="167.867" cy="4344.87" r="4.86707" fill="#EDD257"/>
<circle cx="167.867" cy="4292.87" r="4.86707" fill="#EDD257"/>
</svg>
